G04 #@! TF.GenerationSoftware,KiCad,Pcbnew,5.1.6-c6e7f7d~87~ubuntu18.04.1*
G04 #@! TF.CreationDate,2020-08-26T01:47:06+02:00*
G04 #@! TF.ProjectId,retropilot_stm32f405_ecu,72657472-6f70-4696-9c6f-745f73746d33,rev?*
G04 #@! TF.SameCoordinates,Original*
G04 #@! TF.FileFunction,Legend,Top*
G04 #@! TF.FilePolarity,Positive*
%FSLAX46Y46*%
G04 Gerber Fmt 4.6, Leading zero omitted, Abs format (unit mm)*
G04 Created by KiCad (PCBNEW 5.1.6-c6e7f7d~87~ubuntu18.04.1) date 2020-08-26 01:47:06*
%MOMM*%
%LPD*%
G01*
G04 APERTURE LIST*
%ADD10C,0.150000*%
%ADD11C,0.250000*%
%ADD12C,0.120000*%
G04 APERTURE END LIST*
D10*
X116338095Y-94200000D02*
X116242857Y-94152380D01*
X116100000Y-94152380D01*
X115957142Y-94200000D01*
X115861904Y-94295238D01*
X115814285Y-94390476D01*
X115766666Y-94580952D01*
X115766666Y-94723809D01*
X115814285Y-94914285D01*
X115861904Y-95009523D01*
X115957142Y-95104761D01*
X116100000Y-95152380D01*
X116195238Y-95152380D01*
X116338095Y-95104761D01*
X116385714Y-95057142D01*
X116385714Y-94723809D01*
X116195238Y-94723809D01*
X116814285Y-95152380D02*
X116814285Y-94152380D01*
X117385714Y-95152380D01*
X117385714Y-94152380D01*
X117861904Y-95152380D02*
X117861904Y-94152380D01*
X118100000Y-94152380D01*
X118242857Y-94200000D01*
X118338095Y-94295238D01*
X118385714Y-94390476D01*
X118433333Y-94580952D01*
X118433333Y-94723809D01*
X118385714Y-94914285D01*
X118338095Y-95009523D01*
X118242857Y-95104761D01*
X118100000Y-95152380D01*
X117861904Y-95152380D01*
X77133794Y-95026190D02*
X77311770Y-95088095D01*
X77621294Y-95088095D01*
X77752842Y-95026190D01*
X77822485Y-94964285D01*
X77899866Y-94840476D01*
X77915342Y-94716666D01*
X77868913Y-94592857D01*
X77814747Y-94530952D01*
X77698675Y-94469047D01*
X77458794Y-94407142D01*
X77342723Y-94345238D01*
X77288556Y-94283333D01*
X77242127Y-94159523D01*
X77257604Y-94035714D01*
X77334985Y-93911904D01*
X77404627Y-93850000D01*
X77536175Y-93788095D01*
X77845699Y-93788095D01*
X78023675Y-93850000D01*
X78402842Y-93788095D02*
X79145699Y-93788095D01*
X78611770Y-95088095D02*
X78774270Y-93788095D01*
X79416532Y-95088095D02*
X79579032Y-93788095D01*
X79896294Y-94716666D01*
X80445699Y-93788095D01*
X80283199Y-95088095D01*
X80940937Y-93788095D02*
X81745699Y-93788095D01*
X81250461Y-94283333D01*
X81436175Y-94283333D01*
X81552247Y-94345238D01*
X81606413Y-94407142D01*
X81652842Y-94530952D01*
X81614151Y-94840476D01*
X81536770Y-94964285D01*
X81467127Y-95026190D01*
X81335580Y-95088095D01*
X80964151Y-95088095D01*
X80848080Y-95026190D01*
X80793913Y-94964285D01*
X82225461Y-93911904D02*
X82295104Y-93850000D01*
X82426651Y-93788095D01*
X82736175Y-93788095D01*
X82852247Y-93850000D01*
X82906413Y-93911904D01*
X82952842Y-94035714D01*
X82937366Y-94159523D01*
X82852247Y-94345238D01*
X82016532Y-95088095D01*
X82821294Y-95088095D01*
X83896889Y-94407142D02*
X83463556Y-94407142D01*
X83378437Y-95088095D02*
X83540937Y-93788095D01*
X84159985Y-93788095D01*
X85158199Y-94221428D02*
X85049866Y-95088095D01*
X84910580Y-93726190D02*
X84484985Y-94654761D01*
X85289747Y-94654761D01*
X86140937Y-93788095D02*
X86264747Y-93788095D01*
X86380818Y-93850000D01*
X86434985Y-93911904D01*
X86481413Y-94035714D01*
X86512366Y-94283333D01*
X86473675Y-94592857D01*
X86380818Y-94840476D01*
X86303437Y-94964285D01*
X86233794Y-95026190D01*
X86102247Y-95088095D01*
X85978437Y-95088095D01*
X85862366Y-95026190D01*
X85808199Y-94964285D01*
X85761770Y-94840476D01*
X85730818Y-94592857D01*
X85769508Y-94283333D01*
X85862366Y-94035714D01*
X85939747Y-93911904D01*
X86009389Y-93850000D01*
X86140937Y-93788095D01*
X87750461Y-93788095D02*
X87131413Y-93788095D01*
X86992127Y-94407142D01*
X87061770Y-94345238D01*
X87193318Y-94283333D01*
X87502842Y-94283333D01*
X87618913Y-94345238D01*
X87673080Y-94407142D01*
X87719508Y-94530952D01*
X87680818Y-94840476D01*
X87603437Y-94964285D01*
X87533794Y-95026190D01*
X87402247Y-95088095D01*
X87092723Y-95088095D01*
X86976651Y-95026190D01*
X86922485Y-94964285D01*
X89282604Y-94407142D02*
X89715937Y-94407142D01*
X89816532Y-95088095D02*
X89197485Y-95088095D01*
X89359985Y-93788095D01*
X89979032Y-93788095D01*
X91132008Y-94964285D02*
X91062366Y-95026190D01*
X90868913Y-95088095D01*
X90745104Y-95088095D01*
X90567127Y-95026190D01*
X90458794Y-94902380D01*
X90412366Y-94778571D01*
X90381413Y-94530952D01*
X90404627Y-94345238D01*
X90497485Y-94097619D01*
X90574866Y-93973809D01*
X90714151Y-93850000D01*
X90907604Y-93788095D01*
X91031413Y-93788095D01*
X91209389Y-93850000D01*
X91263556Y-93911904D01*
X91836175Y-93788095D02*
X91704627Y-94840476D01*
X91751056Y-94964285D01*
X91805223Y-95026190D01*
X91921294Y-95088095D01*
X92168913Y-95088095D01*
X92300461Y-95026190D01*
X92370104Y-94964285D01*
X92447485Y-94840476D01*
X92579032Y-93788095D01*
X94002842Y-93788095D02*
X94273675Y-95088095D01*
X94869508Y-93788095D01*
X95225461Y-93911904D02*
X95295104Y-93850000D01*
X95426651Y-93788095D01*
X95736175Y-93788095D01*
X95852247Y-93850000D01*
X95906413Y-93911904D01*
X95952842Y-94035714D01*
X95937366Y-94159523D01*
X95852247Y-94345238D01*
X95016532Y-95088095D01*
X95821294Y-95088095D01*
X39252380Y-103276190D02*
X39252380Y-103085714D01*
X39204761Y-102990476D01*
X39157142Y-102942857D01*
X39014285Y-102847619D01*
X38823809Y-102800000D01*
X38442857Y-102800000D01*
X38347619Y-102847619D01*
X38300000Y-102895238D01*
X38252380Y-102990476D01*
X38252380Y-103180952D01*
X38300000Y-103276190D01*
X38347619Y-103323809D01*
X38442857Y-103371428D01*
X38680952Y-103371428D01*
X38776190Y-103323809D01*
X38823809Y-103276190D01*
X38871428Y-103180952D01*
X38871428Y-102990476D01*
X38823809Y-102895238D01*
X38776190Y-102847619D01*
X38680952Y-102800000D01*
X39252380Y-99561904D02*
X39252380Y-100133333D01*
X39252380Y-99847619D02*
X38252380Y-99847619D01*
X38395238Y-99942857D01*
X38490476Y-100038095D01*
X38538095Y-100133333D01*
X38252380Y-98942857D02*
X38252380Y-98847619D01*
X38300000Y-98752380D01*
X38347619Y-98704761D01*
X38442857Y-98657142D01*
X38633333Y-98609523D01*
X38871428Y-98609523D01*
X39061904Y-98657142D01*
X39157142Y-98704761D01*
X39204761Y-98752380D01*
X39252380Y-98847619D01*
X39252380Y-98942857D01*
X39204761Y-99038095D01*
X39157142Y-99085714D01*
X39061904Y-99133333D01*
X38871428Y-99180952D01*
X38633333Y-99180952D01*
X38442857Y-99133333D01*
X38347619Y-99085714D01*
X38300000Y-99038095D01*
X38252380Y-98942857D01*
X39252380Y-95371428D02*
X39252380Y-95942857D01*
X39252380Y-95657142D02*
X38252380Y-95657142D01*
X38395238Y-95752380D01*
X38490476Y-95847619D01*
X38538095Y-95942857D01*
X39252380Y-94419047D02*
X39252380Y-94990476D01*
X39252380Y-94704761D02*
X38252380Y-94704761D01*
X38395238Y-94800000D01*
X38490476Y-94895238D01*
X38538095Y-94990476D01*
X39252380Y-91942857D02*
X39252380Y-92514285D01*
X39252380Y-92228571D02*
X38252380Y-92228571D01*
X38395238Y-92323809D01*
X38490476Y-92419047D01*
X38538095Y-92514285D01*
X38347619Y-91561904D02*
X38300000Y-91514285D01*
X38252380Y-91419047D01*
X38252380Y-91180952D01*
X38300000Y-91085714D01*
X38347619Y-91038095D01*
X38442857Y-90990476D01*
X38538095Y-90990476D01*
X38680952Y-91038095D01*
X39252380Y-91609523D01*
X39252380Y-90990476D01*
X39252380Y-86990476D02*
X39252380Y-87561904D01*
X39252380Y-87276190D02*
X38252380Y-87276190D01*
X38395238Y-87371428D01*
X38490476Y-87466666D01*
X38538095Y-87561904D01*
X38252380Y-86657142D02*
X38252380Y-86038095D01*
X38633333Y-86371428D01*
X38633333Y-86228571D01*
X38680952Y-86133333D01*
X38728571Y-86085714D01*
X38823809Y-86038095D01*
X39061904Y-86038095D01*
X39157142Y-86085714D01*
X39204761Y-86133333D01*
X39252380Y-86228571D01*
X39252380Y-86514285D01*
X39204761Y-86609523D01*
X39157142Y-86657142D01*
X39252380Y-83561904D02*
X39252380Y-84133333D01*
X39252380Y-83847619D02*
X38252380Y-83847619D01*
X38395238Y-83942857D01*
X38490476Y-84038095D01*
X38538095Y-84133333D01*
X38585714Y-82704761D02*
X39252380Y-82704761D01*
X38204761Y-82942857D02*
X38919047Y-83180952D01*
X38919047Y-82561904D01*
X39252380Y-79371428D02*
X39252380Y-79942857D01*
X39252380Y-79657142D02*
X38252380Y-79657142D01*
X38395238Y-79752380D01*
X38490476Y-79847619D01*
X38538095Y-79942857D01*
X38252380Y-78466666D02*
X38252380Y-78942857D01*
X38728571Y-78990476D01*
X38680952Y-78942857D01*
X38633333Y-78847619D01*
X38633333Y-78609523D01*
X38680952Y-78514285D01*
X38728571Y-78466666D01*
X38823809Y-78419047D01*
X39061904Y-78419047D01*
X39157142Y-78466666D01*
X39204761Y-78514285D01*
X39252380Y-78609523D01*
X39252380Y-78847619D01*
X39204761Y-78942857D01*
X39157142Y-78990476D01*
X39252380Y-75180952D02*
X39252380Y-75752380D01*
X39252380Y-75466666D02*
X38252380Y-75466666D01*
X38395238Y-75561904D01*
X38490476Y-75657142D01*
X38538095Y-75752380D01*
X38252380Y-74323809D02*
X38252380Y-74514285D01*
X38300000Y-74609523D01*
X38347619Y-74657142D01*
X38490476Y-74752380D01*
X38680952Y-74800000D01*
X39061904Y-74800000D01*
X39157142Y-74752380D01*
X39204761Y-74704761D01*
X39252380Y-74609523D01*
X39252380Y-74419047D01*
X39204761Y-74323809D01*
X39157142Y-74276190D01*
X39061904Y-74228571D01*
X38823809Y-74228571D01*
X38728571Y-74276190D01*
X38680952Y-74323809D01*
X38633333Y-74419047D01*
X38633333Y-74609523D01*
X38680952Y-74704761D01*
X38728571Y-74752380D01*
X38823809Y-74800000D01*
X86583333Y-106583333D02*
X86683333Y-106616666D01*
X86850000Y-106616666D01*
X86916666Y-106583333D01*
X86950000Y-106550000D01*
X86983333Y-106483333D01*
X86983333Y-106416666D01*
X86950000Y-106350000D01*
X86916666Y-106316666D01*
X86850000Y-106283333D01*
X86716666Y-106250000D01*
X86650000Y-106216666D01*
X86616666Y-106183333D01*
X86583333Y-106116666D01*
X86583333Y-106050000D01*
X86616666Y-105983333D01*
X86650000Y-105950000D01*
X86716666Y-105916666D01*
X86883333Y-105916666D01*
X86983333Y-105950000D01*
X87283333Y-106616666D02*
X87283333Y-105916666D01*
X87450000Y-105916666D01*
X87550000Y-105950000D01*
X87616666Y-106016666D01*
X87650000Y-106083333D01*
X87683333Y-106216666D01*
X87683333Y-106316666D01*
X87650000Y-106450000D01*
X87616666Y-106516666D01*
X87550000Y-106583333D01*
X87450000Y-106616666D01*
X87283333Y-106616666D01*
X87950000Y-106416666D02*
X88283333Y-106416666D01*
X87883333Y-106616666D02*
X88116666Y-105916666D01*
X88350000Y-106616666D01*
X89083333Y-106583333D02*
X89183333Y-106616666D01*
X89350000Y-106616666D01*
X89416666Y-106583333D01*
X89450000Y-106550000D01*
X89483333Y-106483333D01*
X89483333Y-106416666D01*
X89450000Y-106350000D01*
X89416666Y-106316666D01*
X89350000Y-106283333D01*
X89216666Y-106250000D01*
X89150000Y-106216666D01*
X89116666Y-106183333D01*
X89083333Y-106116666D01*
X89083333Y-106050000D01*
X89116666Y-105983333D01*
X89150000Y-105950000D01*
X89216666Y-105916666D01*
X89383333Y-105916666D01*
X89483333Y-105950000D01*
X90183333Y-106550000D02*
X90150000Y-106583333D01*
X90050000Y-106616666D01*
X89983333Y-106616666D01*
X89883333Y-106583333D01*
X89816666Y-106516666D01*
X89783333Y-106450000D01*
X89750000Y-106316666D01*
X89750000Y-106216666D01*
X89783333Y-106083333D01*
X89816666Y-106016666D01*
X89883333Y-105950000D01*
X89983333Y-105916666D01*
X90050000Y-105916666D01*
X90150000Y-105950000D01*
X90183333Y-105983333D01*
X90816666Y-106616666D02*
X90483333Y-106616666D01*
X90483333Y-105916666D01*
X91516666Y-105916666D02*
X91950000Y-105916666D01*
X91716666Y-106183333D01*
X91816666Y-106183333D01*
X91883333Y-106216666D01*
X91916666Y-106250000D01*
X91950000Y-106316666D01*
X91950000Y-106483333D01*
X91916666Y-106550000D01*
X91883333Y-106583333D01*
X91816666Y-106616666D01*
X91616666Y-106616666D01*
X91550000Y-106583333D01*
X91516666Y-106550000D01*
X92250000Y-106550000D02*
X92283333Y-106583333D01*
X92250000Y-106616666D01*
X92216666Y-106583333D01*
X92250000Y-106550000D01*
X92250000Y-106616666D01*
X92516666Y-105916666D02*
X92950000Y-105916666D01*
X92716666Y-106183333D01*
X92816666Y-106183333D01*
X92883333Y-106216666D01*
X92916666Y-106250000D01*
X92950000Y-106316666D01*
X92950000Y-106483333D01*
X92916666Y-106550000D01*
X92883333Y-106583333D01*
X92816666Y-106616666D01*
X92616666Y-106616666D01*
X92550000Y-106583333D01*
X92516666Y-106550000D01*
X94150000Y-105950000D02*
X94083333Y-105916666D01*
X93983333Y-105916666D01*
X93883333Y-105950000D01*
X93816666Y-106016666D01*
X93783333Y-106083333D01*
X93750000Y-106216666D01*
X93750000Y-106316666D01*
X93783333Y-106450000D01*
X93816666Y-106516666D01*
X93883333Y-106583333D01*
X93983333Y-106616666D01*
X94050000Y-106616666D01*
X94150000Y-106583333D01*
X94183333Y-106550000D01*
X94183333Y-106316666D01*
X94050000Y-106316666D01*
X94483333Y-106616666D02*
X94483333Y-105916666D01*
X94883333Y-106616666D01*
X94883333Y-105916666D01*
X95216666Y-106616666D02*
X95216666Y-105916666D01*
X95383333Y-105916666D01*
X95483333Y-105950000D01*
X95550000Y-106016666D01*
X95583333Y-106083333D01*
X95616666Y-106216666D01*
X95616666Y-106316666D01*
X95583333Y-106450000D01*
X95550000Y-106516666D01*
X95483333Y-106583333D01*
X95383333Y-106616666D01*
X95216666Y-106616666D01*
X115100000Y-51750000D02*
X115066666Y-51783333D01*
X114966666Y-51816666D01*
X114900000Y-51816666D01*
X114800000Y-51783333D01*
X114733333Y-51716666D01*
X114700000Y-51650000D01*
X114666666Y-51516666D01*
X114666666Y-51416666D01*
X114700000Y-51283333D01*
X114733333Y-51216666D01*
X114800000Y-51150000D01*
X114900000Y-51116666D01*
X114966666Y-51116666D01*
X115066666Y-51150000D01*
X115100000Y-51183333D01*
X115766666Y-51816666D02*
X115366666Y-51816666D01*
X115566666Y-51816666D02*
X115566666Y-51116666D01*
X115500000Y-51216666D01*
X115433333Y-51283333D01*
X115366666Y-51316666D01*
X116233333Y-52050000D02*
X116233333Y-51050000D01*
X117133333Y-51750000D02*
X117100000Y-51783333D01*
X117000000Y-51816666D01*
X116933333Y-51816666D01*
X116833333Y-51783333D01*
X116766666Y-51716666D01*
X116733333Y-51650000D01*
X116700000Y-51516666D01*
X116700000Y-51416666D01*
X116733333Y-51283333D01*
X116766666Y-51216666D01*
X116833333Y-51150000D01*
X116933333Y-51116666D01*
X117000000Y-51116666D01*
X117100000Y-51150000D01*
X117133333Y-51183333D01*
X117400000Y-51183333D02*
X117433333Y-51150000D01*
X117500000Y-51116666D01*
X117666666Y-51116666D01*
X117733333Y-51150000D01*
X117766666Y-51183333D01*
X117800000Y-51250000D01*
X117800000Y-51316666D01*
X117766666Y-51416666D01*
X117366666Y-51816666D01*
X117800000Y-51816666D01*
X118266666Y-52050000D02*
X118266666Y-51050000D01*
X119166666Y-51750000D02*
X119133333Y-51783333D01*
X119033333Y-51816666D01*
X118966666Y-51816666D01*
X118866666Y-51783333D01*
X118800000Y-51716666D01*
X118766666Y-51650000D01*
X118733333Y-51516666D01*
X118733333Y-51416666D01*
X118766666Y-51283333D01*
X118800000Y-51216666D01*
X118866666Y-51150000D01*
X118966666Y-51116666D01*
X119033333Y-51116666D01*
X119133333Y-51150000D01*
X119166666Y-51183333D01*
X119400000Y-51116666D02*
X119833333Y-51116666D01*
X119600000Y-51383333D01*
X119700000Y-51383333D01*
X119766666Y-51416666D01*
X119800000Y-51450000D01*
X119833333Y-51516666D01*
X119833333Y-51683333D01*
X119800000Y-51750000D01*
X119766666Y-51783333D01*
X119700000Y-51816666D01*
X119500000Y-51816666D01*
X119433333Y-51783333D01*
X119400000Y-51750000D01*
X115100000Y-58250000D02*
X115066666Y-58283333D01*
X114966666Y-58316666D01*
X114900000Y-58316666D01*
X114800000Y-58283333D01*
X114733333Y-58216666D01*
X114700000Y-58150000D01*
X114666666Y-58016666D01*
X114666666Y-57916666D01*
X114700000Y-57783333D01*
X114733333Y-57716666D01*
X114800000Y-57650000D01*
X114900000Y-57616666D01*
X114966666Y-57616666D01*
X115066666Y-57650000D01*
X115100000Y-57683333D01*
X115766666Y-58316666D02*
X115366666Y-58316666D01*
X115566666Y-58316666D02*
X115566666Y-57616666D01*
X115500000Y-57716666D01*
X115433333Y-57783333D01*
X115366666Y-57816666D01*
X116233333Y-58550000D02*
X116233333Y-57550000D01*
X117133333Y-58250000D02*
X117100000Y-58283333D01*
X117000000Y-58316666D01*
X116933333Y-58316666D01*
X116833333Y-58283333D01*
X116766666Y-58216666D01*
X116733333Y-58150000D01*
X116700000Y-58016666D01*
X116700000Y-57916666D01*
X116733333Y-57783333D01*
X116766666Y-57716666D01*
X116833333Y-57650000D01*
X116933333Y-57616666D01*
X117000000Y-57616666D01*
X117100000Y-57650000D01*
X117133333Y-57683333D01*
X117400000Y-57683333D02*
X117433333Y-57650000D01*
X117500000Y-57616666D01*
X117666666Y-57616666D01*
X117733333Y-57650000D01*
X117766666Y-57683333D01*
X117800000Y-57750000D01*
X117800000Y-57816666D01*
X117766666Y-57916666D01*
X117366666Y-58316666D01*
X117800000Y-58316666D01*
X118266666Y-58550000D02*
X118266666Y-57550000D01*
X119166666Y-58250000D02*
X119133333Y-58283333D01*
X119033333Y-58316666D01*
X118966666Y-58316666D01*
X118866666Y-58283333D01*
X118800000Y-58216666D01*
X118766666Y-58150000D01*
X118733333Y-58016666D01*
X118733333Y-57916666D01*
X118766666Y-57783333D01*
X118800000Y-57716666D01*
X118866666Y-57650000D01*
X118966666Y-57616666D01*
X119033333Y-57616666D01*
X119133333Y-57650000D01*
X119166666Y-57683333D01*
X119400000Y-57616666D02*
X119833333Y-57616666D01*
X119600000Y-57883333D01*
X119700000Y-57883333D01*
X119766666Y-57916666D01*
X119800000Y-57950000D01*
X119833333Y-58016666D01*
X119833333Y-58183333D01*
X119800000Y-58250000D01*
X119766666Y-58283333D01*
X119700000Y-58316666D01*
X119500000Y-58316666D01*
X119433333Y-58283333D01*
X119400000Y-58250000D01*
X101100000Y-58250000D02*
X101066666Y-58283333D01*
X100966666Y-58316666D01*
X100900000Y-58316666D01*
X100800000Y-58283333D01*
X100733333Y-58216666D01*
X100700000Y-58150000D01*
X100666666Y-58016666D01*
X100666666Y-57916666D01*
X100700000Y-57783333D01*
X100733333Y-57716666D01*
X100800000Y-57650000D01*
X100900000Y-57616666D01*
X100966666Y-57616666D01*
X101066666Y-57650000D01*
X101100000Y-57683333D01*
X101766666Y-58316666D02*
X101366666Y-58316666D01*
X101566666Y-58316666D02*
X101566666Y-57616666D01*
X101500000Y-57716666D01*
X101433333Y-57783333D01*
X101366666Y-57816666D01*
X102233333Y-58550000D02*
X102233333Y-57550000D01*
X103133333Y-58250000D02*
X103100000Y-58283333D01*
X103000000Y-58316666D01*
X102933333Y-58316666D01*
X102833333Y-58283333D01*
X102766666Y-58216666D01*
X102733333Y-58150000D01*
X102700000Y-58016666D01*
X102700000Y-57916666D01*
X102733333Y-57783333D01*
X102766666Y-57716666D01*
X102833333Y-57650000D01*
X102933333Y-57616666D01*
X103000000Y-57616666D01*
X103100000Y-57650000D01*
X103133333Y-57683333D01*
X103400000Y-57683333D02*
X103433333Y-57650000D01*
X103500000Y-57616666D01*
X103666666Y-57616666D01*
X103733333Y-57650000D01*
X103766666Y-57683333D01*
X103800000Y-57750000D01*
X103800000Y-57816666D01*
X103766666Y-57916666D01*
X103366666Y-58316666D01*
X103800000Y-58316666D01*
X104266666Y-58550000D02*
X104266666Y-57550000D01*
X105166666Y-58250000D02*
X105133333Y-58283333D01*
X105033333Y-58316666D01*
X104966666Y-58316666D01*
X104866666Y-58283333D01*
X104800000Y-58216666D01*
X104766666Y-58150000D01*
X104733333Y-58016666D01*
X104733333Y-57916666D01*
X104766666Y-57783333D01*
X104800000Y-57716666D01*
X104866666Y-57650000D01*
X104966666Y-57616666D01*
X105033333Y-57616666D01*
X105133333Y-57650000D01*
X105166666Y-57683333D01*
X105400000Y-57616666D02*
X105833333Y-57616666D01*
X105600000Y-57883333D01*
X105700000Y-57883333D01*
X105766666Y-57916666D01*
X105800000Y-57950000D01*
X105833333Y-58016666D01*
X105833333Y-58183333D01*
X105800000Y-58250000D01*
X105766666Y-58283333D01*
X105700000Y-58316666D01*
X105500000Y-58316666D01*
X105433333Y-58283333D01*
X105400000Y-58250000D01*
X101100000Y-51750000D02*
X101066666Y-51783333D01*
X100966666Y-51816666D01*
X100900000Y-51816666D01*
X100800000Y-51783333D01*
X100733333Y-51716666D01*
X100700000Y-51650000D01*
X100666666Y-51516666D01*
X100666666Y-51416666D01*
X100700000Y-51283333D01*
X100733333Y-51216666D01*
X100800000Y-51150000D01*
X100900000Y-51116666D01*
X100966666Y-51116666D01*
X101066666Y-51150000D01*
X101100000Y-51183333D01*
X101766666Y-51816666D02*
X101366666Y-51816666D01*
X101566666Y-51816666D02*
X101566666Y-51116666D01*
X101500000Y-51216666D01*
X101433333Y-51283333D01*
X101366666Y-51316666D01*
X102233333Y-52050000D02*
X102233333Y-51050000D01*
X103133333Y-51750000D02*
X103100000Y-51783333D01*
X103000000Y-51816666D01*
X102933333Y-51816666D01*
X102833333Y-51783333D01*
X102766666Y-51716666D01*
X102733333Y-51650000D01*
X102700000Y-51516666D01*
X102700000Y-51416666D01*
X102733333Y-51283333D01*
X102766666Y-51216666D01*
X102833333Y-51150000D01*
X102933333Y-51116666D01*
X103000000Y-51116666D01*
X103100000Y-51150000D01*
X103133333Y-51183333D01*
X103400000Y-51183333D02*
X103433333Y-51150000D01*
X103500000Y-51116666D01*
X103666666Y-51116666D01*
X103733333Y-51150000D01*
X103766666Y-51183333D01*
X103800000Y-51250000D01*
X103800000Y-51316666D01*
X103766666Y-51416666D01*
X103366666Y-51816666D01*
X103800000Y-51816666D01*
X104266666Y-52050000D02*
X104266666Y-51050000D01*
X105166666Y-51750000D02*
X105133333Y-51783333D01*
X105033333Y-51816666D01*
X104966666Y-51816666D01*
X104866666Y-51783333D01*
X104800000Y-51716666D01*
X104766666Y-51650000D01*
X104733333Y-51516666D01*
X104733333Y-51416666D01*
X104766666Y-51283333D01*
X104800000Y-51216666D01*
X104866666Y-51150000D01*
X104966666Y-51116666D01*
X105033333Y-51116666D01*
X105133333Y-51150000D01*
X105166666Y-51183333D01*
X105400000Y-51116666D02*
X105833333Y-51116666D01*
X105600000Y-51383333D01*
X105700000Y-51383333D01*
X105766666Y-51416666D01*
X105800000Y-51450000D01*
X105833333Y-51516666D01*
X105833333Y-51683333D01*
X105800000Y-51750000D01*
X105766666Y-51783333D01*
X105700000Y-51816666D01*
X105500000Y-51816666D01*
X105433333Y-51783333D01*
X105400000Y-51750000D01*
X87100000Y-51750000D02*
X87066666Y-51783333D01*
X86966666Y-51816666D01*
X86900000Y-51816666D01*
X86800000Y-51783333D01*
X86733333Y-51716666D01*
X86700000Y-51650000D01*
X86666666Y-51516666D01*
X86666666Y-51416666D01*
X86700000Y-51283333D01*
X86733333Y-51216666D01*
X86800000Y-51150000D01*
X86900000Y-51116666D01*
X86966666Y-51116666D01*
X87066666Y-51150000D01*
X87100000Y-51183333D01*
X87766666Y-51816666D02*
X87366666Y-51816666D01*
X87566666Y-51816666D02*
X87566666Y-51116666D01*
X87500000Y-51216666D01*
X87433333Y-51283333D01*
X87366666Y-51316666D01*
X88233333Y-52050000D02*
X88233333Y-51050000D01*
X89133333Y-51750000D02*
X89100000Y-51783333D01*
X89000000Y-51816666D01*
X88933333Y-51816666D01*
X88833333Y-51783333D01*
X88766666Y-51716666D01*
X88733333Y-51650000D01*
X88700000Y-51516666D01*
X88700000Y-51416666D01*
X88733333Y-51283333D01*
X88766666Y-51216666D01*
X88833333Y-51150000D01*
X88933333Y-51116666D01*
X89000000Y-51116666D01*
X89100000Y-51150000D01*
X89133333Y-51183333D01*
X89400000Y-51183333D02*
X89433333Y-51150000D01*
X89500000Y-51116666D01*
X89666666Y-51116666D01*
X89733333Y-51150000D01*
X89766666Y-51183333D01*
X89800000Y-51250000D01*
X89800000Y-51316666D01*
X89766666Y-51416666D01*
X89366666Y-51816666D01*
X89800000Y-51816666D01*
X90266666Y-52050000D02*
X90266666Y-51050000D01*
X91166666Y-51750000D02*
X91133333Y-51783333D01*
X91033333Y-51816666D01*
X90966666Y-51816666D01*
X90866666Y-51783333D01*
X90800000Y-51716666D01*
X90766666Y-51650000D01*
X90733333Y-51516666D01*
X90733333Y-51416666D01*
X90766666Y-51283333D01*
X90800000Y-51216666D01*
X90866666Y-51150000D01*
X90966666Y-51116666D01*
X91033333Y-51116666D01*
X91133333Y-51150000D01*
X91166666Y-51183333D01*
X91400000Y-51116666D02*
X91833333Y-51116666D01*
X91600000Y-51383333D01*
X91700000Y-51383333D01*
X91766666Y-51416666D01*
X91800000Y-51450000D01*
X91833333Y-51516666D01*
X91833333Y-51683333D01*
X91800000Y-51750000D01*
X91766666Y-51783333D01*
X91700000Y-51816666D01*
X91500000Y-51816666D01*
X91433333Y-51783333D01*
X91400000Y-51750000D01*
X87100000Y-58250000D02*
X87066666Y-58283333D01*
X86966666Y-58316666D01*
X86900000Y-58316666D01*
X86800000Y-58283333D01*
X86733333Y-58216666D01*
X86700000Y-58150000D01*
X86666666Y-58016666D01*
X86666666Y-57916666D01*
X86700000Y-57783333D01*
X86733333Y-57716666D01*
X86800000Y-57650000D01*
X86900000Y-57616666D01*
X86966666Y-57616666D01*
X87066666Y-57650000D01*
X87100000Y-57683333D01*
X87766666Y-58316666D02*
X87366666Y-58316666D01*
X87566666Y-58316666D02*
X87566666Y-57616666D01*
X87500000Y-57716666D01*
X87433333Y-57783333D01*
X87366666Y-57816666D01*
X88233333Y-58550000D02*
X88233333Y-57550000D01*
X89133333Y-58250000D02*
X89100000Y-58283333D01*
X89000000Y-58316666D01*
X88933333Y-58316666D01*
X88833333Y-58283333D01*
X88766666Y-58216666D01*
X88733333Y-58150000D01*
X88700000Y-58016666D01*
X88700000Y-57916666D01*
X88733333Y-57783333D01*
X88766666Y-57716666D01*
X88833333Y-57650000D01*
X88933333Y-57616666D01*
X89000000Y-57616666D01*
X89100000Y-57650000D01*
X89133333Y-57683333D01*
X89400000Y-57683333D02*
X89433333Y-57650000D01*
X89500000Y-57616666D01*
X89666666Y-57616666D01*
X89733333Y-57650000D01*
X89766666Y-57683333D01*
X89800000Y-57750000D01*
X89800000Y-57816666D01*
X89766666Y-57916666D01*
X89366666Y-58316666D01*
X89800000Y-58316666D01*
X90266666Y-58550000D02*
X90266666Y-57550000D01*
X91166666Y-58250000D02*
X91133333Y-58283333D01*
X91033333Y-58316666D01*
X90966666Y-58316666D01*
X90866666Y-58283333D01*
X90800000Y-58216666D01*
X90766666Y-58150000D01*
X90733333Y-58016666D01*
X90733333Y-57916666D01*
X90766666Y-57783333D01*
X90800000Y-57716666D01*
X90866666Y-57650000D01*
X90966666Y-57616666D01*
X91033333Y-57616666D01*
X91133333Y-57650000D01*
X91166666Y-57683333D01*
X91400000Y-57616666D02*
X91833333Y-57616666D01*
X91600000Y-57883333D01*
X91700000Y-57883333D01*
X91766666Y-57916666D01*
X91800000Y-57950000D01*
X91833333Y-58016666D01*
X91833333Y-58183333D01*
X91800000Y-58250000D01*
X91766666Y-58283333D01*
X91700000Y-58316666D01*
X91500000Y-58316666D01*
X91433333Y-58283333D01*
X91400000Y-58250000D01*
X45292857Y-101535714D02*
X45254761Y-101573809D01*
X45140476Y-101611904D01*
X45064285Y-101611904D01*
X44950000Y-101573809D01*
X44873809Y-101497619D01*
X44835714Y-101421428D01*
X44797619Y-101269047D01*
X44797619Y-101154761D01*
X44835714Y-101002380D01*
X44873809Y-100926190D01*
X44950000Y-100850000D01*
X45064285Y-100811904D01*
X45140476Y-100811904D01*
X45254761Y-100850000D01*
X45292857Y-100888095D01*
X46054761Y-101611904D02*
X45597619Y-101611904D01*
X45826190Y-101611904D02*
X45826190Y-100811904D01*
X45750000Y-100926190D01*
X45673809Y-101002380D01*
X45597619Y-101040476D01*
X46588095Y-101878571D02*
X46588095Y-100735714D01*
X47616666Y-101535714D02*
X47578571Y-101573809D01*
X47464285Y-101611904D01*
X47388095Y-101611904D01*
X47273809Y-101573809D01*
X47197619Y-101497619D01*
X47159523Y-101421428D01*
X47121428Y-101269047D01*
X47121428Y-101154761D01*
X47159523Y-101002380D01*
X47197619Y-100926190D01*
X47273809Y-100850000D01*
X47388095Y-100811904D01*
X47464285Y-100811904D01*
X47578571Y-100850000D01*
X47616666Y-100888095D01*
X47921428Y-100888095D02*
X47959523Y-100850000D01*
X48035714Y-100811904D01*
X48226190Y-100811904D01*
X48302380Y-100850000D01*
X48340476Y-100888095D01*
X48378571Y-100964285D01*
X48378571Y-101040476D01*
X48340476Y-101154761D01*
X47883333Y-101611904D01*
X48378571Y-101611904D01*
X48911904Y-101878571D02*
X48911904Y-100735714D01*
X49940476Y-101535714D02*
X49902380Y-101573809D01*
X49788095Y-101611904D01*
X49711904Y-101611904D01*
X49597619Y-101573809D01*
X49521428Y-101497619D01*
X49483333Y-101421428D01*
X49445238Y-101269047D01*
X49445238Y-101154761D01*
X49483333Y-101002380D01*
X49521428Y-100926190D01*
X49597619Y-100850000D01*
X49711904Y-100811904D01*
X49788095Y-100811904D01*
X49902380Y-100850000D01*
X49940476Y-100888095D01*
X50207142Y-100811904D02*
X50702380Y-100811904D01*
X50435714Y-101116666D01*
X50550000Y-101116666D01*
X50626190Y-101154761D01*
X50664285Y-101192857D01*
X50702380Y-101269047D01*
X50702380Y-101459523D01*
X50664285Y-101535714D01*
X50626190Y-101573809D01*
X50550000Y-101611904D01*
X50321428Y-101611904D01*
X50245238Y-101573809D01*
X50207142Y-101535714D01*
X45292857Y-94535714D02*
X45254761Y-94573809D01*
X45140476Y-94611904D01*
X45064285Y-94611904D01*
X44950000Y-94573809D01*
X44873809Y-94497619D01*
X44835714Y-94421428D01*
X44797619Y-94269047D01*
X44797619Y-94154761D01*
X44835714Y-94002380D01*
X44873809Y-93926190D01*
X44950000Y-93850000D01*
X45064285Y-93811904D01*
X45140476Y-93811904D01*
X45254761Y-93850000D01*
X45292857Y-93888095D01*
X46054761Y-94611904D02*
X45597619Y-94611904D01*
X45826190Y-94611904D02*
X45826190Y-93811904D01*
X45750000Y-93926190D01*
X45673809Y-94002380D01*
X45597619Y-94040476D01*
X46588095Y-94878571D02*
X46588095Y-93735714D01*
X47616666Y-94535714D02*
X47578571Y-94573809D01*
X47464285Y-94611904D01*
X47388095Y-94611904D01*
X47273809Y-94573809D01*
X47197619Y-94497619D01*
X47159523Y-94421428D01*
X47121428Y-94269047D01*
X47121428Y-94154761D01*
X47159523Y-94002380D01*
X47197619Y-93926190D01*
X47273809Y-93850000D01*
X47388095Y-93811904D01*
X47464285Y-93811904D01*
X47578571Y-93850000D01*
X47616666Y-93888095D01*
X47921428Y-93888095D02*
X47959523Y-93850000D01*
X48035714Y-93811904D01*
X48226190Y-93811904D01*
X48302380Y-93850000D01*
X48340476Y-93888095D01*
X48378571Y-93964285D01*
X48378571Y-94040476D01*
X48340476Y-94154761D01*
X47883333Y-94611904D01*
X48378571Y-94611904D01*
X48911904Y-94878571D02*
X48911904Y-93735714D01*
X49940476Y-94535714D02*
X49902380Y-94573809D01*
X49788095Y-94611904D01*
X49711904Y-94611904D01*
X49597619Y-94573809D01*
X49521428Y-94497619D01*
X49483333Y-94421428D01*
X49445238Y-94269047D01*
X49445238Y-94154761D01*
X49483333Y-94002380D01*
X49521428Y-93926190D01*
X49597619Y-93850000D01*
X49711904Y-93811904D01*
X49788095Y-93811904D01*
X49902380Y-93850000D01*
X49940476Y-93888095D01*
X50207142Y-93811904D02*
X50702380Y-93811904D01*
X50435714Y-94116666D01*
X50550000Y-94116666D01*
X50626190Y-94154761D01*
X50664285Y-94192857D01*
X50702380Y-94269047D01*
X50702380Y-94459523D01*
X50664285Y-94535714D01*
X50626190Y-94573809D01*
X50550000Y-94611904D01*
X50321428Y-94611904D01*
X50245238Y-94573809D01*
X50207142Y-94535714D01*
X45292857Y-85535714D02*
X45254761Y-85573809D01*
X45140476Y-85611904D01*
X45064285Y-85611904D01*
X44950000Y-85573809D01*
X44873809Y-85497619D01*
X44835714Y-85421428D01*
X44797619Y-85269047D01*
X44797619Y-85154761D01*
X44835714Y-85002380D01*
X44873809Y-84926190D01*
X44950000Y-84850000D01*
X45064285Y-84811904D01*
X45140476Y-84811904D01*
X45254761Y-84850000D01*
X45292857Y-84888095D01*
X46054761Y-85611904D02*
X45597619Y-85611904D01*
X45826190Y-85611904D02*
X45826190Y-84811904D01*
X45750000Y-84926190D01*
X45673809Y-85002380D01*
X45597619Y-85040476D01*
X46588095Y-85878571D02*
X46588095Y-84735714D01*
X47616666Y-85535714D02*
X47578571Y-85573809D01*
X47464285Y-85611904D01*
X47388095Y-85611904D01*
X47273809Y-85573809D01*
X47197619Y-85497619D01*
X47159523Y-85421428D01*
X47121428Y-85269047D01*
X47121428Y-85154761D01*
X47159523Y-85002380D01*
X47197619Y-84926190D01*
X47273809Y-84850000D01*
X47388095Y-84811904D01*
X47464285Y-84811904D01*
X47578571Y-84850000D01*
X47616666Y-84888095D01*
X47921428Y-84888095D02*
X47959523Y-84850000D01*
X48035714Y-84811904D01*
X48226190Y-84811904D01*
X48302380Y-84850000D01*
X48340476Y-84888095D01*
X48378571Y-84964285D01*
X48378571Y-85040476D01*
X48340476Y-85154761D01*
X47883333Y-85611904D01*
X48378571Y-85611904D01*
X48911904Y-85878571D02*
X48911904Y-84735714D01*
X49940476Y-85535714D02*
X49902380Y-85573809D01*
X49788095Y-85611904D01*
X49711904Y-85611904D01*
X49597619Y-85573809D01*
X49521428Y-85497619D01*
X49483333Y-85421428D01*
X49445238Y-85269047D01*
X49445238Y-85154761D01*
X49483333Y-85002380D01*
X49521428Y-84926190D01*
X49597619Y-84850000D01*
X49711904Y-84811904D01*
X49788095Y-84811904D01*
X49902380Y-84850000D01*
X49940476Y-84888095D01*
X50207142Y-84811904D02*
X50702380Y-84811904D01*
X50435714Y-85116666D01*
X50550000Y-85116666D01*
X50626190Y-85154761D01*
X50664285Y-85192857D01*
X50702380Y-85269047D01*
X50702380Y-85459523D01*
X50664285Y-85535714D01*
X50626190Y-85573809D01*
X50550000Y-85611904D01*
X50321428Y-85611904D01*
X50245238Y-85573809D01*
X50207142Y-85535714D01*
D11*
X73094568Y-91304761D02*
X72546949Y-90352380D01*
X71951711Y-91304761D02*
X72201711Y-89304761D01*
X72963616Y-89304761D01*
X73142187Y-89400000D01*
X73225520Y-89495238D01*
X73296949Y-89685714D01*
X73261235Y-89971428D01*
X73142187Y-90161904D01*
X73035044Y-90257142D01*
X72832663Y-90352380D01*
X72070758Y-90352380D01*
X74725520Y-91209523D02*
X74523139Y-91304761D01*
X74142187Y-91304761D01*
X73963616Y-91209523D01*
X73892187Y-91019047D01*
X73987425Y-90257142D01*
X74106473Y-90066666D01*
X74308854Y-89971428D01*
X74689806Y-89971428D01*
X74868377Y-90066666D01*
X74939806Y-90257142D01*
X74915997Y-90447619D01*
X73939806Y-90638095D01*
X75546949Y-89971428D02*
X76308854Y-89971428D01*
X75915997Y-89304761D02*
X75701711Y-91019047D01*
X75773139Y-91209523D01*
X75951711Y-91304761D01*
X76142187Y-91304761D01*
X76808854Y-91304761D02*
X76975520Y-89971428D01*
X76927901Y-90352380D02*
X77046949Y-90161904D01*
X77154092Y-90066666D01*
X77356473Y-89971428D01*
X77546949Y-89971428D01*
X78332663Y-91304761D02*
X78154092Y-91209523D01*
X78070758Y-91114285D01*
X77999330Y-90923809D01*
X78070758Y-90352380D01*
X78189806Y-90161904D01*
X78296949Y-90066666D01*
X78499330Y-89971428D01*
X78785044Y-89971428D01*
X78963616Y-90066666D01*
X79046949Y-90161904D01*
X79118377Y-90352380D01*
X79046949Y-90923809D01*
X78927901Y-91114285D01*
X78820758Y-91209523D01*
X78618377Y-91304761D01*
X78332663Y-91304761D01*
X79856473Y-91304761D02*
X80106473Y-89304761D01*
X80868377Y-89304761D01*
X81046949Y-89400000D01*
X81130282Y-89495238D01*
X81201711Y-89685714D01*
X81165997Y-89971428D01*
X81046949Y-90161904D01*
X80939806Y-90257142D01*
X80737425Y-90352380D01*
X79975520Y-90352380D01*
X81856473Y-91304761D02*
X82023139Y-89971428D01*
X82106473Y-89304761D02*
X81999330Y-89400000D01*
X82082663Y-89495238D01*
X82189806Y-89400000D01*
X82106473Y-89304761D01*
X82082663Y-89495238D01*
X83094568Y-91304761D02*
X82915997Y-91209523D01*
X82844568Y-91019047D01*
X83058854Y-89304761D01*
X84142187Y-91304761D02*
X83963616Y-91209523D01*
X83880282Y-91114285D01*
X83808854Y-90923809D01*
X83880282Y-90352380D01*
X83999330Y-90161904D01*
X84106473Y-90066666D01*
X84308854Y-89971428D01*
X84594568Y-89971428D01*
X84773139Y-90066666D01*
X84856473Y-90161904D01*
X84927901Y-90352380D01*
X84856473Y-90923809D01*
X84737425Y-91114285D01*
X84630282Y-91209523D01*
X84427901Y-91304761D01*
X84142187Y-91304761D01*
X85546949Y-89971428D02*
X86308854Y-89971428D01*
X85915997Y-89304761D02*
X85701711Y-91019047D01*
X85773139Y-91209523D01*
X85951711Y-91304761D01*
X86142187Y-91304761D01*
D10*
X36652380Y-102614285D02*
X36652380Y-103185714D01*
X36652380Y-102900000D02*
X35652380Y-102900000D01*
X35795238Y-102995238D01*
X35890476Y-103090476D01*
X35938095Y-103185714D01*
X35747619Y-99185714D02*
X35700000Y-99138095D01*
X35652380Y-99042857D01*
X35652380Y-98804761D01*
X35700000Y-98709523D01*
X35747619Y-98661904D01*
X35842857Y-98614285D01*
X35938095Y-98614285D01*
X36080952Y-98661904D01*
X36652380Y-99233333D01*
X36652380Y-98614285D01*
X35652380Y-95233333D02*
X35652380Y-94614285D01*
X36033333Y-94947619D01*
X36033333Y-94804761D01*
X36080952Y-94709523D01*
X36128571Y-94661904D01*
X36223809Y-94614285D01*
X36461904Y-94614285D01*
X36557142Y-94661904D01*
X36604761Y-94709523D01*
X36652380Y-94804761D01*
X36652380Y-95090476D01*
X36604761Y-95185714D01*
X36557142Y-95233333D01*
X35985714Y-90709523D02*
X36652380Y-90709523D01*
X35604761Y-90947619D02*
X36319047Y-91185714D01*
X36319047Y-90566666D01*
X35652380Y-86661904D02*
X35652380Y-87138095D01*
X36128571Y-87185714D01*
X36080952Y-87138095D01*
X36033333Y-87042857D01*
X36033333Y-86804761D01*
X36080952Y-86709523D01*
X36128571Y-86661904D01*
X36223809Y-86614285D01*
X36461904Y-86614285D01*
X36557142Y-86661904D01*
X36604761Y-86709523D01*
X36652380Y-86804761D01*
X36652380Y-87042857D01*
X36604761Y-87138095D01*
X36557142Y-87185714D01*
X35652380Y-82709523D02*
X35652380Y-82900000D01*
X35700000Y-82995238D01*
X35747619Y-83042857D01*
X35890476Y-83138095D01*
X36080952Y-83185714D01*
X36461904Y-83185714D01*
X36557142Y-83138095D01*
X36604761Y-83090476D01*
X36652380Y-82995238D01*
X36652380Y-82804761D01*
X36604761Y-82709523D01*
X36557142Y-82661904D01*
X36461904Y-82614285D01*
X36223809Y-82614285D01*
X36128571Y-82661904D01*
X36080952Y-82709523D01*
X36033333Y-82804761D01*
X36033333Y-82995238D01*
X36080952Y-83090476D01*
X36128571Y-83138095D01*
X36223809Y-83185714D01*
X35652380Y-79233333D02*
X35652380Y-78566666D01*
X36652380Y-78995238D01*
X36080952Y-74995238D02*
X36033333Y-75090476D01*
X35985714Y-75138095D01*
X35890476Y-75185714D01*
X35842857Y-75185714D01*
X35747619Y-75138095D01*
X35700000Y-75090476D01*
X35652380Y-74995238D01*
X35652380Y-74804761D01*
X35700000Y-74709523D01*
X35747619Y-74661904D01*
X35842857Y-74614285D01*
X35890476Y-74614285D01*
X35985714Y-74661904D01*
X36033333Y-74709523D01*
X36080952Y-74804761D01*
X36080952Y-74995238D01*
X36128571Y-75090476D01*
X36176190Y-75138095D01*
X36271428Y-75185714D01*
X36461904Y-75185714D01*
X36557142Y-75138095D01*
X36604761Y-75090476D01*
X36652380Y-74995238D01*
X36652380Y-74804761D01*
X36604761Y-74709523D01*
X36557142Y-74661904D01*
X36461904Y-74614285D01*
X36271428Y-74614285D01*
X36176190Y-74661904D01*
X36128571Y-74709523D01*
X36080952Y-74804761D01*
X116738095Y-96452380D02*
X117309523Y-96452380D01*
X117023809Y-97452380D02*
X117023809Y-96452380D01*
X117547619Y-96452380D02*
X118214285Y-97452380D01*
X118214285Y-96452380D02*
X117547619Y-97452380D01*
X117333333Y-100352380D02*
X117000000Y-99876190D01*
X116761904Y-100352380D02*
X116761904Y-99352380D01*
X117142857Y-99352380D01*
X117238095Y-99400000D01*
X117285714Y-99447619D01*
X117333333Y-99542857D01*
X117333333Y-99685714D01*
X117285714Y-99780952D01*
X117238095Y-99828571D01*
X117142857Y-99876190D01*
X116761904Y-99876190D01*
X117666666Y-99352380D02*
X118333333Y-100352380D01*
X118333333Y-99352380D02*
X117666666Y-100352380D01*
X45292857Y-78535714D02*
X45254761Y-78573809D01*
X45140476Y-78611904D01*
X45064285Y-78611904D01*
X44950000Y-78573809D01*
X44873809Y-78497619D01*
X44835714Y-78421428D01*
X44797619Y-78269047D01*
X44797619Y-78154761D01*
X44835714Y-78002380D01*
X44873809Y-77926190D01*
X44950000Y-77850000D01*
X45064285Y-77811904D01*
X45140476Y-77811904D01*
X45254761Y-77850000D01*
X45292857Y-77888095D01*
X46054761Y-78611904D02*
X45597619Y-78611904D01*
X45826190Y-78611904D02*
X45826190Y-77811904D01*
X45750000Y-77926190D01*
X45673809Y-78002380D01*
X45597619Y-78040476D01*
X46588095Y-78878571D02*
X46588095Y-77735714D01*
X47616666Y-78535714D02*
X47578571Y-78573809D01*
X47464285Y-78611904D01*
X47388095Y-78611904D01*
X47273809Y-78573809D01*
X47197619Y-78497619D01*
X47159523Y-78421428D01*
X47121428Y-78269047D01*
X47121428Y-78154761D01*
X47159523Y-78002380D01*
X47197619Y-77926190D01*
X47273809Y-77850000D01*
X47388095Y-77811904D01*
X47464285Y-77811904D01*
X47578571Y-77850000D01*
X47616666Y-77888095D01*
X47921428Y-77888095D02*
X47959523Y-77850000D01*
X48035714Y-77811904D01*
X48226190Y-77811904D01*
X48302380Y-77850000D01*
X48340476Y-77888095D01*
X48378571Y-77964285D01*
X48378571Y-78040476D01*
X48340476Y-78154761D01*
X47883333Y-78611904D01*
X48378571Y-78611904D01*
X48911904Y-78878571D02*
X48911904Y-77735714D01*
X49940476Y-78535714D02*
X49902380Y-78573809D01*
X49788095Y-78611904D01*
X49711904Y-78611904D01*
X49597619Y-78573809D01*
X49521428Y-78497619D01*
X49483333Y-78421428D01*
X49445238Y-78269047D01*
X49445238Y-78154761D01*
X49483333Y-78002380D01*
X49521428Y-77926190D01*
X49597619Y-77850000D01*
X49711904Y-77811904D01*
X49788095Y-77811904D01*
X49902380Y-77850000D01*
X49940476Y-77888095D01*
X50207142Y-77811904D02*
X50702380Y-77811904D01*
X50435714Y-78116666D01*
X50550000Y-78116666D01*
X50626190Y-78154761D01*
X50664285Y-78192857D01*
X50702380Y-78269047D01*
X50702380Y-78459523D01*
X50664285Y-78535714D01*
X50626190Y-78573809D01*
X50550000Y-78611904D01*
X50321428Y-78611904D01*
X50245238Y-78573809D01*
X50207142Y-78535714D01*
D12*
X130490000Y-100710000D02*
X121860000Y-100710000D01*
X130490000Y-100591905D02*
X121860000Y-100591905D01*
X130490000Y-100473810D02*
X121860000Y-100473810D01*
X130490000Y-100355715D02*
X121860000Y-100355715D01*
X130490000Y-100237620D02*
X121860000Y-100237620D01*
X130490000Y-100119525D02*
X121860000Y-100119525D01*
X130490000Y-100001430D02*
X121860000Y-100001430D01*
X130490000Y-99883335D02*
X121860000Y-99883335D01*
X130490000Y-99765240D02*
X121860000Y-99765240D01*
X130490000Y-99647145D02*
X121860000Y-99647145D01*
X130490000Y-99529050D02*
X121860000Y-99529050D01*
X130490000Y-99410955D02*
X121860000Y-99410955D01*
X130490000Y-99292860D02*
X121860000Y-99292860D01*
X130490000Y-99174765D02*
X121860000Y-99174765D01*
X130490000Y-99056670D02*
X121860000Y-99056670D01*
X130490000Y-98938575D02*
X121860000Y-98938575D01*
X130490000Y-98820480D02*
X121860000Y-98820480D01*
X130490000Y-98702385D02*
X121860000Y-98702385D01*
X130490000Y-98584290D02*
X121860000Y-98584290D01*
X130490000Y-98466195D02*
X121860000Y-98466195D01*
X130490000Y-98348100D02*
X121860000Y-98348100D01*
X121860000Y-99860000D02*
X121510000Y-99860000D01*
X121860000Y-99140000D02*
X121510000Y-99140000D01*
X121860000Y-97320000D02*
X121450000Y-97320000D01*
X121860000Y-96600000D02*
X121450000Y-96600000D01*
X121860000Y-94780000D02*
X121450000Y-94780000D01*
X121860000Y-94060000D02*
X121450000Y-94060000D01*
X130490000Y-98230000D02*
X121860000Y-98230000D01*
X130490000Y-95690000D02*
X121860000Y-95690000D01*
X130490000Y-100830000D02*
X121860000Y-100830000D01*
X121860000Y-100830000D02*
X121860000Y-93090000D01*
X130490000Y-93090000D02*
X121860000Y-93090000D01*
X130490000Y-100830000D02*
X130490000Y-93090000D01*
X119290000Y-100830000D02*
X119290000Y-99500000D01*
X120400000Y-100830000D02*
X119290000Y-100830000D01*
X40700000Y-54000000D02*
X41000000Y-53400000D01*
X41300000Y-54000000D02*
X40700000Y-54000000D01*
X41000000Y-53400000D02*
X41300000Y-54000000D01*
X43110000Y-51100000D02*
X44390000Y-51100000D01*
X43110000Y-51700000D02*
X44390000Y-51700000D01*
X26990000Y-48590000D02*
X26990000Y-51400000D01*
X40010000Y-48590000D02*
X26990000Y-48590000D01*
X40010000Y-49400000D02*
X40010000Y-48590000D01*
X26990000Y-54210000D02*
X26990000Y-51400000D01*
X40010000Y-54210000D02*
X26990000Y-54210000D01*
X40010000Y-53400000D02*
X40010000Y-54210000D01*
X77790000Y-72800000D02*
X77790000Y-73210000D01*
X77790000Y-73210000D02*
X84210000Y-73210000D01*
X84210000Y-73210000D02*
X84210000Y-72930000D01*
X84210000Y-71200000D02*
X84210000Y-68800000D01*
X84210000Y-67200000D02*
X84210000Y-66790000D01*
X84210000Y-66790000D02*
X77790000Y-66790000D01*
X77790000Y-66790000D02*
X77790000Y-67200000D01*
X77790000Y-68800000D02*
X77790000Y-71200000D01*
X88790000Y-72800000D02*
X88790000Y-73210000D01*
X88790000Y-73210000D02*
X95210000Y-73210000D01*
X95210000Y-73210000D02*
X95210000Y-72930000D01*
X95210000Y-71200000D02*
X95210000Y-68800000D01*
X95210000Y-67200000D02*
X95210000Y-66790000D01*
X95210000Y-66790000D02*
X88790000Y-66790000D01*
X88790000Y-66790000D02*
X88790000Y-67200000D01*
X88790000Y-68800000D02*
X88790000Y-71200000D01*
X45700000Y-106130000D02*
X45700000Y-105000000D01*
X46460000Y-106130000D02*
X45700000Y-106130000D01*
X45765000Y-103422470D02*
X45765000Y-102600000D01*
X45765000Y-104240000D02*
X45765000Y-104037530D01*
X45896529Y-104240000D02*
X45765000Y-104240000D01*
X47166529Y-104240000D02*
X47023471Y-104240000D01*
X47220000Y-104436529D02*
X47220000Y-104293471D01*
X47220000Y-106130000D02*
X47220000Y-105563471D01*
X45765000Y-102600000D02*
X49695000Y-102600000D01*
X47220000Y-106130000D02*
X49695000Y-106130000D01*
X49695000Y-104692470D02*
X49695000Y-104037530D01*
X49695000Y-103422470D02*
X49695000Y-102600000D01*
X49695000Y-106130000D02*
X49695000Y-105307530D01*
X45700000Y-99130000D02*
X45700000Y-98000000D01*
X46460000Y-99130000D02*
X45700000Y-99130000D01*
X45765000Y-96422470D02*
X45765000Y-95600000D01*
X45765000Y-97240000D02*
X45765000Y-97037530D01*
X45896529Y-97240000D02*
X45765000Y-97240000D01*
X47166529Y-97240000D02*
X47023471Y-97240000D01*
X47220000Y-97436529D02*
X47220000Y-97293471D01*
X47220000Y-99130000D02*
X47220000Y-98563471D01*
X45765000Y-95600000D02*
X49695000Y-95600000D01*
X47220000Y-99130000D02*
X49695000Y-99130000D01*
X49695000Y-97692470D02*
X49695000Y-97037530D01*
X49695000Y-96422470D02*
X49695000Y-95600000D01*
X49695000Y-99130000D02*
X49695000Y-98307530D01*
X45700000Y-90130000D02*
X45700000Y-89000000D01*
X46460000Y-90130000D02*
X45700000Y-90130000D01*
X45765000Y-87422470D02*
X45765000Y-86600000D01*
X45765000Y-88240000D02*
X45765000Y-88037530D01*
X45896529Y-88240000D02*
X45765000Y-88240000D01*
X47166529Y-88240000D02*
X47023471Y-88240000D01*
X47220000Y-88436529D02*
X47220000Y-88293471D01*
X47220000Y-90130000D02*
X47220000Y-89563471D01*
X45765000Y-86600000D02*
X49695000Y-86600000D01*
X47220000Y-90130000D02*
X49695000Y-90130000D01*
X49695000Y-88692470D02*
X49695000Y-88037530D01*
X49695000Y-87422470D02*
X49695000Y-86600000D01*
X49695000Y-90130000D02*
X49695000Y-89307530D01*
X45700000Y-83130000D02*
X45700000Y-82000000D01*
X46460000Y-83130000D02*
X45700000Y-83130000D01*
X45765000Y-80422470D02*
X45765000Y-79600000D01*
X45765000Y-81240000D02*
X45765000Y-81037530D01*
X45896529Y-81240000D02*
X45765000Y-81240000D01*
X47166529Y-81240000D02*
X47023471Y-81240000D01*
X47220000Y-81436529D02*
X47220000Y-81293471D01*
X47220000Y-83130000D02*
X47220000Y-82563471D01*
X45765000Y-79600000D02*
X49695000Y-79600000D01*
X47220000Y-83130000D02*
X49695000Y-83130000D01*
X49695000Y-81692470D02*
X49695000Y-81037530D01*
X49695000Y-80422470D02*
X49695000Y-79600000D01*
X49695000Y-83130000D02*
X49695000Y-82307530D01*
X115240000Y-61130000D02*
X115240000Y-60000000D01*
X116000000Y-61130000D02*
X115240000Y-61130000D01*
X115305000Y-58422470D02*
X115305000Y-57600000D01*
X115305000Y-59240000D02*
X115305000Y-59037530D01*
X115436529Y-59240000D02*
X115305000Y-59240000D01*
X116706529Y-59240000D02*
X116563471Y-59240000D01*
X116760000Y-59436529D02*
X116760000Y-59293471D01*
X116760000Y-61130000D02*
X116760000Y-60563471D01*
X115305000Y-57600000D02*
X119235000Y-57600000D01*
X116760000Y-61130000D02*
X119235000Y-61130000D01*
X119235000Y-59692470D02*
X119235000Y-59037530D01*
X119235000Y-58422470D02*
X119235000Y-57600000D01*
X119235000Y-61130000D02*
X119235000Y-60307530D01*
X115240000Y-54630000D02*
X115240000Y-53500000D01*
X116000000Y-54630000D02*
X115240000Y-54630000D01*
X115305000Y-51922470D02*
X115305000Y-51100000D01*
X115305000Y-52740000D02*
X115305000Y-52537530D01*
X115436529Y-52740000D02*
X115305000Y-52740000D01*
X116706529Y-52740000D02*
X116563471Y-52740000D01*
X116760000Y-52936529D02*
X116760000Y-52793471D01*
X116760000Y-54630000D02*
X116760000Y-54063471D01*
X115305000Y-51100000D02*
X119235000Y-51100000D01*
X116760000Y-54630000D02*
X119235000Y-54630000D01*
X119235000Y-53192470D02*
X119235000Y-52537530D01*
X119235000Y-51922470D02*
X119235000Y-51100000D01*
X119235000Y-54630000D02*
X119235000Y-53807530D01*
X101240000Y-61130000D02*
X101240000Y-60000000D01*
X102000000Y-61130000D02*
X101240000Y-61130000D01*
X101305000Y-58422470D02*
X101305000Y-57600000D01*
X101305000Y-59240000D02*
X101305000Y-59037530D01*
X101436529Y-59240000D02*
X101305000Y-59240000D01*
X102706529Y-59240000D02*
X102563471Y-59240000D01*
X102760000Y-59436529D02*
X102760000Y-59293471D01*
X102760000Y-61130000D02*
X102760000Y-60563471D01*
X101305000Y-57600000D02*
X105235000Y-57600000D01*
X102760000Y-61130000D02*
X105235000Y-61130000D01*
X105235000Y-59692470D02*
X105235000Y-59037530D01*
X105235000Y-58422470D02*
X105235000Y-57600000D01*
X105235000Y-61130000D02*
X105235000Y-60307530D01*
X101240000Y-54630000D02*
X101240000Y-53500000D01*
X102000000Y-54630000D02*
X101240000Y-54630000D01*
X101305000Y-51922470D02*
X101305000Y-51100000D01*
X101305000Y-52740000D02*
X101305000Y-52537530D01*
X101436529Y-52740000D02*
X101305000Y-52740000D01*
X102706529Y-52740000D02*
X102563471Y-52740000D01*
X102760000Y-52936529D02*
X102760000Y-52793471D01*
X102760000Y-54630000D02*
X102760000Y-54063471D01*
X101305000Y-51100000D02*
X105235000Y-51100000D01*
X102760000Y-54630000D02*
X105235000Y-54630000D01*
X105235000Y-53192470D02*
X105235000Y-52537530D01*
X105235000Y-51922470D02*
X105235000Y-51100000D01*
X105235000Y-54630000D02*
X105235000Y-53807530D01*
X87240000Y-61130000D02*
X87240000Y-60000000D01*
X88000000Y-61130000D02*
X87240000Y-61130000D01*
X87305000Y-58422470D02*
X87305000Y-57600000D01*
X87305000Y-59240000D02*
X87305000Y-59037530D01*
X87436529Y-59240000D02*
X87305000Y-59240000D01*
X88706529Y-59240000D02*
X88563471Y-59240000D01*
X88760000Y-59436529D02*
X88760000Y-59293471D01*
X88760000Y-61130000D02*
X88760000Y-60563471D01*
X87305000Y-57600000D02*
X91235000Y-57600000D01*
X88760000Y-61130000D02*
X91235000Y-61130000D01*
X91235000Y-59692470D02*
X91235000Y-59037530D01*
X91235000Y-58422470D02*
X91235000Y-57600000D01*
X91235000Y-61130000D02*
X91235000Y-60307530D01*
X87240000Y-54630000D02*
X87240000Y-53500000D01*
X88000000Y-54630000D02*
X87240000Y-54630000D01*
X87305000Y-51922470D02*
X87305000Y-51100000D01*
X87305000Y-52740000D02*
X87305000Y-52537530D01*
X87436529Y-52740000D02*
X87305000Y-52740000D01*
X88706529Y-52740000D02*
X88563471Y-52740000D01*
X88760000Y-52936529D02*
X88760000Y-52793471D01*
X88760000Y-54630000D02*
X88760000Y-54063471D01*
X87305000Y-51100000D02*
X91235000Y-51100000D01*
X88760000Y-54630000D02*
X91235000Y-54630000D01*
X91235000Y-53192470D02*
X91235000Y-52537530D01*
X91235000Y-51922470D02*
X91235000Y-51100000D01*
X91235000Y-54630000D02*
X91235000Y-53807530D01*
X72750000Y-102910000D02*
X66740000Y-102910000D01*
X70500000Y-96090000D02*
X66740000Y-96090000D01*
X66740000Y-102910000D02*
X66740000Y-101650000D01*
X66740000Y-96090000D02*
X66740000Y-97350000D01*
X109890000Y-60700000D02*
X111000000Y-60700000D01*
X109890000Y-61460000D02*
X109890000Y-60700000D01*
X111563471Y-62220000D02*
X112110000Y-62220000D01*
X109890000Y-62220000D02*
X110436529Y-62220000D01*
X112110000Y-62220000D02*
X112110000Y-63425000D01*
X109890000Y-62220000D02*
X109890000Y-63425000D01*
X111307530Y-63425000D02*
X112110000Y-63425000D01*
X109890000Y-63425000D02*
X110692470Y-63425000D01*
X94890000Y-60240000D02*
X96000000Y-60240000D01*
X94890000Y-61000000D02*
X94890000Y-60240000D01*
X96563471Y-61760000D02*
X97110000Y-61760000D01*
X94890000Y-61760000D02*
X95436529Y-61760000D01*
X97110000Y-61760000D02*
X97110000Y-62965000D01*
X94890000Y-61760000D02*
X94890000Y-62965000D01*
X96307530Y-62965000D02*
X97110000Y-62965000D01*
X94890000Y-62965000D02*
X95692470Y-62965000D01*
X81890000Y-60240000D02*
X83000000Y-60240000D01*
X81890000Y-61000000D02*
X81890000Y-60240000D01*
X83563471Y-61760000D02*
X84110000Y-61760000D01*
X81890000Y-61760000D02*
X82436529Y-61760000D01*
X84110000Y-61760000D02*
X84110000Y-62965000D01*
X81890000Y-61760000D02*
X81890000Y-62965000D01*
X83307530Y-62965000D02*
X84110000Y-62965000D01*
X81890000Y-62965000D02*
X82692470Y-62965000D01*
X55000000Y-85050000D02*
X55000000Y-86550000D01*
X55000000Y-86550000D02*
X56810000Y-86550000D01*
X56810000Y-86550000D02*
X56810000Y-91675000D01*
X65400000Y-85050000D02*
X65400000Y-86550000D01*
X65400000Y-86550000D02*
X63590000Y-86550000D01*
X63590000Y-86550000D02*
X63590000Y-87650000D01*
X68900000Y-55850000D02*
X68900000Y-57600000D01*
X68900000Y-71950000D02*
X68900000Y-70200000D01*
X60550000Y-71950000D02*
X57700000Y-71950000D01*
X57700000Y-71950000D02*
X57700000Y-70200000D01*
X68900000Y-55850000D02*
X66050000Y-55850000D01*
X57700000Y-55850000D02*
X57700000Y-57600000D01*
X57700000Y-57600000D02*
X55700000Y-57600000D01*
X60550000Y-55850000D02*
X57700000Y-55850000D01*
X68900000Y-71950000D02*
X66050000Y-71950000D01*
X57110000Y-50750279D02*
X57110000Y-50424721D01*
X56090000Y-50750279D02*
X56090000Y-50424721D01*
X52400000Y-55850000D02*
X52400000Y-57600000D01*
X52400000Y-71950000D02*
X52400000Y-70200000D01*
X44050000Y-71950000D02*
X41200000Y-71950000D01*
X41200000Y-71950000D02*
X41200000Y-70200000D01*
X52400000Y-55850000D02*
X49550000Y-55850000D01*
X41200000Y-55850000D02*
X41200000Y-57600000D01*
X41200000Y-57600000D02*
X39200000Y-57600000D01*
X44050000Y-55850000D02*
X41200000Y-55850000D01*
X52400000Y-71950000D02*
X49550000Y-71950000D01*
X43600000Y-38410000D02*
X42790000Y-38410000D01*
X42790000Y-38410000D02*
X42790000Y-25390000D01*
X42790000Y-25390000D02*
X49800000Y-25390000D01*
X56000000Y-38410000D02*
X56810000Y-38410000D01*
X56810000Y-38410000D02*
X56810000Y-25390000D01*
X56810000Y-25390000D02*
X49800000Y-25390000D01*
X45300000Y-41510000D02*
X45300000Y-42790000D01*
X45900000Y-41510000D02*
X45900000Y-42790000D01*
X49500000Y-41510000D02*
X49500000Y-42790000D01*
X50100000Y-41510000D02*
X50100000Y-42790000D01*
X53700000Y-41510000D02*
X53700000Y-42790000D01*
X54300000Y-41510000D02*
X54300000Y-42790000D01*
X47210000Y-38400000D02*
X48190000Y-38400000D01*
X51410000Y-38400000D02*
X52390000Y-38400000D01*
X43600000Y-39400000D02*
X43000000Y-39700000D01*
X43000000Y-39700000D02*
X43000000Y-39100000D01*
X43000000Y-39100000D02*
X43600000Y-39400000D01*
X50425000Y-49470000D02*
X54275000Y-49470000D01*
X50425000Y-51470000D02*
X54275000Y-51470000D01*
X50425000Y-49470000D02*
X50425000Y-51470000D01*
X57700000Y-32700000D02*
X61550000Y-32700000D01*
X57700000Y-34700000D02*
X61550000Y-34700000D01*
X57700000Y-32700000D02*
X57700000Y-34700000D01*
X34300000Y-43600000D02*
X34300000Y-47450000D01*
X32300000Y-43600000D02*
X32300000Y-47450000D01*
X34300000Y-43600000D02*
X32300000Y-43600000D01*
X37600000Y-38200000D02*
X41450000Y-38200000D01*
X37600000Y-40200000D02*
X41450000Y-40200000D01*
X37600000Y-38200000D02*
X37600000Y-40200000D01*
X54800000Y-54000000D02*
X50950000Y-54000000D01*
X54800000Y-52000000D02*
X50950000Y-52000000D01*
X54800000Y-54000000D02*
X54800000Y-52000000D01*
X62100000Y-37200000D02*
X58250000Y-37200000D01*
X62100000Y-35200000D02*
X58250000Y-35200000D01*
X62100000Y-37200000D02*
X62100000Y-35200000D01*
X38800000Y-44900000D02*
X38800000Y-41050000D01*
X40800000Y-44900000D02*
X40800000Y-41050000D01*
X38800000Y-44900000D02*
X40800000Y-44900000D01*
X37500000Y-35700000D02*
X41350000Y-35700000D01*
X37500000Y-37700000D02*
X41350000Y-37700000D01*
X37500000Y-35700000D02*
X37500000Y-37700000D01*
X102890000Y-82840000D02*
X101550000Y-82840000D01*
X102890000Y-81890000D02*
X102890000Y-82840000D01*
X103840000Y-81890000D02*
X102890000Y-81890000D01*
X113110000Y-81890000D02*
X113110000Y-82840000D01*
X112160000Y-81890000D02*
X113110000Y-81890000D01*
X102890000Y-92110000D02*
X102890000Y-91160000D01*
X103840000Y-92110000D02*
X102890000Y-92110000D01*
X113110000Y-92110000D02*
X113110000Y-91160000D01*
X112160000Y-92110000D02*
X113110000Y-92110000D01*
X130710000Y-88815000D02*
X130710000Y-85385000D01*
X126090000Y-84065000D02*
X126090000Y-85915000D01*
X127740000Y-84065000D02*
X126090000Y-84065000D01*
X126090000Y-88285000D02*
X125300000Y-88285000D01*
X126090000Y-90135000D02*
X126090000Y-88285000D01*
X127740000Y-90135000D02*
X126090000Y-90135000D01*
X80000000Y-81440000D02*
X76550000Y-81440000D01*
X80000000Y-81440000D02*
X81950000Y-81440000D01*
X80000000Y-86560000D02*
X78050000Y-86560000D01*
X80000000Y-86560000D02*
X81950000Y-86560000D01*
X80000000Y-75440000D02*
X76550000Y-75440000D01*
X80000000Y-75440000D02*
X81950000Y-75440000D01*
X80000000Y-80560000D02*
X78050000Y-80560000D01*
X80000000Y-80560000D02*
X81950000Y-80560000D01*
X109000000Y-67440000D02*
X105550000Y-67440000D01*
X109000000Y-67440000D02*
X110950000Y-67440000D01*
X109000000Y-72560000D02*
X107050000Y-72560000D01*
X109000000Y-72560000D02*
X110950000Y-72560000D01*
X104587221Y-66760000D02*
X104912779Y-66760000D01*
X104587221Y-65740000D02*
X104912779Y-65740000D01*
X103625221Y-69510000D02*
X103950779Y-69510000D01*
X103625221Y-68490000D02*
X103950779Y-68490000D01*
X103625221Y-71510000D02*
X103950779Y-71510000D01*
X103625221Y-70490000D02*
X103950779Y-70490000D01*
X110625221Y-74510000D02*
X110950779Y-74510000D01*
X110625221Y-73490000D02*
X110950779Y-73490000D01*
X114510000Y-70375279D02*
X114510000Y-70049721D01*
X113490000Y-70375279D02*
X113490000Y-70049721D01*
X116260000Y-70375279D02*
X116260000Y-70049721D01*
X115240000Y-70375279D02*
X115240000Y-70049721D01*
X127740000Y-66660000D02*
X126090000Y-66660000D01*
X126090000Y-66660000D02*
X126090000Y-64810000D01*
X126090000Y-64810000D02*
X125300000Y-64810000D01*
X127740000Y-59340000D02*
X126090000Y-59340000D01*
X126090000Y-59340000D02*
X126090000Y-61190000D01*
X130710000Y-65340000D02*
X130710000Y-60660000D01*
X95200000Y-83800000D02*
X95200000Y-89550000D01*
X98800000Y-83800000D02*
X95200000Y-83800000D01*
X98800000Y-89550000D02*
X98800000Y-83800000D01*
X84490000Y-83049721D02*
X84490000Y-83375279D01*
X85510000Y-83049721D02*
X85510000Y-83375279D01*
X84490000Y-77049721D02*
X84490000Y-77375279D01*
X85510000Y-77049721D02*
X85510000Y-77375279D01*
X98510000Y-74950279D02*
X98510000Y-74624721D01*
X97490000Y-74950279D02*
X97490000Y-74624721D01*
X119249221Y-90110000D02*
X119574779Y-90110000D01*
X119249221Y-89090000D02*
X119574779Y-89090000D01*
X119237221Y-92010000D02*
X119562779Y-92010000D01*
X119237221Y-90990000D02*
X119562779Y-90990000D01*
X122850779Y-89090000D02*
X122525221Y-89090000D01*
X122850779Y-90110000D02*
X122525221Y-90110000D01*
X122874779Y-90990000D02*
X122549221Y-90990000D01*
X122874779Y-92010000D02*
X122549221Y-92010000D01*
X109490000Y-100625221D02*
X109490000Y-100950779D01*
X110510000Y-100625221D02*
X110510000Y-100950779D01*
X107490000Y-100625221D02*
X107490000Y-100950779D01*
X108510000Y-100625221D02*
X108510000Y-100950779D01*
X105490000Y-100625221D02*
X105490000Y-100950779D01*
X106510000Y-100625221D02*
X106510000Y-100950779D01*
X111510000Y-51162779D02*
X111510000Y-50837221D01*
X110490000Y-51162779D02*
X110490000Y-50837221D01*
X97510000Y-50950279D02*
X97510000Y-50624721D01*
X96490000Y-50950279D02*
X96490000Y-50624721D01*
X83510000Y-51162779D02*
X83510000Y-50837221D01*
X82490000Y-51162779D02*
X82490000Y-50837221D01*
X107374779Y-96490000D02*
X107049221Y-96490000D01*
X107374779Y-97510000D02*
X107049221Y-97510000D01*
X105490000Y-76624721D02*
X105490000Y-76950279D01*
X106510000Y-76624721D02*
X106510000Y-76950279D01*
X81510000Y-45950279D02*
X81510000Y-45624721D01*
X80490000Y-45950279D02*
X80490000Y-45624721D01*
X122330000Y-81410000D02*
X121000000Y-81410000D01*
X122330000Y-80080000D02*
X122330000Y-81410000D01*
X119730000Y-81410000D02*
X117130000Y-81410000D01*
X119730000Y-78810000D02*
X119730000Y-81410000D01*
X122330000Y-78810000D02*
X119730000Y-78810000D01*
X117130000Y-81410000D02*
X117130000Y-63510000D01*
X122330000Y-78810000D02*
X122330000Y-63510000D01*
X122330000Y-63510000D02*
X117130000Y-63510000D01*
X127740000Y-82785000D02*
X126090000Y-82785000D01*
X126090000Y-82785000D02*
X126090000Y-80935000D01*
X126090000Y-80935000D02*
X125300000Y-80935000D01*
X127740000Y-69215000D02*
X126090000Y-69215000D01*
X126090000Y-69215000D02*
X126090000Y-71065000D01*
X130710000Y-81465000D02*
X130710000Y-70535000D01*
X127740000Y-56785000D02*
X126090000Y-56785000D01*
X126090000Y-56785000D02*
X126090000Y-54935000D01*
X126090000Y-54935000D02*
X125300000Y-54935000D01*
X127740000Y-43215000D02*
X126090000Y-43215000D01*
X126090000Y-43215000D02*
X126090000Y-45065000D01*
X130710000Y-55465000D02*
X130710000Y-44535000D01*
X85830000Y-106300000D02*
X85830000Y-107630000D01*
X85830000Y-107630000D02*
X84500000Y-107630000D01*
X83230000Y-107630000D02*
X75550000Y-107630000D01*
X75550000Y-104970000D02*
X75550000Y-107630000D01*
X83230000Y-104970000D02*
X75550000Y-104970000D01*
X83230000Y-104970000D02*
X83230000Y-107630000D01*
X112900000Y-40060000D02*
X112090000Y-40060000D01*
X112090000Y-40060000D02*
X112090000Y-27040000D01*
X112090000Y-27040000D02*
X117000000Y-27040000D01*
X121100000Y-40060000D02*
X121910000Y-40060000D01*
X121910000Y-40060000D02*
X121910000Y-27040000D01*
X121910000Y-27040000D02*
X117000000Y-27040000D01*
X114600000Y-43160000D02*
X114600000Y-44440000D01*
X115200000Y-43160000D02*
X115200000Y-44440000D01*
X118800000Y-43160000D02*
X118800000Y-44440000D01*
X119400000Y-43160000D02*
X119400000Y-44440000D01*
X116510000Y-40050000D02*
X117490000Y-40050000D01*
X112900000Y-41050000D02*
X112300000Y-41350000D01*
X112300000Y-41350000D02*
X112300000Y-40750000D01*
X112300000Y-40750000D02*
X112900000Y-41050000D01*
X99000000Y-40010000D02*
X98190000Y-40010000D01*
X98190000Y-40010000D02*
X98190000Y-26990000D01*
X98190000Y-26990000D02*
X103100000Y-26990000D01*
X107200000Y-40010000D02*
X108010000Y-40010000D01*
X108010000Y-40010000D02*
X108010000Y-26990000D01*
X108010000Y-26990000D02*
X103100000Y-26990000D01*
X100700000Y-43110000D02*
X100700000Y-44390000D01*
X101300000Y-43110000D02*
X101300000Y-44390000D01*
X104900000Y-43110000D02*
X104900000Y-44390000D01*
X105500000Y-43110000D02*
X105500000Y-44390000D01*
X102610000Y-40000000D02*
X103590000Y-40000000D01*
X99000000Y-41000000D02*
X98400000Y-41300000D01*
X98400000Y-41300000D02*
X98400000Y-40700000D01*
X98400000Y-40700000D02*
X99000000Y-41000000D01*
X85000000Y-40010000D02*
X84190000Y-40010000D01*
X84190000Y-40010000D02*
X84190000Y-26990000D01*
X84190000Y-26990000D02*
X89100000Y-26990000D01*
X93200000Y-40010000D02*
X94010000Y-40010000D01*
X94010000Y-40010000D02*
X94010000Y-26990000D01*
X94010000Y-26990000D02*
X89100000Y-26990000D01*
X86700000Y-43110000D02*
X86700000Y-44390000D01*
X87300000Y-43110000D02*
X87300000Y-44390000D01*
X90900000Y-43110000D02*
X90900000Y-44390000D01*
X91500000Y-43110000D02*
X91500000Y-44390000D01*
X88610000Y-40000000D02*
X89590000Y-40000000D01*
X85000000Y-41000000D02*
X84400000Y-41300000D01*
X84400000Y-41300000D02*
X84400000Y-40700000D01*
X84400000Y-40700000D02*
X85000000Y-41000000D01*
X64100000Y-38410000D02*
X63290000Y-38410000D01*
X63290000Y-38410000D02*
X63290000Y-25390000D01*
X63290000Y-25390000D02*
X70300000Y-25390000D01*
X76500000Y-38410000D02*
X77310000Y-38410000D01*
X77310000Y-38410000D02*
X77310000Y-25390000D01*
X77310000Y-25390000D02*
X70300000Y-25390000D01*
X65800000Y-41510000D02*
X65800000Y-42790000D01*
X66400000Y-41510000D02*
X66400000Y-42790000D01*
X70000000Y-41510000D02*
X70000000Y-42790000D01*
X70600000Y-41510000D02*
X70600000Y-42790000D01*
X74200000Y-41510000D02*
X74200000Y-42790000D01*
X74800000Y-41510000D02*
X74800000Y-42790000D01*
X67710000Y-38400000D02*
X68690000Y-38400000D01*
X71910000Y-38400000D02*
X72890000Y-38400000D01*
X64100000Y-39400000D02*
X63500000Y-39700000D01*
X63500000Y-39700000D02*
X63500000Y-39100000D01*
X63500000Y-39100000D02*
X64100000Y-39400000D01*
X97321078Y-98290000D02*
X96803922Y-98290000D01*
X97321078Y-99710000D02*
X96803922Y-99710000D01*
X109265000Y-102303000D02*
X109265000Y-104588000D01*
X110735000Y-102303000D02*
X109265000Y-102303000D01*
X110735000Y-104588000D02*
X110735000Y-102303000D01*
X107265000Y-102303000D02*
X107265000Y-104588000D01*
X108735000Y-102303000D02*
X107265000Y-102303000D01*
X108735000Y-104588000D02*
X108735000Y-102303000D01*
X105265000Y-102303000D02*
X105265000Y-104588000D01*
X106735000Y-102303000D02*
X105265000Y-102303000D01*
X106735000Y-104588000D02*
X106735000Y-102303000D01*
X73400000Y-62000000D02*
X77250000Y-62000000D01*
X73400000Y-64000000D02*
X77250000Y-64000000D01*
X73400000Y-62000000D02*
X73400000Y-64000000D01*
X73400000Y-53000000D02*
X77250000Y-53000000D01*
X73400000Y-55000000D02*
X77250000Y-55000000D01*
X73400000Y-53000000D02*
X73400000Y-55000000D01*
X62300000Y-52300000D02*
X58450000Y-52300000D01*
X62300000Y-50300000D02*
X58450000Y-50300000D01*
X62300000Y-52300000D02*
X62300000Y-50300000D01*
X57700000Y-44400000D02*
X61550000Y-44400000D01*
X57700000Y-46400000D02*
X61550000Y-46400000D01*
X57700000Y-44400000D02*
X57700000Y-46400000D01*
X77800000Y-61000000D02*
X73950000Y-61000000D01*
X77800000Y-59000000D02*
X73950000Y-59000000D01*
X77800000Y-61000000D02*
X77800000Y-59000000D01*
X77800000Y-52000000D02*
X73950000Y-52000000D01*
X77800000Y-50000000D02*
X73950000Y-50000000D01*
X77800000Y-52000000D02*
X77800000Y-50000000D01*
X57800000Y-47500000D02*
X61650000Y-47500000D01*
X57800000Y-49500000D02*
X61650000Y-49500000D01*
X57800000Y-47500000D02*
X57800000Y-49500000D01*
X57700000Y-41100000D02*
X61550000Y-41100000D01*
X57700000Y-43100000D02*
X61550000Y-43100000D01*
X57700000Y-41100000D02*
X57700000Y-43100000D01*
X67428922Y-90460000D02*
X67946078Y-90460000D01*
X67428922Y-89040000D02*
X67946078Y-89040000D01*
X76760000Y-98172500D02*
X76760000Y-93962500D01*
X73740000Y-98172500D02*
X76760000Y-98172500D01*
X73740000Y-93962500D02*
X73740000Y-98172500D01*
X68446078Y-103540000D02*
X67928922Y-103540000D01*
X68446078Y-104960000D02*
X67928922Y-104960000D01*
X56990000Y-93378922D02*
X56990000Y-93896078D01*
X58410000Y-93378922D02*
X58410000Y-93896078D01*
X118547936Y-84910000D02*
X119752064Y-84910000D01*
X118547936Y-83090000D02*
X119752064Y-83090000D01*
X111747936Y-98660000D02*
X112952064Y-98660000D01*
X111747936Y-96840000D02*
X112952064Y-96840000D01*
X75710000Y-85258578D02*
X75710000Y-84741422D01*
X74290000Y-85258578D02*
X74290000Y-84741422D01*
X75710000Y-79258578D02*
X75710000Y-78741422D01*
X74290000Y-79258578D02*
X74290000Y-78741422D01*
X100090000Y-97997936D02*
X100090000Y-99202064D01*
X101910000Y-97997936D02*
X101910000Y-99202064D01*
X94310000Y-98065000D02*
X90400000Y-98065000D01*
X94310000Y-99935000D02*
X94310000Y-98065000D01*
X90400000Y-99935000D02*
X94310000Y-99935000D01*
X93375279Y-89490000D02*
X93049721Y-89490000D01*
X93375279Y-90510000D02*
X93049721Y-90510000D01*
X93375279Y-83490000D02*
X93049721Y-83490000D01*
X93375279Y-84510000D02*
X93049721Y-84510000D01*
D10*
X115452380Y-107871428D02*
X116166666Y-107871428D01*
X116309523Y-107919047D01*
X116404761Y-108014285D01*
X116452380Y-108157142D01*
X116452380Y-108252380D01*
X116547619Y-107633333D02*
X116547619Y-106871428D01*
X116404761Y-106680952D02*
X116452380Y-106538095D01*
X116452380Y-106300000D01*
X116404761Y-106204761D01*
X116357142Y-106157142D01*
X116261904Y-106109523D01*
X116166666Y-106109523D01*
X116071428Y-106157142D01*
X116023809Y-106204761D01*
X115976190Y-106300000D01*
X115928571Y-106490476D01*
X115880952Y-106585714D01*
X115833333Y-106633333D01*
X115738095Y-106680952D01*
X115642857Y-106680952D01*
X115547619Y-106633333D01*
X115500000Y-106585714D01*
X115452380Y-106490476D01*
X115452380Y-106252380D01*
X115500000Y-106109523D01*
X115928571Y-105680952D02*
X115928571Y-105347619D01*
X116452380Y-105204761D02*
X116452380Y-105680952D01*
X115452380Y-105680952D01*
X115452380Y-105204761D01*
X116452380Y-104204761D02*
X115976190Y-104538095D01*
X116452380Y-104776190D02*
X115452380Y-104776190D01*
X115452380Y-104395238D01*
X115500000Y-104300000D01*
X115547619Y-104252380D01*
X115642857Y-104204761D01*
X115785714Y-104204761D01*
X115880952Y-104252380D01*
X115928571Y-104300000D01*
X115976190Y-104395238D01*
X115976190Y-104776190D01*
X116452380Y-103776190D02*
X115452380Y-103776190D01*
X116166666Y-103347619D02*
X116166666Y-102871428D01*
X116452380Y-103442857D02*
X115452380Y-103109523D01*
X116452380Y-102776190D01*
X116452380Y-101966666D02*
X116452380Y-102442857D01*
X115452380Y-102442857D01*
X116547619Y-101871428D02*
X116547619Y-101109523D01*
X116452380Y-100871428D02*
X115452380Y-100871428D01*
X115452380Y-100633333D01*
X115500000Y-100490476D01*
X115595238Y-100395238D01*
X115690476Y-100347619D01*
X115880952Y-100300000D01*
X116023809Y-100300000D01*
X116214285Y-100347619D01*
X116309523Y-100395238D01*
X116404761Y-100490476D01*
X116452380Y-100633333D01*
X116452380Y-100871428D01*
X115928571Y-99871428D02*
X115928571Y-99538095D01*
X116452380Y-99395238D02*
X116452380Y-99871428D01*
X115452380Y-99871428D01*
X115452380Y-99395238D01*
X115928571Y-98633333D02*
X115976190Y-98490476D01*
X116023809Y-98442857D01*
X116119047Y-98395238D01*
X116261904Y-98395238D01*
X116357142Y-98442857D01*
X116404761Y-98490476D01*
X116452380Y-98585714D01*
X116452380Y-98966666D01*
X115452380Y-98966666D01*
X115452380Y-98633333D01*
X115500000Y-98538095D01*
X115547619Y-98490476D01*
X115642857Y-98442857D01*
X115738095Y-98442857D01*
X115833333Y-98490476D01*
X115880952Y-98538095D01*
X115928571Y-98633333D01*
X115928571Y-98966666D01*
X115452380Y-97966666D02*
X116261904Y-97966666D01*
X116357142Y-97919047D01*
X116404761Y-97871428D01*
X116452380Y-97776190D01*
X116452380Y-97585714D01*
X116404761Y-97490476D01*
X116357142Y-97442857D01*
X116261904Y-97395238D01*
X115452380Y-97395238D01*
X115500000Y-96395238D02*
X115452380Y-96490476D01*
X115452380Y-96633333D01*
X115500000Y-96776190D01*
X115595238Y-96871428D01*
X115690476Y-96919047D01*
X115880952Y-96966666D01*
X116023809Y-96966666D01*
X116214285Y-96919047D01*
X116309523Y-96871428D01*
X116404761Y-96776190D01*
X116452380Y-96633333D01*
X116452380Y-96538095D01*
X116404761Y-96395238D01*
X116357142Y-96347619D01*
X116023809Y-96347619D01*
X116023809Y-96538095D01*
X116452380Y-95395238D02*
X116452380Y-95966666D01*
X116452380Y-95680952D02*
X115452380Y-95680952D01*
X115595238Y-95776190D01*
X115690476Y-95871428D01*
X115738095Y-95966666D01*
X25352380Y-53685714D02*
X26066666Y-53685714D01*
X26209523Y-53733333D01*
X26304761Y-53828571D01*
X26352380Y-53971428D01*
X26352380Y-54066666D01*
X26447619Y-53447619D02*
X26447619Y-52685714D01*
X26352380Y-52447619D02*
X25352380Y-52447619D01*
X25352380Y-52066666D01*
X25400000Y-51971428D01*
X25447619Y-51923809D01*
X25542857Y-51876190D01*
X25685714Y-51876190D01*
X25780952Y-51923809D01*
X25828571Y-51971428D01*
X25876190Y-52066666D01*
X25876190Y-52447619D01*
X25352380Y-51542857D02*
X26352380Y-51304761D01*
X25638095Y-51114285D01*
X26352380Y-50923809D01*
X25352380Y-50685714D01*
X26352380Y-49733333D02*
X25876190Y-50066666D01*
X26352380Y-50304761D02*
X25352380Y-50304761D01*
X25352380Y-49923809D01*
X25400000Y-49828571D01*
X25447619Y-49780952D01*
X25542857Y-49733333D01*
X25685714Y-49733333D01*
X25780952Y-49780952D01*
X25828571Y-49828571D01*
X25876190Y-49923809D01*
X25876190Y-50304761D01*
X26352380Y-48780952D02*
X26352380Y-49352380D01*
X26352380Y-49066666D02*
X25352380Y-49066666D01*
X25495238Y-49161904D01*
X25590476Y-49257142D01*
X25638095Y-49352380D01*
X31761904Y-69852380D02*
X31761904Y-70566666D01*
X31714285Y-70709523D01*
X31619047Y-70804761D01*
X31476190Y-70852380D01*
X31380952Y-70852380D01*
X32000000Y-70947619D02*
X32761904Y-70947619D01*
X33190476Y-69852380D02*
X33380952Y-69852380D01*
X33476190Y-69900000D01*
X33571428Y-69995238D01*
X33619047Y-70185714D01*
X33619047Y-70519047D01*
X33571428Y-70709523D01*
X33476190Y-70804761D01*
X33380952Y-70852380D01*
X33190476Y-70852380D01*
X33095238Y-70804761D01*
X33000000Y-70709523D01*
X32952380Y-70519047D01*
X32952380Y-70185714D01*
X33000000Y-69995238D01*
X33095238Y-69900000D01*
X33190476Y-69852380D01*
X34380952Y-70328571D02*
X34523809Y-70376190D01*
X34571428Y-70423809D01*
X34619047Y-70519047D01*
X34619047Y-70661904D01*
X34571428Y-70757142D01*
X34523809Y-70804761D01*
X34428571Y-70852380D01*
X34047619Y-70852380D01*
X34047619Y-69852380D01*
X34380952Y-69852380D01*
X34476190Y-69900000D01*
X34523809Y-69947619D01*
X34571428Y-70042857D01*
X34571428Y-70138095D01*
X34523809Y-70233333D01*
X34476190Y-70280952D01*
X34380952Y-70328571D01*
X34047619Y-70328571D01*
X35047619Y-70852380D02*
X35047619Y-69852380D01*
X35285714Y-69852380D01*
X35428571Y-69900000D01*
X35523809Y-69995238D01*
X35571428Y-70090476D01*
X35619047Y-70280952D01*
X35619047Y-70423809D01*
X35571428Y-70614285D01*
X35523809Y-70709523D01*
X35428571Y-70804761D01*
X35285714Y-70852380D01*
X35047619Y-70852380D01*
X36571428Y-70852380D02*
X36000000Y-70852380D01*
X36285714Y-70852380D02*
X36285714Y-69852380D01*
X36190476Y-69995238D01*
X36095238Y-70090476D01*
X36000000Y-70138095D01*
X77357142Y-66354761D02*
X77500000Y-66402380D01*
X77738095Y-66402380D01*
X77833333Y-66354761D01*
X77880952Y-66307142D01*
X77928571Y-66211904D01*
X77928571Y-66116666D01*
X77880952Y-66021428D01*
X77833333Y-65973809D01*
X77738095Y-65926190D01*
X77547619Y-65878571D01*
X77452380Y-65830952D01*
X77404761Y-65783333D01*
X77357142Y-65688095D01*
X77357142Y-65592857D01*
X77404761Y-65497619D01*
X77452380Y-65450000D01*
X77547619Y-65402380D01*
X77785714Y-65402380D01*
X77928571Y-65450000D01*
X78261904Y-65402380D02*
X78500000Y-66402380D01*
X78690476Y-65688095D01*
X78880952Y-66402380D01*
X79119047Y-65402380D01*
X79261904Y-66497619D02*
X80023809Y-66497619D01*
X80595238Y-65878571D02*
X80738095Y-65926190D01*
X80785714Y-65973809D01*
X80833333Y-66069047D01*
X80833333Y-66211904D01*
X80785714Y-66307142D01*
X80738095Y-66354761D01*
X80642857Y-66402380D01*
X80261904Y-66402380D01*
X80261904Y-65402380D01*
X80595238Y-65402380D01*
X80690476Y-65450000D01*
X80738095Y-65497619D01*
X80785714Y-65592857D01*
X80785714Y-65688095D01*
X80738095Y-65783333D01*
X80690476Y-65830952D01*
X80595238Y-65878571D01*
X80261904Y-65878571D01*
X81452380Y-65402380D02*
X81642857Y-65402380D01*
X81738095Y-65450000D01*
X81833333Y-65545238D01*
X81880952Y-65735714D01*
X81880952Y-66069047D01*
X81833333Y-66259523D01*
X81738095Y-66354761D01*
X81642857Y-66402380D01*
X81452380Y-66402380D01*
X81357142Y-66354761D01*
X81261904Y-66259523D01*
X81214285Y-66069047D01*
X81214285Y-65735714D01*
X81261904Y-65545238D01*
X81357142Y-65450000D01*
X81452380Y-65402380D01*
X82500000Y-65402380D02*
X82690476Y-65402380D01*
X82785714Y-65450000D01*
X82880952Y-65545238D01*
X82928571Y-65735714D01*
X82928571Y-66069047D01*
X82880952Y-66259523D01*
X82785714Y-66354761D01*
X82690476Y-66402380D01*
X82500000Y-66402380D01*
X82404761Y-66354761D01*
X82309523Y-66259523D01*
X82261904Y-66069047D01*
X82261904Y-65735714D01*
X82309523Y-65545238D01*
X82404761Y-65450000D01*
X82500000Y-65402380D01*
X83214285Y-65402380D02*
X83785714Y-65402380D01*
X83500000Y-66402380D02*
X83500000Y-65402380D01*
X84642857Y-66402380D02*
X84071428Y-66402380D01*
X84357142Y-66402380D02*
X84357142Y-65402380D01*
X84261904Y-65545238D01*
X84166666Y-65640476D01*
X84071428Y-65688095D01*
X88857142Y-66354761D02*
X89000000Y-66402380D01*
X89238095Y-66402380D01*
X89333333Y-66354761D01*
X89380952Y-66307142D01*
X89428571Y-66211904D01*
X89428571Y-66116666D01*
X89380952Y-66021428D01*
X89333333Y-65973809D01*
X89238095Y-65926190D01*
X89047619Y-65878571D01*
X88952380Y-65830952D01*
X88904761Y-65783333D01*
X88857142Y-65688095D01*
X88857142Y-65592857D01*
X88904761Y-65497619D01*
X88952380Y-65450000D01*
X89047619Y-65402380D01*
X89285714Y-65402380D01*
X89428571Y-65450000D01*
X89761904Y-65402380D02*
X90000000Y-66402380D01*
X90190476Y-65688095D01*
X90380952Y-66402380D01*
X90619047Y-65402380D01*
X90761904Y-66497619D02*
X91523809Y-66497619D01*
X92333333Y-66402380D02*
X92000000Y-65926190D01*
X91761904Y-66402380D02*
X91761904Y-65402380D01*
X92142857Y-65402380D01*
X92238095Y-65450000D01*
X92285714Y-65497619D01*
X92333333Y-65592857D01*
X92333333Y-65735714D01*
X92285714Y-65830952D01*
X92238095Y-65878571D01*
X92142857Y-65926190D01*
X91761904Y-65926190D01*
X92761904Y-65878571D02*
X93095238Y-65878571D01*
X93238095Y-66402380D02*
X92761904Y-66402380D01*
X92761904Y-65402380D01*
X93238095Y-65402380D01*
X93619047Y-66354761D02*
X93761904Y-66402380D01*
X94000000Y-66402380D01*
X94095238Y-66354761D01*
X94142857Y-66307142D01*
X94190476Y-66211904D01*
X94190476Y-66116666D01*
X94142857Y-66021428D01*
X94095238Y-65973809D01*
X94000000Y-65926190D01*
X93809523Y-65878571D01*
X93714285Y-65830952D01*
X93666666Y-65783333D01*
X93619047Y-65688095D01*
X93619047Y-65592857D01*
X93666666Y-65497619D01*
X93714285Y-65450000D01*
X93809523Y-65402380D01*
X94047619Y-65402380D01*
X94190476Y-65450000D01*
X95142857Y-66402380D02*
X94571428Y-66402380D01*
X94857142Y-66402380D02*
X94857142Y-65402380D01*
X94761904Y-65545238D01*
X94666666Y-65640476D01*
X94571428Y-65688095D01*
X51461904Y-106638095D02*
X52033333Y-106638095D01*
X52147619Y-106676190D01*
X52223809Y-106752380D01*
X52261904Y-106866666D01*
X52261904Y-106942857D01*
X52338095Y-106447619D02*
X52338095Y-105838095D01*
X52261904Y-105647619D02*
X51461904Y-105647619D01*
X52033333Y-105380952D01*
X51461904Y-105114285D01*
X52261904Y-105114285D01*
X52185714Y-104276190D02*
X52223809Y-104314285D01*
X52261904Y-104428571D01*
X52261904Y-104504761D01*
X52223809Y-104619047D01*
X52147619Y-104695238D01*
X52071428Y-104733333D01*
X51919047Y-104771428D01*
X51804761Y-104771428D01*
X51652380Y-104733333D01*
X51576190Y-104695238D01*
X51500000Y-104619047D01*
X51461904Y-104504761D01*
X51461904Y-104428571D01*
X51500000Y-104314285D01*
X51538095Y-104276190D01*
X52261904Y-103933333D02*
X51461904Y-103933333D01*
X51461904Y-103628571D01*
X51500000Y-103552380D01*
X51538095Y-103514285D01*
X51614285Y-103476190D01*
X51728571Y-103476190D01*
X51804761Y-103514285D01*
X51842857Y-103552380D01*
X51880952Y-103628571D01*
X51880952Y-103933333D01*
X51538095Y-103171428D02*
X51500000Y-103133333D01*
X51461904Y-103057142D01*
X51461904Y-102866666D01*
X51500000Y-102790476D01*
X51538095Y-102752380D01*
X51614285Y-102714285D01*
X51690476Y-102714285D01*
X51804761Y-102752380D01*
X52261904Y-103209523D01*
X52261904Y-102714285D01*
X52338095Y-102561904D02*
X52338095Y-101952380D01*
X52261904Y-101380952D02*
X52261904Y-101761904D01*
X51461904Y-101761904D01*
X52261904Y-100695238D02*
X52261904Y-101152380D01*
X52261904Y-100923809D02*
X51461904Y-100923809D01*
X51576190Y-101000000D01*
X51652380Y-101076190D01*
X51690476Y-101152380D01*
X51461904Y-99733333D02*
X52033333Y-99733333D01*
X52147619Y-99771428D01*
X52223809Y-99847619D01*
X52261904Y-99961904D01*
X52261904Y-100038095D01*
X52338095Y-99542857D02*
X52338095Y-98933333D01*
X52261904Y-98742857D02*
X51461904Y-98742857D01*
X52033333Y-98476190D01*
X51461904Y-98209523D01*
X52261904Y-98209523D01*
X52185714Y-97371428D02*
X52223809Y-97409523D01*
X52261904Y-97523809D01*
X52261904Y-97600000D01*
X52223809Y-97714285D01*
X52147619Y-97790476D01*
X52071428Y-97828571D01*
X51919047Y-97866666D01*
X51804761Y-97866666D01*
X51652380Y-97828571D01*
X51576190Y-97790476D01*
X51500000Y-97714285D01*
X51461904Y-97600000D01*
X51461904Y-97523809D01*
X51500000Y-97409523D01*
X51538095Y-97371428D01*
X52261904Y-97028571D02*
X51461904Y-97028571D01*
X51461904Y-96723809D01*
X51500000Y-96647619D01*
X51538095Y-96609523D01*
X51614285Y-96571428D01*
X51728571Y-96571428D01*
X51804761Y-96609523D01*
X51842857Y-96647619D01*
X51880952Y-96723809D01*
X51880952Y-97028571D01*
X51538095Y-96266666D02*
X51500000Y-96228571D01*
X51461904Y-96152380D01*
X51461904Y-95961904D01*
X51500000Y-95885714D01*
X51538095Y-95847619D01*
X51614285Y-95809523D01*
X51690476Y-95809523D01*
X51804761Y-95847619D01*
X52261904Y-96304761D01*
X52261904Y-95809523D01*
X52338095Y-95657142D02*
X52338095Y-95047619D01*
X52261904Y-94857142D02*
X51461904Y-94857142D01*
X51842857Y-94857142D02*
X51842857Y-94400000D01*
X52261904Y-94400000D02*
X51461904Y-94400000D01*
X52261904Y-93600000D02*
X52261904Y-94057142D01*
X52261904Y-93828571D02*
X51461904Y-93828571D01*
X51576190Y-93904761D01*
X51652380Y-93980952D01*
X51690476Y-94057142D01*
X51361904Y-90738095D02*
X51933333Y-90738095D01*
X52047619Y-90776190D01*
X52123809Y-90852380D01*
X52161904Y-90966666D01*
X52161904Y-91042857D01*
X52238095Y-90547619D02*
X52238095Y-89938095D01*
X52161904Y-89747619D02*
X51361904Y-89747619D01*
X51933333Y-89480952D01*
X51361904Y-89214285D01*
X52161904Y-89214285D01*
X52085714Y-88376190D02*
X52123809Y-88414285D01*
X52161904Y-88528571D01*
X52161904Y-88604761D01*
X52123809Y-88719047D01*
X52047619Y-88795238D01*
X51971428Y-88833333D01*
X51819047Y-88871428D01*
X51704761Y-88871428D01*
X51552380Y-88833333D01*
X51476190Y-88795238D01*
X51400000Y-88719047D01*
X51361904Y-88604761D01*
X51361904Y-88528571D01*
X51400000Y-88414285D01*
X51438095Y-88376190D01*
X52161904Y-88033333D02*
X51361904Y-88033333D01*
X51361904Y-87728571D01*
X51400000Y-87652380D01*
X51438095Y-87614285D01*
X51514285Y-87576190D01*
X51628571Y-87576190D01*
X51704761Y-87614285D01*
X51742857Y-87652380D01*
X51780952Y-87728571D01*
X51780952Y-88033333D01*
X52161904Y-86814285D02*
X52161904Y-87271428D01*
X52161904Y-87042857D02*
X51361904Y-87042857D01*
X51476190Y-87119047D01*
X51552380Y-87195238D01*
X51590476Y-87271428D01*
X52238095Y-86661904D02*
X52238095Y-86052380D01*
X52161904Y-85480952D02*
X52161904Y-85861904D01*
X51361904Y-85861904D01*
X52161904Y-84795238D02*
X52161904Y-85252380D01*
X52161904Y-85023809D02*
X51361904Y-85023809D01*
X51476190Y-85100000D01*
X51552380Y-85176190D01*
X51590476Y-85252380D01*
X51461904Y-83733333D02*
X52033333Y-83733333D01*
X52147619Y-83771428D01*
X52223809Y-83847619D01*
X52261904Y-83961904D01*
X52261904Y-84038095D01*
X52338095Y-83542857D02*
X52338095Y-82933333D01*
X52261904Y-82742857D02*
X51461904Y-82742857D01*
X52033333Y-82476190D01*
X51461904Y-82209523D01*
X52261904Y-82209523D01*
X52185714Y-81371428D02*
X52223809Y-81409523D01*
X52261904Y-81523809D01*
X52261904Y-81600000D01*
X52223809Y-81714285D01*
X52147619Y-81790476D01*
X52071428Y-81828571D01*
X51919047Y-81866666D01*
X51804761Y-81866666D01*
X51652380Y-81828571D01*
X51576190Y-81790476D01*
X51500000Y-81714285D01*
X51461904Y-81600000D01*
X51461904Y-81523809D01*
X51500000Y-81409523D01*
X51538095Y-81371428D01*
X52261904Y-81028571D02*
X51461904Y-81028571D01*
X51461904Y-80723809D01*
X51500000Y-80647619D01*
X51538095Y-80609523D01*
X51614285Y-80571428D01*
X51728571Y-80571428D01*
X51804761Y-80609523D01*
X51842857Y-80647619D01*
X51880952Y-80723809D01*
X51880952Y-81028571D01*
X52261904Y-79809523D02*
X52261904Y-80266666D01*
X52261904Y-80038095D02*
X51461904Y-80038095D01*
X51576190Y-80114285D01*
X51652380Y-80190476D01*
X51690476Y-80266666D01*
X52338095Y-79657142D02*
X52338095Y-79047619D01*
X52261904Y-78857142D02*
X51461904Y-78857142D01*
X51842857Y-78857142D02*
X51842857Y-78400000D01*
X52261904Y-78400000D02*
X51461904Y-78400000D01*
X52261904Y-77600000D02*
X52261904Y-78057142D01*
X52261904Y-77828571D02*
X51461904Y-77828571D01*
X51576190Y-77904761D01*
X51652380Y-77980952D01*
X51690476Y-78057142D01*
X113561904Y-62742857D02*
X114133333Y-62742857D01*
X114247619Y-62780952D01*
X114323809Y-62857142D01*
X114361904Y-62971428D01*
X114361904Y-63047619D01*
X114438095Y-62552380D02*
X114438095Y-61942857D01*
X114285714Y-61295238D02*
X114323809Y-61333333D01*
X114361904Y-61447619D01*
X114361904Y-61523809D01*
X114323809Y-61638095D01*
X114247619Y-61714285D01*
X114171428Y-61752380D01*
X114019047Y-61790476D01*
X113904761Y-61790476D01*
X113752380Y-61752380D01*
X113676190Y-61714285D01*
X113600000Y-61638095D01*
X113561904Y-61523809D01*
X113561904Y-61447619D01*
X113600000Y-61333333D01*
X113638095Y-61295238D01*
X114133333Y-60990476D02*
X114133333Y-60609523D01*
X114361904Y-61066666D02*
X113561904Y-60800000D01*
X114361904Y-60533333D01*
X114361904Y-60266666D02*
X113561904Y-60266666D01*
X114361904Y-59809523D01*
X113561904Y-59809523D01*
X113561904Y-59504761D02*
X113561904Y-59009523D01*
X113866666Y-59276190D01*
X113866666Y-59161904D01*
X113904761Y-59085714D01*
X113942857Y-59047619D01*
X114019047Y-59009523D01*
X114209523Y-59009523D01*
X114285714Y-59047619D01*
X114323809Y-59085714D01*
X114361904Y-59161904D01*
X114361904Y-59390476D01*
X114323809Y-59466666D01*
X114285714Y-59504761D01*
X114438095Y-58857142D02*
X114438095Y-58247619D01*
X114361904Y-57676190D02*
X114361904Y-58057142D01*
X113561904Y-58057142D01*
X114361904Y-56990476D02*
X114361904Y-57447619D01*
X114361904Y-57219047D02*
X113561904Y-57219047D01*
X113676190Y-57295238D01*
X113752380Y-57371428D01*
X113790476Y-57447619D01*
X113561904Y-55703095D02*
X114133333Y-55703095D01*
X114247619Y-55741190D01*
X114323809Y-55817380D01*
X114361904Y-55931666D01*
X114361904Y-56007857D01*
X114438095Y-55512619D02*
X114438095Y-54903095D01*
X114285714Y-54255476D02*
X114323809Y-54293571D01*
X114361904Y-54407857D01*
X114361904Y-54484047D01*
X114323809Y-54598333D01*
X114247619Y-54674523D01*
X114171428Y-54712619D01*
X114019047Y-54750714D01*
X113904761Y-54750714D01*
X113752380Y-54712619D01*
X113676190Y-54674523D01*
X113600000Y-54598333D01*
X113561904Y-54484047D01*
X113561904Y-54407857D01*
X113600000Y-54293571D01*
X113638095Y-54255476D01*
X114133333Y-53950714D02*
X114133333Y-53569761D01*
X114361904Y-54026904D02*
X113561904Y-53760238D01*
X114361904Y-53493571D01*
X114361904Y-53226904D02*
X113561904Y-53226904D01*
X114361904Y-52769761D01*
X113561904Y-52769761D01*
X113561904Y-52465000D02*
X113561904Y-51969761D01*
X113866666Y-52236428D01*
X113866666Y-52122142D01*
X113904761Y-52045952D01*
X113942857Y-52007857D01*
X114019047Y-51969761D01*
X114209523Y-51969761D01*
X114285714Y-52007857D01*
X114323809Y-52045952D01*
X114361904Y-52122142D01*
X114361904Y-52350714D01*
X114323809Y-52426904D01*
X114285714Y-52465000D01*
X114438095Y-51817380D02*
X114438095Y-51207857D01*
X114361904Y-51017380D02*
X113561904Y-51017380D01*
X113942857Y-51017380D02*
X113942857Y-50560238D01*
X114361904Y-50560238D02*
X113561904Y-50560238D01*
X114361904Y-49760238D02*
X114361904Y-50217380D01*
X114361904Y-49988809D02*
X113561904Y-49988809D01*
X113676190Y-50065000D01*
X113752380Y-50141190D01*
X113790476Y-50217380D01*
X99561904Y-62492857D02*
X100133333Y-62492857D01*
X100247619Y-62530952D01*
X100323809Y-62607142D01*
X100361904Y-62721428D01*
X100361904Y-62797619D01*
X100438095Y-62302380D02*
X100438095Y-61692857D01*
X100285714Y-61045238D02*
X100323809Y-61083333D01*
X100361904Y-61197619D01*
X100361904Y-61273809D01*
X100323809Y-61388095D01*
X100247619Y-61464285D01*
X100171428Y-61502380D01*
X100019047Y-61540476D01*
X99904761Y-61540476D01*
X99752380Y-61502380D01*
X99676190Y-61464285D01*
X99600000Y-61388095D01*
X99561904Y-61273809D01*
X99561904Y-61197619D01*
X99600000Y-61083333D01*
X99638095Y-61045238D01*
X100133333Y-60740476D02*
X100133333Y-60359523D01*
X100361904Y-60816666D02*
X99561904Y-60550000D01*
X100361904Y-60283333D01*
X100361904Y-60016666D02*
X99561904Y-60016666D01*
X100361904Y-59559523D01*
X99561904Y-59559523D01*
X99638095Y-59216666D02*
X99600000Y-59178571D01*
X99561904Y-59102380D01*
X99561904Y-58911904D01*
X99600000Y-58835714D01*
X99638095Y-58797619D01*
X99714285Y-58759523D01*
X99790476Y-58759523D01*
X99904761Y-58797619D01*
X100361904Y-59254761D01*
X100361904Y-58759523D01*
X100438095Y-58607142D02*
X100438095Y-57997619D01*
X100361904Y-57426190D02*
X100361904Y-57807142D01*
X99561904Y-57807142D01*
X100361904Y-56740476D02*
X100361904Y-57197619D01*
X100361904Y-56969047D02*
X99561904Y-56969047D01*
X99676190Y-57045238D01*
X99752380Y-57121428D01*
X99790476Y-57197619D01*
X99561904Y-55703095D02*
X100133333Y-55703095D01*
X100247619Y-55741190D01*
X100323809Y-55817380D01*
X100361904Y-55931666D01*
X100361904Y-56007857D01*
X100438095Y-55512619D02*
X100438095Y-54903095D01*
X100285714Y-54255476D02*
X100323809Y-54293571D01*
X100361904Y-54407857D01*
X100361904Y-54484047D01*
X100323809Y-54598333D01*
X100247619Y-54674523D01*
X100171428Y-54712619D01*
X100019047Y-54750714D01*
X99904761Y-54750714D01*
X99752380Y-54712619D01*
X99676190Y-54674523D01*
X99600000Y-54598333D01*
X99561904Y-54484047D01*
X99561904Y-54407857D01*
X99600000Y-54293571D01*
X99638095Y-54255476D01*
X100133333Y-53950714D02*
X100133333Y-53569761D01*
X100361904Y-54026904D02*
X99561904Y-53760238D01*
X100361904Y-53493571D01*
X100361904Y-53226904D02*
X99561904Y-53226904D01*
X100361904Y-52769761D01*
X99561904Y-52769761D01*
X99638095Y-52426904D02*
X99600000Y-52388809D01*
X99561904Y-52312619D01*
X99561904Y-52122142D01*
X99600000Y-52045952D01*
X99638095Y-52007857D01*
X99714285Y-51969761D01*
X99790476Y-51969761D01*
X99904761Y-52007857D01*
X100361904Y-52465000D01*
X100361904Y-51969761D01*
X100438095Y-51817380D02*
X100438095Y-51207857D01*
X100361904Y-51017380D02*
X99561904Y-51017380D01*
X99942857Y-51017380D02*
X99942857Y-50560238D01*
X100361904Y-50560238D02*
X99561904Y-50560238D01*
X100361904Y-49760238D02*
X100361904Y-50217380D01*
X100361904Y-49988809D02*
X99561904Y-49988809D01*
X99676190Y-50065000D01*
X99752380Y-50141190D01*
X99790476Y-50217380D01*
X85561904Y-62492857D02*
X86133333Y-62492857D01*
X86247619Y-62530952D01*
X86323809Y-62607142D01*
X86361904Y-62721428D01*
X86361904Y-62797619D01*
X86438095Y-62302380D02*
X86438095Y-61692857D01*
X86285714Y-61045238D02*
X86323809Y-61083333D01*
X86361904Y-61197619D01*
X86361904Y-61273809D01*
X86323809Y-61388095D01*
X86247619Y-61464285D01*
X86171428Y-61502380D01*
X86019047Y-61540476D01*
X85904761Y-61540476D01*
X85752380Y-61502380D01*
X85676190Y-61464285D01*
X85600000Y-61388095D01*
X85561904Y-61273809D01*
X85561904Y-61197619D01*
X85600000Y-61083333D01*
X85638095Y-61045238D01*
X86133333Y-60740476D02*
X86133333Y-60359523D01*
X86361904Y-60816666D02*
X85561904Y-60550000D01*
X86361904Y-60283333D01*
X86361904Y-60016666D02*
X85561904Y-60016666D01*
X86361904Y-59559523D01*
X85561904Y-59559523D01*
X86361904Y-58759523D02*
X86361904Y-59216666D01*
X86361904Y-58988095D02*
X85561904Y-58988095D01*
X85676190Y-59064285D01*
X85752380Y-59140476D01*
X85790476Y-59216666D01*
X86438095Y-58607142D02*
X86438095Y-57997619D01*
X86361904Y-57426190D02*
X86361904Y-57807142D01*
X85561904Y-57807142D01*
X86361904Y-56740476D02*
X86361904Y-57197619D01*
X86361904Y-56969047D02*
X85561904Y-56969047D01*
X85676190Y-57045238D01*
X85752380Y-57121428D01*
X85790476Y-57197619D01*
X85561904Y-55703095D02*
X86133333Y-55703095D01*
X86247619Y-55741190D01*
X86323809Y-55817380D01*
X86361904Y-55931666D01*
X86361904Y-56007857D01*
X86438095Y-55512619D02*
X86438095Y-54903095D01*
X86285714Y-54255476D02*
X86323809Y-54293571D01*
X86361904Y-54407857D01*
X86361904Y-54484047D01*
X86323809Y-54598333D01*
X86247619Y-54674523D01*
X86171428Y-54712619D01*
X86019047Y-54750714D01*
X85904761Y-54750714D01*
X85752380Y-54712619D01*
X85676190Y-54674523D01*
X85600000Y-54598333D01*
X85561904Y-54484047D01*
X85561904Y-54407857D01*
X85600000Y-54293571D01*
X85638095Y-54255476D01*
X86133333Y-53950714D02*
X86133333Y-53569761D01*
X86361904Y-54026904D02*
X85561904Y-53760238D01*
X86361904Y-53493571D01*
X86361904Y-53226904D02*
X85561904Y-53226904D01*
X86361904Y-52769761D01*
X85561904Y-52769761D01*
X86361904Y-51969761D02*
X86361904Y-52426904D01*
X86361904Y-52198333D02*
X85561904Y-52198333D01*
X85676190Y-52274523D01*
X85752380Y-52350714D01*
X85790476Y-52426904D01*
X86438095Y-51817380D02*
X86438095Y-51207857D01*
X86361904Y-51017380D02*
X85561904Y-51017380D01*
X85942857Y-51017380D02*
X85942857Y-50560238D01*
X86361904Y-50560238D02*
X85561904Y-50560238D01*
X86361904Y-49760238D02*
X86361904Y-50217380D01*
X86361904Y-49988809D02*
X85561904Y-49988809D01*
X85676190Y-50065000D01*
X85752380Y-50141190D01*
X85790476Y-50217380D01*
X61604761Y-105552380D02*
X61604761Y-106361904D01*
X61652380Y-106457142D01*
X61700000Y-106504761D01*
X61795238Y-106552380D01*
X61985714Y-106552380D01*
X62080952Y-106504761D01*
X62128571Y-106457142D01*
X62176190Y-106361904D01*
X62176190Y-105552380D01*
X62414285Y-106647619D02*
X63176190Y-106647619D01*
X63414285Y-105552380D02*
X63414285Y-106361904D01*
X63461904Y-106457142D01*
X63509523Y-106504761D01*
X63604761Y-106552380D01*
X63795238Y-106552380D01*
X63890476Y-106504761D01*
X63938095Y-106457142D01*
X63985714Y-106361904D01*
X63985714Y-105552380D01*
X64414285Y-106266666D02*
X64890476Y-106266666D01*
X64319047Y-106552380D02*
X64652380Y-105552380D01*
X64985714Y-106552380D01*
X65223809Y-105552380D02*
X65890476Y-105552380D01*
X65461904Y-106552380D01*
X66414285Y-105980952D02*
X66319047Y-105933333D01*
X66271428Y-105885714D01*
X66223809Y-105790476D01*
X66223809Y-105742857D01*
X66271428Y-105647619D01*
X66319047Y-105600000D01*
X66414285Y-105552380D01*
X66604761Y-105552380D01*
X66700000Y-105600000D01*
X66747619Y-105647619D01*
X66795238Y-105742857D01*
X66795238Y-105790476D01*
X66747619Y-105885714D01*
X66700000Y-105933333D01*
X66604761Y-105980952D01*
X66414285Y-105980952D01*
X66319047Y-106028571D01*
X66271428Y-106076190D01*
X66223809Y-106171428D01*
X66223809Y-106361904D01*
X66271428Y-106457142D01*
X66319047Y-106504761D01*
X66414285Y-106552380D01*
X66604761Y-106552380D01*
X66700000Y-106504761D01*
X66747619Y-106457142D01*
X66795238Y-106361904D01*
X66795238Y-106171428D01*
X66747619Y-106076190D01*
X66700000Y-106028571D01*
X66604761Y-105980952D01*
X67223809Y-106552380D02*
X67223809Y-105552380D01*
X67557142Y-106266666D01*
X67890476Y-105552380D01*
X67890476Y-106552380D01*
X68271428Y-105552380D02*
X68890476Y-105552380D01*
X68557142Y-105933333D01*
X68700000Y-105933333D01*
X68795238Y-105980952D01*
X68842857Y-106028571D01*
X68890476Y-106123809D01*
X68890476Y-106361904D01*
X68842857Y-106457142D01*
X68795238Y-106504761D01*
X68700000Y-106552380D01*
X68414285Y-106552380D01*
X68319047Y-106504761D01*
X68271428Y-106457142D01*
X69223809Y-105552380D02*
X69842857Y-105552380D01*
X69509523Y-105933333D01*
X69652380Y-105933333D01*
X69747619Y-105980952D01*
X69795238Y-106028571D01*
X69842857Y-106123809D01*
X69842857Y-106361904D01*
X69795238Y-106457142D01*
X69747619Y-106504761D01*
X69652380Y-106552380D01*
X69366666Y-106552380D01*
X69271428Y-106504761D01*
X69223809Y-106457142D01*
X70938095Y-106647619D02*
X70842857Y-106600000D01*
X70747619Y-106504761D01*
X70604761Y-106361904D01*
X70509523Y-106314285D01*
X70414285Y-106314285D01*
X70461904Y-106552380D02*
X70366666Y-106504761D01*
X70271428Y-106409523D01*
X70223809Y-106219047D01*
X70223809Y-105885714D01*
X70271428Y-105695238D01*
X70366666Y-105600000D01*
X70461904Y-105552380D01*
X70652380Y-105552380D01*
X70747619Y-105600000D01*
X70842857Y-105695238D01*
X70890476Y-105885714D01*
X70890476Y-106219047D01*
X70842857Y-106409523D01*
X70747619Y-106504761D01*
X70652380Y-106552380D01*
X70461904Y-106552380D01*
X71842857Y-106552380D02*
X71271428Y-106552380D01*
X71557142Y-106552380D02*
X71557142Y-105552380D01*
X71461904Y-105695238D01*
X71366666Y-105790476D01*
X71271428Y-105838095D01*
X108061904Y-63680952D02*
X108633333Y-63680952D01*
X108747619Y-63719047D01*
X108823809Y-63795238D01*
X108861904Y-63909523D01*
X108861904Y-63985714D01*
X108938095Y-63490476D02*
X108938095Y-62880952D01*
X108785714Y-62233333D02*
X108823809Y-62271428D01*
X108861904Y-62385714D01*
X108861904Y-62461904D01*
X108823809Y-62576190D01*
X108747619Y-62652380D01*
X108671428Y-62690476D01*
X108519047Y-62728571D01*
X108404761Y-62728571D01*
X108252380Y-62690476D01*
X108176190Y-62652380D01*
X108100000Y-62576190D01*
X108061904Y-62461904D01*
X108061904Y-62385714D01*
X108100000Y-62271428D01*
X108138095Y-62233333D01*
X108633333Y-61928571D02*
X108633333Y-61547619D01*
X108861904Y-62004761D02*
X108061904Y-61738095D01*
X108861904Y-61471428D01*
X108861904Y-61204761D02*
X108061904Y-61204761D01*
X108861904Y-60747619D01*
X108061904Y-60747619D01*
X108061904Y-60442857D02*
X108061904Y-59947619D01*
X108366666Y-60214285D01*
X108366666Y-60100000D01*
X108404761Y-60023809D01*
X108442857Y-59985714D01*
X108519047Y-59947619D01*
X108709523Y-59947619D01*
X108785714Y-59985714D01*
X108823809Y-60023809D01*
X108861904Y-60100000D01*
X108861904Y-60328571D01*
X108823809Y-60404761D01*
X108785714Y-60442857D01*
X108938095Y-59795238D02*
X108938095Y-59185714D01*
X108861904Y-58576190D02*
X108861904Y-59033333D01*
X108861904Y-58804761D02*
X108061904Y-58804761D01*
X108176190Y-58880952D01*
X108252380Y-58957142D01*
X108290476Y-59033333D01*
X108138095Y-58271428D02*
X108100000Y-58233333D01*
X108061904Y-58157142D01*
X108061904Y-57966666D01*
X108100000Y-57890476D01*
X108138095Y-57852380D01*
X108214285Y-57814285D01*
X108290476Y-57814285D01*
X108404761Y-57852380D01*
X108861904Y-58309523D01*
X108861904Y-57814285D01*
X108061904Y-57319047D02*
X108061904Y-57242857D01*
X108100000Y-57166666D01*
X108138095Y-57128571D01*
X108214285Y-57090476D01*
X108366666Y-57052380D01*
X108557142Y-57052380D01*
X108709523Y-57090476D01*
X108785714Y-57128571D01*
X108823809Y-57166666D01*
X108861904Y-57242857D01*
X108861904Y-57319047D01*
X108823809Y-57395238D01*
X108785714Y-57433333D01*
X108709523Y-57471428D01*
X108557142Y-57509523D01*
X108366666Y-57509523D01*
X108214285Y-57471428D01*
X108138095Y-57433333D01*
X108100000Y-57395238D01*
X108061904Y-57319047D01*
X93061904Y-63180952D02*
X93633333Y-63180952D01*
X93747619Y-63219047D01*
X93823809Y-63295238D01*
X93861904Y-63409523D01*
X93861904Y-63485714D01*
X93938095Y-62990476D02*
X93938095Y-62380952D01*
X93785714Y-61733333D02*
X93823809Y-61771428D01*
X93861904Y-61885714D01*
X93861904Y-61961904D01*
X93823809Y-62076190D01*
X93747619Y-62152380D01*
X93671428Y-62190476D01*
X93519047Y-62228571D01*
X93404761Y-62228571D01*
X93252380Y-62190476D01*
X93176190Y-62152380D01*
X93100000Y-62076190D01*
X93061904Y-61961904D01*
X93061904Y-61885714D01*
X93100000Y-61771428D01*
X93138095Y-61733333D01*
X93633333Y-61428571D02*
X93633333Y-61047619D01*
X93861904Y-61504761D02*
X93061904Y-61238095D01*
X93861904Y-60971428D01*
X93861904Y-60704761D02*
X93061904Y-60704761D01*
X93861904Y-60247619D01*
X93061904Y-60247619D01*
X93138095Y-59904761D02*
X93100000Y-59866666D01*
X93061904Y-59790476D01*
X93061904Y-59600000D01*
X93100000Y-59523809D01*
X93138095Y-59485714D01*
X93214285Y-59447619D01*
X93290476Y-59447619D01*
X93404761Y-59485714D01*
X93861904Y-59942857D01*
X93861904Y-59447619D01*
X93938095Y-59295238D02*
X93938095Y-58685714D01*
X93861904Y-58076190D02*
X93861904Y-58533333D01*
X93861904Y-58304761D02*
X93061904Y-58304761D01*
X93176190Y-58380952D01*
X93252380Y-58457142D01*
X93290476Y-58533333D01*
X93138095Y-57771428D02*
X93100000Y-57733333D01*
X93061904Y-57657142D01*
X93061904Y-57466666D01*
X93100000Y-57390476D01*
X93138095Y-57352380D01*
X93214285Y-57314285D01*
X93290476Y-57314285D01*
X93404761Y-57352380D01*
X93861904Y-57809523D01*
X93861904Y-57314285D01*
X93061904Y-56819047D02*
X93061904Y-56742857D01*
X93100000Y-56666666D01*
X93138095Y-56628571D01*
X93214285Y-56590476D01*
X93366666Y-56552380D01*
X93557142Y-56552380D01*
X93709523Y-56590476D01*
X93785714Y-56628571D01*
X93823809Y-56666666D01*
X93861904Y-56742857D01*
X93861904Y-56819047D01*
X93823809Y-56895238D01*
X93785714Y-56933333D01*
X93709523Y-56971428D01*
X93557142Y-57009523D01*
X93366666Y-57009523D01*
X93214285Y-56971428D01*
X93138095Y-56933333D01*
X93100000Y-56895238D01*
X93061904Y-56819047D01*
X80061904Y-63180952D02*
X80633333Y-63180952D01*
X80747619Y-63219047D01*
X80823809Y-63295238D01*
X80861904Y-63409523D01*
X80861904Y-63485714D01*
X80938095Y-62990476D02*
X80938095Y-62380952D01*
X80785714Y-61733333D02*
X80823809Y-61771428D01*
X80861904Y-61885714D01*
X80861904Y-61961904D01*
X80823809Y-62076190D01*
X80747619Y-62152380D01*
X80671428Y-62190476D01*
X80519047Y-62228571D01*
X80404761Y-62228571D01*
X80252380Y-62190476D01*
X80176190Y-62152380D01*
X80100000Y-62076190D01*
X80061904Y-61961904D01*
X80061904Y-61885714D01*
X80100000Y-61771428D01*
X80138095Y-61733333D01*
X80633333Y-61428571D02*
X80633333Y-61047619D01*
X80861904Y-61504761D02*
X80061904Y-61238095D01*
X80861904Y-60971428D01*
X80861904Y-60704761D02*
X80061904Y-60704761D01*
X80861904Y-60247619D01*
X80061904Y-60247619D01*
X80861904Y-59447619D02*
X80861904Y-59904761D01*
X80861904Y-59676190D02*
X80061904Y-59676190D01*
X80176190Y-59752380D01*
X80252380Y-59828571D01*
X80290476Y-59904761D01*
X80938095Y-59295238D02*
X80938095Y-58685714D01*
X80861904Y-58076190D02*
X80861904Y-58533333D01*
X80861904Y-58304761D02*
X80061904Y-58304761D01*
X80176190Y-58380952D01*
X80252380Y-58457142D01*
X80290476Y-58533333D01*
X80138095Y-57771428D02*
X80100000Y-57733333D01*
X80061904Y-57657142D01*
X80061904Y-57466666D01*
X80100000Y-57390476D01*
X80138095Y-57352380D01*
X80214285Y-57314285D01*
X80290476Y-57314285D01*
X80404761Y-57352380D01*
X80861904Y-57809523D01*
X80861904Y-57314285D01*
X80061904Y-56819047D02*
X80061904Y-56742857D01*
X80100000Y-56666666D01*
X80138095Y-56628571D01*
X80214285Y-56590476D01*
X80366666Y-56552380D01*
X80557142Y-56552380D01*
X80709523Y-56590476D01*
X80785714Y-56628571D01*
X80823809Y-56666666D01*
X80861904Y-56742857D01*
X80861904Y-56819047D01*
X80823809Y-56895238D01*
X80785714Y-56933333D01*
X80709523Y-56971428D01*
X80557142Y-57009523D01*
X80366666Y-57009523D01*
X80214285Y-56971428D01*
X80138095Y-56933333D01*
X80100000Y-56895238D01*
X80061904Y-56819047D01*
X52952380Y-84773809D02*
X53761904Y-84773809D01*
X53857142Y-84726190D01*
X53904761Y-84678571D01*
X53952380Y-84583333D01*
X53952380Y-84392857D01*
X53904761Y-84297619D01*
X53857142Y-84250000D01*
X53761904Y-84202380D01*
X52952380Y-84202380D01*
X54047619Y-83964285D02*
X54047619Y-83202380D01*
X53952380Y-82964285D02*
X52952380Y-82964285D01*
X53952380Y-82392857D01*
X52952380Y-82392857D01*
X53857142Y-81345238D02*
X53904761Y-81392857D01*
X53952380Y-81535714D01*
X53952380Y-81630952D01*
X53904761Y-81773809D01*
X53809523Y-81869047D01*
X53714285Y-81916666D01*
X53523809Y-81964285D01*
X53380952Y-81964285D01*
X53190476Y-81916666D01*
X53095238Y-81869047D01*
X53000000Y-81773809D01*
X52952380Y-81630952D01*
X52952380Y-81535714D01*
X53000000Y-81392857D01*
X53047619Y-81345238D01*
X52952380Y-81059523D02*
X53952380Y-80726190D01*
X52952380Y-80392857D01*
X52952380Y-80154761D02*
X52952380Y-79488095D01*
X53952380Y-79916666D01*
X53380952Y-78964285D02*
X53333333Y-79059523D01*
X53285714Y-79107142D01*
X53190476Y-79154761D01*
X53142857Y-79154761D01*
X53047619Y-79107142D01*
X53000000Y-79059523D01*
X52952380Y-78964285D01*
X52952380Y-78773809D01*
X53000000Y-78678571D01*
X53047619Y-78630952D01*
X53142857Y-78583333D01*
X53190476Y-78583333D01*
X53285714Y-78630952D01*
X53333333Y-78678571D01*
X53380952Y-78773809D01*
X53380952Y-78964285D01*
X53428571Y-79059523D01*
X53476190Y-79107142D01*
X53571428Y-79154761D01*
X53761904Y-79154761D01*
X53857142Y-79107142D01*
X53904761Y-79059523D01*
X53952380Y-78964285D01*
X53952380Y-78773809D01*
X53904761Y-78678571D01*
X53857142Y-78630952D01*
X53761904Y-78583333D01*
X53571428Y-78583333D01*
X53476190Y-78630952D01*
X53428571Y-78678571D01*
X53380952Y-78773809D01*
X52952380Y-77964285D02*
X52952380Y-77869047D01*
X53000000Y-77773809D01*
X53047619Y-77726190D01*
X53142857Y-77678571D01*
X53333333Y-77630952D01*
X53571428Y-77630952D01*
X53761904Y-77678571D01*
X53857142Y-77726190D01*
X53904761Y-77773809D01*
X53952380Y-77869047D01*
X53952380Y-77964285D01*
X53904761Y-78059523D01*
X53857142Y-78107142D01*
X53761904Y-78154761D01*
X53571428Y-78202380D01*
X53333333Y-78202380D01*
X53142857Y-78154761D01*
X53047619Y-78107142D01*
X53000000Y-78059523D01*
X52952380Y-77964285D01*
X52952380Y-76726190D02*
X52952380Y-77202380D01*
X53428571Y-77250000D01*
X53380952Y-77202380D01*
X53333333Y-77107142D01*
X53333333Y-76869047D01*
X53380952Y-76773809D01*
X53428571Y-76726190D01*
X53523809Y-76678571D01*
X53761904Y-76678571D01*
X53857142Y-76726190D01*
X53904761Y-76773809D01*
X53952380Y-76869047D01*
X53952380Y-77107142D01*
X53904761Y-77202380D01*
X53857142Y-77250000D01*
X58204761Y-54552380D02*
X57728571Y-54552380D01*
X57728571Y-53552380D01*
X58490476Y-53647619D02*
X58538095Y-53600000D01*
X58633333Y-53552380D01*
X58871428Y-53552380D01*
X58966666Y-53600000D01*
X59014285Y-53647619D01*
X59061904Y-53742857D01*
X59061904Y-53838095D01*
X59014285Y-53980952D01*
X58442857Y-54552380D01*
X59061904Y-54552380D01*
X59538095Y-54552380D02*
X59728571Y-54552380D01*
X59823809Y-54504761D01*
X59871428Y-54457142D01*
X59966666Y-54314285D01*
X60014285Y-54123809D01*
X60014285Y-53742857D01*
X59966666Y-53647619D01*
X59919047Y-53600000D01*
X59823809Y-53552380D01*
X59633333Y-53552380D01*
X59538095Y-53600000D01*
X59490476Y-53647619D01*
X59442857Y-53742857D01*
X59442857Y-53980952D01*
X59490476Y-54076190D01*
X59538095Y-54123809D01*
X59633333Y-54171428D01*
X59823809Y-54171428D01*
X59919047Y-54123809D01*
X59966666Y-54076190D01*
X60014285Y-53980952D01*
X60585714Y-53980952D02*
X60490476Y-53933333D01*
X60442857Y-53885714D01*
X60395238Y-53790476D01*
X60395238Y-53742857D01*
X60442857Y-53647619D01*
X60490476Y-53600000D01*
X60585714Y-53552380D01*
X60776190Y-53552380D01*
X60871428Y-53600000D01*
X60919047Y-53647619D01*
X60966666Y-53742857D01*
X60966666Y-53790476D01*
X60919047Y-53885714D01*
X60871428Y-53933333D01*
X60776190Y-53980952D01*
X60585714Y-53980952D01*
X60490476Y-54028571D01*
X60442857Y-54076190D01*
X60395238Y-54171428D01*
X60395238Y-54361904D01*
X60442857Y-54457142D01*
X60490476Y-54504761D01*
X60585714Y-54552380D01*
X60776190Y-54552380D01*
X60871428Y-54504761D01*
X60919047Y-54457142D01*
X60966666Y-54361904D01*
X60966666Y-54171428D01*
X60919047Y-54076190D01*
X60871428Y-54028571D01*
X60776190Y-53980952D01*
X61395238Y-54552380D02*
X61395238Y-53552380D01*
X61776190Y-53552380D01*
X61871428Y-53600000D01*
X61919047Y-53647619D01*
X61966666Y-53742857D01*
X61966666Y-53885714D01*
X61919047Y-53980952D01*
X61871428Y-54028571D01*
X61776190Y-54076190D01*
X61395238Y-54076190D01*
X62157142Y-54647619D02*
X62919047Y-54647619D01*
X63157142Y-54552380D02*
X63157142Y-53552380D01*
X63395238Y-53552380D01*
X63538095Y-53600000D01*
X63633333Y-53695238D01*
X63680952Y-53790476D01*
X63728571Y-53980952D01*
X63728571Y-54123809D01*
X63680952Y-54314285D01*
X63633333Y-54409523D01*
X63538095Y-54504761D01*
X63395238Y-54552380D01*
X63157142Y-54552380D01*
X64728571Y-54552380D02*
X64395238Y-54076190D01*
X64157142Y-54552380D02*
X64157142Y-53552380D01*
X64538095Y-53552380D01*
X64633333Y-53600000D01*
X64680952Y-53647619D01*
X64728571Y-53742857D01*
X64728571Y-53885714D01*
X64680952Y-53980952D01*
X64633333Y-54028571D01*
X64538095Y-54076190D01*
X64157142Y-54076190D01*
X65157142Y-54552380D02*
X65157142Y-53552380D01*
X65490476Y-53552380D02*
X65823809Y-54552380D01*
X66157142Y-53552380D01*
X66490476Y-54028571D02*
X66823809Y-54028571D01*
X66966666Y-54552380D02*
X66490476Y-54552380D01*
X66490476Y-53552380D01*
X66966666Y-53552380D01*
X67966666Y-54552380D02*
X67633333Y-54076190D01*
X67395238Y-54552380D02*
X67395238Y-53552380D01*
X67776190Y-53552380D01*
X67871428Y-53600000D01*
X67919047Y-53647619D01*
X67966666Y-53742857D01*
X67966666Y-53885714D01*
X67919047Y-53980952D01*
X67871428Y-54028571D01*
X67776190Y-54076190D01*
X67395238Y-54076190D01*
X68919047Y-54552380D02*
X68347619Y-54552380D01*
X68633333Y-54552380D02*
X68633333Y-53552380D01*
X68538095Y-53695238D01*
X68442857Y-53790476D01*
X68347619Y-53838095D01*
X36352380Y-66595238D02*
X36352380Y-67071428D01*
X35352380Y-67071428D01*
X35447619Y-66309523D02*
X35400000Y-66261904D01*
X35352380Y-66166666D01*
X35352380Y-65928571D01*
X35400000Y-65833333D01*
X35447619Y-65785714D01*
X35542857Y-65738095D01*
X35638095Y-65738095D01*
X35780952Y-65785714D01*
X36352380Y-66357142D01*
X36352380Y-65738095D01*
X36352380Y-65261904D02*
X36352380Y-65071428D01*
X36304761Y-64976190D01*
X36257142Y-64928571D01*
X36114285Y-64833333D01*
X35923809Y-64785714D01*
X35542857Y-64785714D01*
X35447619Y-64833333D01*
X35400000Y-64880952D01*
X35352380Y-64976190D01*
X35352380Y-65166666D01*
X35400000Y-65261904D01*
X35447619Y-65309523D01*
X35542857Y-65357142D01*
X35780952Y-65357142D01*
X35876190Y-65309523D01*
X35923809Y-65261904D01*
X35971428Y-65166666D01*
X35971428Y-64976190D01*
X35923809Y-64880952D01*
X35876190Y-64833333D01*
X35780952Y-64785714D01*
X35780952Y-64214285D02*
X35733333Y-64309523D01*
X35685714Y-64357142D01*
X35590476Y-64404761D01*
X35542857Y-64404761D01*
X35447619Y-64357142D01*
X35400000Y-64309523D01*
X35352380Y-64214285D01*
X35352380Y-64023809D01*
X35400000Y-63928571D01*
X35447619Y-63880952D01*
X35542857Y-63833333D01*
X35590476Y-63833333D01*
X35685714Y-63880952D01*
X35733333Y-63928571D01*
X35780952Y-64023809D01*
X35780952Y-64214285D01*
X35828571Y-64309523D01*
X35876190Y-64357142D01*
X35971428Y-64404761D01*
X36161904Y-64404761D01*
X36257142Y-64357142D01*
X36304761Y-64309523D01*
X36352380Y-64214285D01*
X36352380Y-64023809D01*
X36304761Y-63928571D01*
X36257142Y-63880952D01*
X36161904Y-63833333D01*
X35971428Y-63833333D01*
X35876190Y-63880952D01*
X35828571Y-63928571D01*
X35780952Y-64023809D01*
X36352380Y-63404761D02*
X35352380Y-63404761D01*
X35352380Y-63023809D01*
X35400000Y-62928571D01*
X35447619Y-62880952D01*
X35542857Y-62833333D01*
X35685714Y-62833333D01*
X35780952Y-62880952D01*
X35828571Y-62928571D01*
X35876190Y-63023809D01*
X35876190Y-63404761D01*
X36447619Y-62642857D02*
X36447619Y-61880952D01*
X36352380Y-61642857D02*
X35352380Y-61642857D01*
X35352380Y-61404761D01*
X35400000Y-61261904D01*
X35495238Y-61166666D01*
X35590476Y-61119047D01*
X35780952Y-61071428D01*
X35923809Y-61071428D01*
X36114285Y-61119047D01*
X36209523Y-61166666D01*
X36304761Y-61261904D01*
X36352380Y-61404761D01*
X36352380Y-61642857D01*
X36352380Y-60071428D02*
X35876190Y-60404761D01*
X36352380Y-60642857D02*
X35352380Y-60642857D01*
X35352380Y-60261904D01*
X35400000Y-60166666D01*
X35447619Y-60119047D01*
X35542857Y-60071428D01*
X35685714Y-60071428D01*
X35780952Y-60119047D01*
X35828571Y-60166666D01*
X35876190Y-60261904D01*
X35876190Y-60642857D01*
X36352380Y-59642857D02*
X35352380Y-59642857D01*
X35352380Y-59309523D02*
X36352380Y-58976190D01*
X35352380Y-58642857D01*
X35828571Y-58309523D02*
X35828571Y-57976190D01*
X36352380Y-57833333D02*
X36352380Y-58309523D01*
X35352380Y-58309523D01*
X35352380Y-57833333D01*
X36352380Y-56833333D02*
X35876190Y-57166666D01*
X36352380Y-57404761D02*
X35352380Y-57404761D01*
X35352380Y-57023809D01*
X35400000Y-56928571D01*
X35447619Y-56880952D01*
X35542857Y-56833333D01*
X35685714Y-56833333D01*
X35780952Y-56880952D01*
X35828571Y-56928571D01*
X35876190Y-57023809D01*
X35876190Y-57404761D01*
X35447619Y-56452380D02*
X35400000Y-56404761D01*
X35352380Y-56309523D01*
X35352380Y-56071428D01*
X35400000Y-55976190D01*
X35447619Y-55928571D01*
X35542857Y-55880952D01*
X35638095Y-55880952D01*
X35780952Y-55928571D01*
X36352380Y-56500000D01*
X36352380Y-55880952D01*
X40952380Y-37030952D02*
X41666666Y-37030952D01*
X41809523Y-37078571D01*
X41904761Y-37173809D01*
X41952380Y-37316666D01*
X41952380Y-37411904D01*
X42047619Y-36792857D02*
X42047619Y-36030952D01*
X41666666Y-35840476D02*
X41666666Y-35364285D01*
X41952380Y-35935714D02*
X40952380Y-35602380D01*
X41952380Y-35269047D01*
X41857142Y-34364285D02*
X41904761Y-34411904D01*
X41952380Y-34554761D01*
X41952380Y-34650000D01*
X41904761Y-34792857D01*
X41809523Y-34888095D01*
X41714285Y-34935714D01*
X41523809Y-34983333D01*
X41380952Y-34983333D01*
X41190476Y-34935714D01*
X41095238Y-34888095D01*
X41000000Y-34792857D01*
X40952380Y-34650000D01*
X40952380Y-34554761D01*
X41000000Y-34411904D01*
X41047619Y-34364285D01*
X40952380Y-34078571D02*
X40952380Y-33507142D01*
X41952380Y-33792857D02*
X40952380Y-33792857D01*
X40952380Y-33173809D02*
X41761904Y-33173809D01*
X41857142Y-33126190D01*
X41904761Y-33078571D01*
X41952380Y-32983333D01*
X41952380Y-32792857D01*
X41904761Y-32697619D01*
X41857142Y-32650000D01*
X41761904Y-32602380D01*
X40952380Y-32602380D01*
X41666666Y-32173809D02*
X41666666Y-31697619D01*
X41952380Y-32269047D02*
X40952380Y-31935714D01*
X41952380Y-31602380D01*
X40952380Y-31411904D02*
X40952380Y-30840476D01*
X41952380Y-31126190D02*
X40952380Y-31126190D01*
X40952380Y-30316666D02*
X40952380Y-30126190D01*
X41000000Y-30030952D01*
X41095238Y-29935714D01*
X41285714Y-29888095D01*
X41619047Y-29888095D01*
X41809523Y-29935714D01*
X41904761Y-30030952D01*
X41952380Y-30126190D01*
X41952380Y-30316666D01*
X41904761Y-30411904D01*
X41809523Y-30507142D01*
X41619047Y-30554761D01*
X41285714Y-30554761D01*
X41095238Y-30507142D01*
X41000000Y-30411904D01*
X40952380Y-30316666D01*
X41952380Y-28888095D02*
X41476190Y-29221428D01*
X41952380Y-29459523D02*
X40952380Y-29459523D01*
X40952380Y-29078571D01*
X41000000Y-28983333D01*
X41047619Y-28935714D01*
X41142857Y-28888095D01*
X41285714Y-28888095D01*
X41380952Y-28935714D01*
X41428571Y-28983333D01*
X41476190Y-29078571D01*
X41476190Y-29459523D01*
X41047619Y-28507142D02*
X41000000Y-28459523D01*
X40952380Y-28364285D01*
X40952380Y-28126190D01*
X41000000Y-28030952D01*
X41047619Y-27983333D01*
X41142857Y-27935714D01*
X41238095Y-27935714D01*
X41380952Y-27983333D01*
X41952380Y-28554761D01*
X41952380Y-27935714D01*
X107988095Y-78952380D02*
X107988095Y-79761904D01*
X108035714Y-79857142D01*
X108083333Y-79904761D01*
X108178571Y-79952380D01*
X108369047Y-79952380D01*
X108464285Y-79904761D01*
X108511904Y-79857142D01*
X108559523Y-79761904D01*
X108559523Y-78952380D01*
X109559523Y-79952380D02*
X108988095Y-79952380D01*
X109273809Y-79952380D02*
X109273809Y-78952380D01*
X109178571Y-79095238D01*
X109083333Y-79190476D01*
X108988095Y-79238095D01*
X123252380Y-88495238D02*
X123966666Y-88495238D01*
X124109523Y-88542857D01*
X124204761Y-88638095D01*
X124252380Y-88780952D01*
X124252380Y-88876190D01*
X124347619Y-88257142D02*
X124347619Y-87495238D01*
X124204761Y-87304761D02*
X124252380Y-87161904D01*
X124252380Y-86923809D01*
X124204761Y-86828571D01*
X124157142Y-86780952D01*
X124061904Y-86733333D01*
X123966666Y-86733333D01*
X123871428Y-86780952D01*
X123823809Y-86828571D01*
X123776190Y-86923809D01*
X123728571Y-87114285D01*
X123680952Y-87209523D01*
X123633333Y-87257142D01*
X123538095Y-87304761D01*
X123442857Y-87304761D01*
X123347619Y-87257142D01*
X123300000Y-87209523D01*
X123252380Y-87114285D01*
X123252380Y-86876190D01*
X123300000Y-86733333D01*
X123728571Y-86304761D02*
X123728571Y-85971428D01*
X124252380Y-85828571D02*
X124252380Y-86304761D01*
X123252380Y-86304761D01*
X123252380Y-85828571D01*
X124252380Y-84828571D02*
X123776190Y-85161904D01*
X124252380Y-85400000D02*
X123252380Y-85400000D01*
X123252380Y-85019047D01*
X123300000Y-84923809D01*
X123347619Y-84876190D01*
X123442857Y-84828571D01*
X123585714Y-84828571D01*
X123680952Y-84876190D01*
X123728571Y-84923809D01*
X123776190Y-85019047D01*
X123776190Y-85400000D01*
X124252380Y-84400000D02*
X123252380Y-84400000D01*
X123966666Y-83971428D02*
X123966666Y-83495238D01*
X124252380Y-84066666D02*
X123252380Y-83733333D01*
X124252380Y-83400000D01*
X124252380Y-82590476D02*
X124252380Y-83066666D01*
X123252380Y-83066666D01*
X124347619Y-82495238D02*
X124347619Y-81733333D01*
X123252380Y-81590476D02*
X123252380Y-80971428D01*
X123633333Y-81304761D01*
X123633333Y-81161904D01*
X123680952Y-81066666D01*
X123728571Y-81019047D01*
X123823809Y-80971428D01*
X124061904Y-80971428D01*
X124157142Y-81019047D01*
X124204761Y-81066666D01*
X124252380Y-81161904D01*
X124252380Y-81447619D01*
X124204761Y-81542857D01*
X124157142Y-81590476D01*
X76380952Y-86952380D02*
X76380952Y-87761904D01*
X76428571Y-87857142D01*
X76476190Y-87904761D01*
X76571428Y-87952380D01*
X76761904Y-87952380D01*
X76857142Y-87904761D01*
X76904761Y-87857142D01*
X76952380Y-87761904D01*
X76952380Y-86952380D01*
X77190476Y-88047619D02*
X77952380Y-88047619D01*
X78047619Y-86952380D02*
X78619047Y-86952380D01*
X78333333Y-87952380D02*
X78333333Y-86952380D01*
X79238095Y-86952380D02*
X79238095Y-87666666D01*
X79190476Y-87809523D01*
X79095238Y-87904761D01*
X78952380Y-87952380D01*
X78857142Y-87952380D01*
X79666666Y-87666666D02*
X80142857Y-87666666D01*
X79571428Y-87952380D02*
X79904761Y-86952380D01*
X80238095Y-87952380D01*
X81095238Y-87952380D02*
X80523809Y-87952380D01*
X80809523Y-87952380D02*
X80809523Y-86952380D01*
X80714285Y-87095238D01*
X80619047Y-87190476D01*
X80523809Y-87238095D01*
X81714285Y-86952380D02*
X81809523Y-86952380D01*
X81904761Y-87000000D01*
X81952380Y-87047619D01*
X82000000Y-87142857D01*
X82047619Y-87333333D01*
X82047619Y-87571428D01*
X82000000Y-87761904D01*
X81952380Y-87857142D01*
X81904761Y-87904761D01*
X81809523Y-87952380D01*
X81714285Y-87952380D01*
X81619047Y-87904761D01*
X81571428Y-87857142D01*
X81523809Y-87761904D01*
X81476190Y-87571428D01*
X81476190Y-87333333D01*
X81523809Y-87142857D01*
X81571428Y-87047619D01*
X81619047Y-87000000D01*
X81714285Y-86952380D01*
X82904761Y-87285714D02*
X82904761Y-87952380D01*
X82666666Y-86904761D02*
X82428571Y-87619047D01*
X83047619Y-87619047D01*
X83619047Y-86952380D02*
X83714285Y-86952380D01*
X83809523Y-87000000D01*
X83857142Y-87047619D01*
X83904761Y-87142857D01*
X83952380Y-87333333D01*
X83952380Y-87571428D01*
X83904761Y-87761904D01*
X83857142Y-87857142D01*
X83809523Y-87904761D01*
X83714285Y-87952380D01*
X83619047Y-87952380D01*
X83523809Y-87904761D01*
X83476190Y-87857142D01*
X83428571Y-87761904D01*
X83380952Y-87571428D01*
X83380952Y-87333333D01*
X83428571Y-87142857D01*
X83476190Y-87047619D01*
X83523809Y-87000000D01*
X83619047Y-86952380D01*
X84142857Y-88047619D02*
X84904761Y-88047619D01*
X85095238Y-87047619D02*
X85142857Y-87000000D01*
X85238095Y-86952380D01*
X85476190Y-86952380D01*
X85571428Y-87000000D01*
X85619047Y-87047619D01*
X85666666Y-87142857D01*
X85666666Y-87238095D01*
X85619047Y-87380952D01*
X85047619Y-87952380D01*
X85666666Y-87952380D01*
X76630952Y-73952380D02*
X76630952Y-74761904D01*
X76678571Y-74857142D01*
X76726190Y-74904761D01*
X76821428Y-74952380D01*
X77011904Y-74952380D01*
X77107142Y-74904761D01*
X77154761Y-74857142D01*
X77202380Y-74761904D01*
X77202380Y-73952380D01*
X77440476Y-75047619D02*
X78202380Y-75047619D01*
X78297619Y-73952380D02*
X78869047Y-73952380D01*
X78583333Y-74952380D02*
X78583333Y-73952380D01*
X79488095Y-73952380D02*
X79488095Y-74666666D01*
X79440476Y-74809523D01*
X79345238Y-74904761D01*
X79202380Y-74952380D01*
X79107142Y-74952380D01*
X79916666Y-74666666D02*
X80392857Y-74666666D01*
X79821428Y-74952380D02*
X80154761Y-73952380D01*
X80488095Y-74952380D01*
X81345238Y-74952380D02*
X80773809Y-74952380D01*
X81059523Y-74952380D02*
X81059523Y-73952380D01*
X80964285Y-74095238D01*
X80869047Y-74190476D01*
X80773809Y-74238095D01*
X81964285Y-73952380D02*
X82059523Y-73952380D01*
X82154761Y-74000000D01*
X82202380Y-74047619D01*
X82250000Y-74142857D01*
X82297619Y-74333333D01*
X82297619Y-74571428D01*
X82250000Y-74761904D01*
X82202380Y-74857142D01*
X82154761Y-74904761D01*
X82059523Y-74952380D01*
X81964285Y-74952380D01*
X81869047Y-74904761D01*
X81821428Y-74857142D01*
X81773809Y-74761904D01*
X81726190Y-74571428D01*
X81726190Y-74333333D01*
X81773809Y-74142857D01*
X81821428Y-74047619D01*
X81869047Y-74000000D01*
X81964285Y-73952380D01*
X83154761Y-74285714D02*
X83154761Y-74952380D01*
X82916666Y-73904761D02*
X82678571Y-74619047D01*
X83297619Y-74619047D01*
X83869047Y-73952380D02*
X83964285Y-73952380D01*
X84059523Y-74000000D01*
X84107142Y-74047619D01*
X84154761Y-74142857D01*
X84202380Y-74333333D01*
X84202380Y-74571428D01*
X84154761Y-74761904D01*
X84107142Y-74857142D01*
X84059523Y-74904761D01*
X83964285Y-74952380D01*
X83869047Y-74952380D01*
X83773809Y-74904761D01*
X83726190Y-74857142D01*
X83678571Y-74761904D01*
X83630952Y-74571428D01*
X83630952Y-74333333D01*
X83678571Y-74142857D01*
X83726190Y-74047619D01*
X83773809Y-74000000D01*
X83869047Y-73952380D01*
X84392857Y-75047619D02*
X85154761Y-75047619D01*
X85916666Y-74952380D02*
X85345238Y-74952380D01*
X85630952Y-74952380D02*
X85630952Y-73952380D01*
X85535714Y-74095238D01*
X85440476Y-74190476D01*
X85345238Y-74238095D01*
X107559523Y-66052380D02*
X107559523Y-66861904D01*
X107607142Y-66957142D01*
X107654761Y-67004761D01*
X107750000Y-67052380D01*
X107940476Y-67052380D01*
X108035714Y-67004761D01*
X108083333Y-66957142D01*
X108130952Y-66861904D01*
X108130952Y-66052380D01*
X109035714Y-66052380D02*
X108845238Y-66052380D01*
X108750000Y-66100000D01*
X108702380Y-66147619D01*
X108607142Y-66290476D01*
X108559523Y-66480952D01*
X108559523Y-66861904D01*
X108607142Y-66957142D01*
X108654761Y-67004761D01*
X108750000Y-67052380D01*
X108940476Y-67052380D01*
X109035714Y-67004761D01*
X109083333Y-66957142D01*
X109130952Y-66861904D01*
X109130952Y-66623809D01*
X109083333Y-66528571D01*
X109035714Y-66480952D01*
X108940476Y-66433333D01*
X108750000Y-66433333D01*
X108654761Y-66480952D01*
X108607142Y-66528571D01*
X108559523Y-66623809D01*
X109750000Y-66052380D02*
X109845238Y-66052380D01*
X109940476Y-66100000D01*
X109988095Y-66147619D01*
X110035714Y-66242857D01*
X110083333Y-66433333D01*
X110083333Y-66671428D01*
X110035714Y-66861904D01*
X109988095Y-66957142D01*
X109940476Y-67004761D01*
X109845238Y-67052380D01*
X109750000Y-67052380D01*
X109654761Y-67004761D01*
X109607142Y-66957142D01*
X109559523Y-66861904D01*
X109511904Y-66671428D01*
X109511904Y-66433333D01*
X109559523Y-66242857D01*
X109607142Y-66147619D01*
X109654761Y-66100000D01*
X109750000Y-66052380D01*
X110702380Y-66052380D02*
X110797619Y-66052380D01*
X110892857Y-66100000D01*
X110940476Y-66147619D01*
X110988095Y-66242857D01*
X111035714Y-66433333D01*
X111035714Y-66671428D01*
X110988095Y-66861904D01*
X110940476Y-66957142D01*
X110892857Y-67004761D01*
X110797619Y-67052380D01*
X110702380Y-67052380D01*
X110607142Y-67004761D01*
X110559523Y-66957142D01*
X110511904Y-66861904D01*
X110464285Y-66671428D01*
X110464285Y-66433333D01*
X110511904Y-66242857D01*
X110559523Y-66147619D01*
X110607142Y-66100000D01*
X110702380Y-66052380D01*
X111416666Y-66147619D02*
X111464285Y-66100000D01*
X111559523Y-66052380D01*
X111797619Y-66052380D01*
X111892857Y-66100000D01*
X111940476Y-66147619D01*
X111988095Y-66242857D01*
X111988095Y-66338095D01*
X111940476Y-66480952D01*
X111369047Y-67052380D01*
X111988095Y-67052380D01*
X116357142Y-67476190D02*
X116404761Y-67523809D01*
X116452380Y-67666666D01*
X116452380Y-67761904D01*
X116404761Y-67904761D01*
X116309523Y-68000000D01*
X116214285Y-68047619D01*
X116023809Y-68095238D01*
X115880952Y-68095238D01*
X115690476Y-68047619D01*
X115595238Y-68000000D01*
X115500000Y-67904761D01*
X115452380Y-67761904D01*
X115452380Y-67666666D01*
X115500000Y-67523809D01*
X115547619Y-67476190D01*
X116547619Y-67285714D02*
X116547619Y-66523809D01*
X115452380Y-65857142D02*
X115452380Y-66047619D01*
X115500000Y-66142857D01*
X115547619Y-66190476D01*
X115690476Y-66285714D01*
X115880952Y-66333333D01*
X116261904Y-66333333D01*
X116357142Y-66285714D01*
X116404761Y-66238095D01*
X116452380Y-66142857D01*
X116452380Y-65952380D01*
X116404761Y-65857142D01*
X116357142Y-65809523D01*
X116261904Y-65761904D01*
X116023809Y-65761904D01*
X115928571Y-65809523D01*
X115880952Y-65857142D01*
X115833333Y-65952380D01*
X115833333Y-66142857D01*
X115880952Y-66238095D01*
X115928571Y-66285714D01*
X116023809Y-66333333D01*
X115452380Y-65142857D02*
X115452380Y-65047619D01*
X115500000Y-64952380D01*
X115547619Y-64904761D01*
X115642857Y-64857142D01*
X115833333Y-64809523D01*
X116071428Y-64809523D01*
X116261904Y-64857142D01*
X116357142Y-64904761D01*
X116404761Y-64952380D01*
X116452380Y-65047619D01*
X116452380Y-65142857D01*
X116404761Y-65238095D01*
X116357142Y-65285714D01*
X116261904Y-65333333D01*
X116071428Y-65380952D01*
X115833333Y-65380952D01*
X115642857Y-65333333D01*
X115547619Y-65285714D01*
X115500000Y-65238095D01*
X115452380Y-65142857D01*
X115452380Y-64190476D02*
X115452380Y-64095238D01*
X115500000Y-64000000D01*
X115547619Y-63952380D01*
X115642857Y-63904761D01*
X115833333Y-63857142D01*
X116071428Y-63857142D01*
X116261904Y-63904761D01*
X116357142Y-63952380D01*
X116404761Y-64000000D01*
X116452380Y-64095238D01*
X116452380Y-64190476D01*
X116404761Y-64285714D01*
X116357142Y-64333333D01*
X116261904Y-64380952D01*
X116071428Y-64428571D01*
X115833333Y-64428571D01*
X115642857Y-64380952D01*
X115547619Y-64333333D01*
X115500000Y-64285714D01*
X115452380Y-64190476D01*
X115547619Y-63476190D02*
X115500000Y-63428571D01*
X115452380Y-63333333D01*
X115452380Y-63095238D01*
X115500000Y-63000000D01*
X115547619Y-62952380D01*
X115642857Y-62904761D01*
X115738095Y-62904761D01*
X115880952Y-62952380D01*
X116452380Y-63523809D01*
X116452380Y-62904761D01*
X123552380Y-68428571D02*
X124266666Y-68428571D01*
X124409523Y-68476190D01*
X124504761Y-68571428D01*
X124552380Y-68714285D01*
X124552380Y-68809523D01*
X124647619Y-68190476D02*
X124647619Y-67428571D01*
X123552380Y-67333333D02*
X124552380Y-67000000D01*
X123552380Y-66666666D01*
X124504761Y-66380952D02*
X124552380Y-66238095D01*
X124552380Y-66000000D01*
X124504761Y-65904761D01*
X124457142Y-65857142D01*
X124361904Y-65809523D01*
X124266666Y-65809523D01*
X124171428Y-65857142D01*
X124123809Y-65904761D01*
X124076190Y-66000000D01*
X124028571Y-66190476D01*
X123980952Y-66285714D01*
X123933333Y-66333333D01*
X123838095Y-66380952D01*
X123742857Y-66380952D01*
X123647619Y-66333333D01*
X123600000Y-66285714D01*
X123552380Y-66190476D01*
X123552380Y-65952380D01*
X123600000Y-65809523D01*
X124504761Y-65428571D02*
X124552380Y-65285714D01*
X124552380Y-65047619D01*
X124504761Y-64952380D01*
X124457142Y-64904761D01*
X124361904Y-64857142D01*
X124266666Y-64857142D01*
X124171428Y-64904761D01*
X124123809Y-64952380D01*
X124076190Y-65047619D01*
X124028571Y-65238095D01*
X123980952Y-65333333D01*
X123933333Y-65380952D01*
X123838095Y-65428571D01*
X123742857Y-65428571D01*
X123647619Y-65380952D01*
X123600000Y-65333333D01*
X123552380Y-65238095D01*
X123552380Y-65000000D01*
X123600000Y-64857142D01*
X124647619Y-64666666D02*
X124647619Y-63904761D01*
X124504761Y-63714285D02*
X124552380Y-63571428D01*
X124552380Y-63333333D01*
X124504761Y-63238095D01*
X124457142Y-63190476D01*
X124361904Y-63142857D01*
X124266666Y-63142857D01*
X124171428Y-63190476D01*
X124123809Y-63238095D01*
X124076190Y-63333333D01*
X124028571Y-63523809D01*
X123980952Y-63619047D01*
X123933333Y-63666666D01*
X123838095Y-63714285D01*
X123742857Y-63714285D01*
X123647619Y-63666666D01*
X123600000Y-63619047D01*
X123552380Y-63523809D01*
X123552380Y-63285714D01*
X123600000Y-63142857D01*
X124028571Y-62714285D02*
X124028571Y-62380952D01*
X124552380Y-62238095D02*
X124552380Y-62714285D01*
X123552380Y-62714285D01*
X123552380Y-62238095D01*
X124552380Y-61809523D02*
X123552380Y-61809523D01*
X124552380Y-61238095D01*
X123552380Y-61238095D01*
X124504761Y-60809523D02*
X124552380Y-60666666D01*
X124552380Y-60428571D01*
X124504761Y-60333333D01*
X124457142Y-60285714D01*
X124361904Y-60238095D01*
X124266666Y-60238095D01*
X124171428Y-60285714D01*
X124123809Y-60333333D01*
X124076190Y-60428571D01*
X124028571Y-60619047D01*
X123980952Y-60714285D01*
X123933333Y-60761904D01*
X123838095Y-60809523D01*
X123742857Y-60809523D01*
X123647619Y-60761904D01*
X123600000Y-60714285D01*
X123552380Y-60619047D01*
X123552380Y-60380952D01*
X123600000Y-60238095D01*
X123552380Y-59619047D02*
X123552380Y-59428571D01*
X123600000Y-59333333D01*
X123695238Y-59238095D01*
X123885714Y-59190476D01*
X124219047Y-59190476D01*
X124409523Y-59238095D01*
X124504761Y-59333333D01*
X124552380Y-59428571D01*
X124552380Y-59619047D01*
X124504761Y-59714285D01*
X124409523Y-59809523D01*
X124219047Y-59857142D01*
X123885714Y-59857142D01*
X123695238Y-59809523D01*
X123600000Y-59714285D01*
X123552380Y-59619047D01*
X124552380Y-58190476D02*
X124076190Y-58523809D01*
X124552380Y-58761904D02*
X123552380Y-58761904D01*
X123552380Y-58380952D01*
X123600000Y-58285714D01*
X123647619Y-58238095D01*
X123742857Y-58190476D01*
X123885714Y-58190476D01*
X123980952Y-58238095D01*
X124028571Y-58285714D01*
X124076190Y-58380952D01*
X124076190Y-58761904D01*
X124552380Y-57238095D02*
X124552380Y-57809523D01*
X124552380Y-57523809D02*
X123552380Y-57523809D01*
X123695238Y-57619047D01*
X123790476Y-57714285D01*
X123838095Y-57809523D01*
X99976190Y-89654761D02*
X100452380Y-89654761D01*
X99452380Y-89988095D02*
X99976190Y-89654761D01*
X99452380Y-89321428D01*
X100547619Y-89226190D02*
X100547619Y-88464285D01*
X99880952Y-88083333D02*
X99833333Y-88178571D01*
X99785714Y-88226190D01*
X99690476Y-88273809D01*
X99642857Y-88273809D01*
X99547619Y-88226190D01*
X99500000Y-88178571D01*
X99452380Y-88083333D01*
X99452380Y-87892857D01*
X99500000Y-87797619D01*
X99547619Y-87750000D01*
X99642857Y-87702380D01*
X99690476Y-87702380D01*
X99785714Y-87750000D01*
X99833333Y-87797619D01*
X99880952Y-87892857D01*
X99880952Y-88083333D01*
X99928571Y-88178571D01*
X99976190Y-88226190D01*
X100071428Y-88273809D01*
X100261904Y-88273809D01*
X100357142Y-88226190D01*
X100404761Y-88178571D01*
X100452380Y-88083333D01*
X100452380Y-87892857D01*
X100404761Y-87797619D01*
X100357142Y-87750000D01*
X100261904Y-87702380D01*
X100071428Y-87702380D01*
X99976190Y-87750000D01*
X99928571Y-87797619D01*
X99880952Y-87892857D01*
X100452380Y-87273809D02*
X99452380Y-87273809D01*
X100166666Y-86940476D01*
X99452380Y-86607142D01*
X100452380Y-86607142D01*
X100452380Y-86130952D02*
X99452380Y-86130952D01*
X99928571Y-86130952D02*
X99928571Y-85559523D01*
X100452380Y-85559523D02*
X99452380Y-85559523D01*
X99452380Y-85178571D02*
X99452380Y-84511904D01*
X100452380Y-85178571D01*
X100452380Y-84511904D01*
X100452380Y-83607142D02*
X100452380Y-84178571D01*
X100452380Y-83892857D02*
X99452380Y-83892857D01*
X99595238Y-83988095D01*
X99690476Y-84083333D01*
X99738095Y-84178571D01*
X86523809Y-82702380D02*
X86190476Y-82226190D01*
X85952380Y-82702380D02*
X85952380Y-81702380D01*
X86333333Y-81702380D01*
X86428571Y-81750000D01*
X86476190Y-81797619D01*
X86523809Y-81892857D01*
X86523809Y-82035714D01*
X86476190Y-82130952D01*
X86428571Y-82178571D01*
X86333333Y-82226190D01*
X85952380Y-82226190D01*
X86714285Y-82797619D02*
X87476190Y-82797619D01*
X88285714Y-82702380D02*
X87952380Y-82226190D01*
X87714285Y-82702380D02*
X87714285Y-81702380D01*
X88095238Y-81702380D01*
X88190476Y-81750000D01*
X88238095Y-81797619D01*
X88285714Y-81892857D01*
X88285714Y-82035714D01*
X88238095Y-82130952D01*
X88190476Y-82178571D01*
X88095238Y-82226190D01*
X87714285Y-82226190D01*
X88666666Y-82654761D02*
X88809523Y-82702380D01*
X89047619Y-82702380D01*
X89142857Y-82654761D01*
X89190476Y-82607142D01*
X89238095Y-82511904D01*
X89238095Y-82416666D01*
X89190476Y-82321428D01*
X89142857Y-82273809D01*
X89047619Y-82226190D01*
X88857142Y-82178571D01*
X88761904Y-82130952D01*
X88714285Y-82083333D01*
X88666666Y-81988095D01*
X88666666Y-81892857D01*
X88714285Y-81797619D01*
X88761904Y-81750000D01*
X88857142Y-81702380D01*
X89095238Y-81702380D01*
X89238095Y-81750000D01*
X89428571Y-82797619D02*
X90190476Y-82797619D01*
X90428571Y-82702380D02*
X90428571Y-81702380D01*
X90761904Y-82416666D01*
X91095238Y-81702380D01*
X91095238Y-82702380D01*
X92142857Y-82607142D02*
X92095238Y-82654761D01*
X91952380Y-82702380D01*
X91857142Y-82702380D01*
X91714285Y-82654761D01*
X91619047Y-82559523D01*
X91571428Y-82464285D01*
X91523809Y-82273809D01*
X91523809Y-82130952D01*
X91571428Y-81940476D01*
X91619047Y-81845238D01*
X91714285Y-81750000D01*
X91857142Y-81702380D01*
X91952380Y-81702380D01*
X92095238Y-81750000D01*
X92142857Y-81797619D01*
X92571428Y-82702380D02*
X92571428Y-81702380D01*
X92952380Y-81702380D01*
X93047619Y-81750000D01*
X93095238Y-81797619D01*
X93142857Y-81892857D01*
X93142857Y-82035714D01*
X93095238Y-82130952D01*
X93047619Y-82178571D01*
X92952380Y-82226190D01*
X92571428Y-82226190D01*
X93523809Y-81797619D02*
X93571428Y-81750000D01*
X93666666Y-81702380D01*
X93904761Y-81702380D01*
X94000000Y-81750000D01*
X94047619Y-81797619D01*
X94095238Y-81892857D01*
X94095238Y-81988095D01*
X94047619Y-82130952D01*
X93476190Y-82702380D01*
X94095238Y-82702380D01*
X86773809Y-76452380D02*
X86440476Y-75976190D01*
X86202380Y-76452380D02*
X86202380Y-75452380D01*
X86583333Y-75452380D01*
X86678571Y-75500000D01*
X86726190Y-75547619D01*
X86773809Y-75642857D01*
X86773809Y-75785714D01*
X86726190Y-75880952D01*
X86678571Y-75928571D01*
X86583333Y-75976190D01*
X86202380Y-75976190D01*
X86964285Y-76547619D02*
X87726190Y-76547619D01*
X88535714Y-76452380D02*
X88202380Y-75976190D01*
X87964285Y-76452380D02*
X87964285Y-75452380D01*
X88345238Y-75452380D01*
X88440476Y-75500000D01*
X88488095Y-75547619D01*
X88535714Y-75642857D01*
X88535714Y-75785714D01*
X88488095Y-75880952D01*
X88440476Y-75928571D01*
X88345238Y-75976190D01*
X87964285Y-75976190D01*
X88916666Y-76404761D02*
X89059523Y-76452380D01*
X89297619Y-76452380D01*
X89392857Y-76404761D01*
X89440476Y-76357142D01*
X89488095Y-76261904D01*
X89488095Y-76166666D01*
X89440476Y-76071428D01*
X89392857Y-76023809D01*
X89297619Y-75976190D01*
X89107142Y-75928571D01*
X89011904Y-75880952D01*
X88964285Y-75833333D01*
X88916666Y-75738095D01*
X88916666Y-75642857D01*
X88964285Y-75547619D01*
X89011904Y-75500000D01*
X89107142Y-75452380D01*
X89345238Y-75452380D01*
X89488095Y-75500000D01*
X89678571Y-76547619D02*
X90440476Y-76547619D01*
X90678571Y-76452380D02*
X90678571Y-75452380D01*
X91011904Y-76166666D01*
X91345238Y-75452380D01*
X91345238Y-76452380D01*
X92392857Y-76357142D02*
X92345238Y-76404761D01*
X92202380Y-76452380D01*
X92107142Y-76452380D01*
X91964285Y-76404761D01*
X91869047Y-76309523D01*
X91821428Y-76214285D01*
X91773809Y-76023809D01*
X91773809Y-75880952D01*
X91821428Y-75690476D01*
X91869047Y-75595238D01*
X91964285Y-75500000D01*
X92107142Y-75452380D01*
X92202380Y-75452380D01*
X92345238Y-75500000D01*
X92392857Y-75547619D01*
X92821428Y-76452380D02*
X92821428Y-75452380D01*
X93202380Y-75452380D01*
X93297619Y-75500000D01*
X93345238Y-75547619D01*
X93392857Y-75642857D01*
X93392857Y-75785714D01*
X93345238Y-75880952D01*
X93297619Y-75928571D01*
X93202380Y-75976190D01*
X92821428Y-75976190D01*
X94345238Y-76452380D02*
X93773809Y-76452380D01*
X94059523Y-76452380D02*
X94059523Y-75452380D01*
X93964285Y-75595238D01*
X93869047Y-75690476D01*
X93773809Y-75738095D01*
X97022380Y-78476190D02*
X96546190Y-78809523D01*
X97022380Y-79047619D02*
X96022380Y-79047619D01*
X96022380Y-78666666D01*
X96070000Y-78571428D01*
X96117619Y-78523809D01*
X96212857Y-78476190D01*
X96355714Y-78476190D01*
X96450952Y-78523809D01*
X96498571Y-78571428D01*
X96546190Y-78666666D01*
X96546190Y-79047619D01*
X97117619Y-78285714D02*
X97117619Y-77523809D01*
X97022380Y-76714285D02*
X96546190Y-77047619D01*
X97022380Y-77285714D02*
X96022380Y-77285714D01*
X96022380Y-76904761D01*
X96070000Y-76809523D01*
X96117619Y-76761904D01*
X96212857Y-76714285D01*
X96355714Y-76714285D01*
X96450952Y-76761904D01*
X96498571Y-76809523D01*
X96546190Y-76904761D01*
X96546190Y-77285714D01*
X96498571Y-76285714D02*
X96498571Y-75952380D01*
X97022380Y-75809523D02*
X97022380Y-76285714D01*
X96022380Y-76285714D01*
X96022380Y-75809523D01*
X96974761Y-75428571D02*
X97022380Y-75285714D01*
X97022380Y-75047619D01*
X96974761Y-74952380D01*
X96927142Y-74904761D01*
X96831904Y-74857142D01*
X96736666Y-74857142D01*
X96641428Y-74904761D01*
X96593809Y-74952380D01*
X96546190Y-75047619D01*
X96498571Y-75238095D01*
X96450952Y-75333333D01*
X96403333Y-75380952D01*
X96308095Y-75428571D01*
X96212857Y-75428571D01*
X96117619Y-75380952D01*
X96070000Y-75333333D01*
X96022380Y-75238095D01*
X96022380Y-75000000D01*
X96070000Y-74857142D01*
X97022380Y-73904761D02*
X97022380Y-74476190D01*
X97022380Y-74190476D02*
X96022380Y-74190476D01*
X96165238Y-74285714D01*
X96260476Y-74380952D01*
X96308095Y-74476190D01*
X109702380Y-52000000D02*
X109226190Y-52333333D01*
X109702380Y-52571428D02*
X108702380Y-52571428D01*
X108702380Y-52190476D01*
X108750000Y-52095238D01*
X108797619Y-52047619D01*
X108892857Y-52000000D01*
X109035714Y-52000000D01*
X109130952Y-52047619D01*
X109178571Y-52095238D01*
X109226190Y-52190476D01*
X109226190Y-52571428D01*
X109797619Y-51809523D02*
X109797619Y-51047619D01*
X109607142Y-50238095D02*
X109654761Y-50285714D01*
X109702380Y-50428571D01*
X109702380Y-50523809D01*
X109654761Y-50666666D01*
X109559523Y-50761904D01*
X109464285Y-50809523D01*
X109273809Y-50857142D01*
X109130952Y-50857142D01*
X108940476Y-50809523D01*
X108845238Y-50761904D01*
X108750000Y-50666666D01*
X108702380Y-50523809D01*
X108702380Y-50428571D01*
X108750000Y-50285714D01*
X108797619Y-50238095D01*
X109416666Y-49857142D02*
X109416666Y-49380952D01*
X109702380Y-49952380D02*
X108702380Y-49619047D01*
X109702380Y-49285714D01*
X109702380Y-48952380D02*
X108702380Y-48952380D01*
X109702380Y-48380952D01*
X108702380Y-48380952D01*
X108702380Y-48000000D02*
X108702380Y-47380952D01*
X109083333Y-47714285D01*
X109083333Y-47571428D01*
X109130952Y-47476190D01*
X109178571Y-47428571D01*
X109273809Y-47380952D01*
X109511904Y-47380952D01*
X109607142Y-47428571D01*
X109654761Y-47476190D01*
X109702380Y-47571428D01*
X109702380Y-47857142D01*
X109654761Y-47952380D01*
X109607142Y-48000000D01*
X96022380Y-52000000D02*
X95546190Y-52333333D01*
X96022380Y-52571428D02*
X95022380Y-52571428D01*
X95022380Y-52190476D01*
X95070000Y-52095238D01*
X95117619Y-52047619D01*
X95212857Y-52000000D01*
X95355714Y-52000000D01*
X95450952Y-52047619D01*
X95498571Y-52095238D01*
X95546190Y-52190476D01*
X95546190Y-52571428D01*
X96117619Y-51809523D02*
X96117619Y-51047619D01*
X95927142Y-50238095D02*
X95974761Y-50285714D01*
X96022380Y-50428571D01*
X96022380Y-50523809D01*
X95974761Y-50666666D01*
X95879523Y-50761904D01*
X95784285Y-50809523D01*
X95593809Y-50857142D01*
X95450952Y-50857142D01*
X95260476Y-50809523D01*
X95165238Y-50761904D01*
X95070000Y-50666666D01*
X95022380Y-50523809D01*
X95022380Y-50428571D01*
X95070000Y-50285714D01*
X95117619Y-50238095D01*
X95736666Y-49857142D02*
X95736666Y-49380952D01*
X96022380Y-49952380D02*
X95022380Y-49619047D01*
X96022380Y-49285714D01*
X96022380Y-48952380D02*
X95022380Y-48952380D01*
X96022380Y-48380952D01*
X95022380Y-48380952D01*
X95117619Y-47952380D02*
X95070000Y-47904761D01*
X95022380Y-47809523D01*
X95022380Y-47571428D01*
X95070000Y-47476190D01*
X95117619Y-47428571D01*
X95212857Y-47380952D01*
X95308095Y-47380952D01*
X95450952Y-47428571D01*
X96022380Y-48000000D01*
X96022380Y-47380952D01*
X82022380Y-52000000D02*
X81546190Y-52333333D01*
X82022380Y-52571428D02*
X81022380Y-52571428D01*
X81022380Y-52190476D01*
X81070000Y-52095238D01*
X81117619Y-52047619D01*
X81212857Y-52000000D01*
X81355714Y-52000000D01*
X81450952Y-52047619D01*
X81498571Y-52095238D01*
X81546190Y-52190476D01*
X81546190Y-52571428D01*
X82117619Y-51809523D02*
X82117619Y-51047619D01*
X81927142Y-50238095D02*
X81974761Y-50285714D01*
X82022380Y-50428571D01*
X82022380Y-50523809D01*
X81974761Y-50666666D01*
X81879523Y-50761904D01*
X81784285Y-50809523D01*
X81593809Y-50857142D01*
X81450952Y-50857142D01*
X81260476Y-50809523D01*
X81165238Y-50761904D01*
X81070000Y-50666666D01*
X81022380Y-50523809D01*
X81022380Y-50428571D01*
X81070000Y-50285714D01*
X81117619Y-50238095D01*
X81736666Y-49857142D02*
X81736666Y-49380952D01*
X82022380Y-49952380D02*
X81022380Y-49619047D01*
X82022380Y-49285714D01*
X82022380Y-48952380D02*
X81022380Y-48952380D01*
X82022380Y-48380952D01*
X81022380Y-48380952D01*
X82022380Y-47380952D02*
X82022380Y-47952380D01*
X82022380Y-47666666D02*
X81022380Y-47666666D01*
X81165238Y-47761904D01*
X81260476Y-47857142D01*
X81308095Y-47952380D01*
X106642357Y-98882380D02*
X106309023Y-98406190D01*
X106070928Y-98882380D02*
X106070928Y-97882380D01*
X106451880Y-97882380D01*
X106547119Y-97930000D01*
X106594738Y-97977619D01*
X106642357Y-98072857D01*
X106642357Y-98215714D01*
X106594738Y-98310952D01*
X106547119Y-98358571D01*
X106451880Y-98406190D01*
X106070928Y-98406190D01*
X106832833Y-98977619D02*
X107594738Y-98977619D01*
X108166166Y-98358571D02*
X108309023Y-98406190D01*
X108356642Y-98453809D01*
X108404261Y-98549047D01*
X108404261Y-98691904D01*
X108356642Y-98787142D01*
X108309023Y-98834761D01*
X108213785Y-98882380D01*
X107832833Y-98882380D01*
X107832833Y-97882380D01*
X108166166Y-97882380D01*
X108261404Y-97930000D01*
X108309023Y-97977619D01*
X108356642Y-98072857D01*
X108356642Y-98168095D01*
X108309023Y-98263333D01*
X108261404Y-98310952D01*
X108166166Y-98358571D01*
X107832833Y-98358571D01*
X109023309Y-97882380D02*
X109213785Y-97882380D01*
X109309023Y-97930000D01*
X109404261Y-98025238D01*
X109451880Y-98215714D01*
X109451880Y-98549047D01*
X109404261Y-98739523D01*
X109309023Y-98834761D01*
X109213785Y-98882380D01*
X109023309Y-98882380D01*
X108928071Y-98834761D01*
X108832833Y-98739523D01*
X108785214Y-98549047D01*
X108785214Y-98215714D01*
X108832833Y-98025238D01*
X108928071Y-97930000D01*
X109023309Y-97882380D01*
X110070928Y-97882380D02*
X110261404Y-97882380D01*
X110356642Y-97930000D01*
X110451880Y-98025238D01*
X110499500Y-98215714D01*
X110499500Y-98549047D01*
X110451880Y-98739523D01*
X110356642Y-98834761D01*
X110261404Y-98882380D01*
X110070928Y-98882380D01*
X109975690Y-98834761D01*
X109880452Y-98739523D01*
X109832833Y-98549047D01*
X109832833Y-98215714D01*
X109880452Y-98025238D01*
X109975690Y-97930000D01*
X110070928Y-97882380D01*
X110785214Y-97882380D02*
X111356642Y-97882380D01*
X111070928Y-98882380D02*
X111070928Y-97882380D01*
X111451880Y-98977619D02*
X112213785Y-98977619D01*
X112975690Y-98882380D02*
X112404261Y-98882380D01*
X112689976Y-98882380D02*
X112689976Y-97882380D01*
X112594738Y-98025238D01*
X112499500Y-98120476D01*
X112404261Y-98168095D01*
X102392857Y-74952380D02*
X102059523Y-74476190D01*
X101821428Y-74952380D02*
X101821428Y-73952380D01*
X102202380Y-73952380D01*
X102297619Y-74000000D01*
X102345238Y-74047619D01*
X102392857Y-74142857D01*
X102392857Y-74285714D01*
X102345238Y-74380952D01*
X102297619Y-74428571D01*
X102202380Y-74476190D01*
X101821428Y-74476190D01*
X102583333Y-75047619D02*
X103345238Y-75047619D01*
X103916666Y-74428571D02*
X104059523Y-74476190D01*
X104107142Y-74523809D01*
X104154761Y-74619047D01*
X104154761Y-74761904D01*
X104107142Y-74857142D01*
X104059523Y-74904761D01*
X103964285Y-74952380D01*
X103583333Y-74952380D01*
X103583333Y-73952380D01*
X103916666Y-73952380D01*
X104011904Y-74000000D01*
X104059523Y-74047619D01*
X104107142Y-74142857D01*
X104107142Y-74238095D01*
X104059523Y-74333333D01*
X104011904Y-74380952D01*
X103916666Y-74428571D01*
X103583333Y-74428571D01*
X104773809Y-73952380D02*
X104964285Y-73952380D01*
X105059523Y-74000000D01*
X105154761Y-74095238D01*
X105202380Y-74285714D01*
X105202380Y-74619047D01*
X105154761Y-74809523D01*
X105059523Y-74904761D01*
X104964285Y-74952380D01*
X104773809Y-74952380D01*
X104678571Y-74904761D01*
X104583333Y-74809523D01*
X104535714Y-74619047D01*
X104535714Y-74285714D01*
X104583333Y-74095238D01*
X104678571Y-74000000D01*
X104773809Y-73952380D01*
X105821428Y-73952380D02*
X106011904Y-73952380D01*
X106107142Y-74000000D01*
X106202380Y-74095238D01*
X106250000Y-74285714D01*
X106250000Y-74619047D01*
X106202380Y-74809523D01*
X106107142Y-74904761D01*
X106011904Y-74952380D01*
X105821428Y-74952380D01*
X105726190Y-74904761D01*
X105630952Y-74809523D01*
X105583333Y-74619047D01*
X105583333Y-74285714D01*
X105630952Y-74095238D01*
X105726190Y-74000000D01*
X105821428Y-73952380D01*
X106535714Y-73952380D02*
X107107142Y-73952380D01*
X106821428Y-74952380D02*
X106821428Y-73952380D01*
X107202380Y-75047619D02*
X107964285Y-75047619D01*
X108392857Y-73952380D02*
X108488095Y-73952380D01*
X108583333Y-74000000D01*
X108630952Y-74047619D01*
X108678571Y-74142857D01*
X108726190Y-74333333D01*
X108726190Y-74571428D01*
X108678571Y-74761904D01*
X108630952Y-74857142D01*
X108583333Y-74904761D01*
X108488095Y-74952380D01*
X108392857Y-74952380D01*
X108297619Y-74904761D01*
X108250000Y-74857142D01*
X108202380Y-74761904D01*
X108154761Y-74571428D01*
X108154761Y-74333333D01*
X108202380Y-74142857D01*
X108250000Y-74047619D01*
X108297619Y-74000000D01*
X108392857Y-73952380D01*
X115452380Y-78571428D02*
X116166666Y-78571428D01*
X116309523Y-78619047D01*
X116404761Y-78714285D01*
X116452380Y-78857142D01*
X116452380Y-78952380D01*
X116547619Y-78333333D02*
X116547619Y-77571428D01*
X116404761Y-77380952D02*
X116452380Y-77238095D01*
X116452380Y-77000000D01*
X116404761Y-76904761D01*
X116357142Y-76857142D01*
X116261904Y-76809523D01*
X116166666Y-76809523D01*
X116071428Y-76857142D01*
X116023809Y-76904761D01*
X115976190Y-77000000D01*
X115928571Y-77190476D01*
X115880952Y-77285714D01*
X115833333Y-77333333D01*
X115738095Y-77380952D01*
X115642857Y-77380952D01*
X115547619Y-77333333D01*
X115500000Y-77285714D01*
X115452380Y-77190476D01*
X115452380Y-76952380D01*
X115500000Y-76809523D01*
X115452380Y-76523809D02*
X115452380Y-75952380D01*
X116452380Y-76238095D02*
X115452380Y-76238095D01*
X116452380Y-75619047D02*
X115452380Y-75619047D01*
X115452380Y-75380952D01*
X115500000Y-75238095D01*
X115595238Y-75142857D01*
X115690476Y-75095238D01*
X115880952Y-75047619D01*
X116023809Y-75047619D01*
X116214285Y-75095238D01*
X116309523Y-75142857D01*
X116404761Y-75238095D01*
X116452380Y-75380952D01*
X116452380Y-75619047D01*
X116357142Y-74047619D02*
X116404761Y-74095238D01*
X116452380Y-74238095D01*
X116452380Y-74333333D01*
X116404761Y-74476190D01*
X116309523Y-74571428D01*
X116214285Y-74619047D01*
X116023809Y-74666666D01*
X115880952Y-74666666D01*
X115690476Y-74619047D01*
X115595238Y-74571428D01*
X115500000Y-74476190D01*
X115452380Y-74333333D01*
X115452380Y-74238095D01*
X115500000Y-74095238D01*
X115547619Y-74047619D01*
X116452380Y-73095238D02*
X116452380Y-73666666D01*
X116452380Y-73380952D02*
X115452380Y-73380952D01*
X115595238Y-73476190D01*
X115690476Y-73571428D01*
X115738095Y-73666666D01*
X123552380Y-78904761D02*
X124266666Y-78904761D01*
X124409523Y-78952380D01*
X124504761Y-79047619D01*
X124552380Y-79190476D01*
X124552380Y-79285714D01*
X124647619Y-78666666D02*
X124647619Y-77904761D01*
X124552380Y-77666666D02*
X123552380Y-77666666D01*
X124552380Y-77190476D02*
X123552380Y-77190476D01*
X124552380Y-76619047D01*
X123552380Y-76619047D01*
X123552380Y-75952380D02*
X123552380Y-75761904D01*
X123600000Y-75666666D01*
X123695238Y-75571428D01*
X123885714Y-75523809D01*
X124219047Y-75523809D01*
X124409523Y-75571428D01*
X124504761Y-75666666D01*
X124552380Y-75761904D01*
X124552380Y-75952380D01*
X124504761Y-76047619D01*
X124409523Y-76142857D01*
X124219047Y-76190476D01*
X123885714Y-76190476D01*
X123695238Y-76142857D01*
X123600000Y-76047619D01*
X123552380Y-75952380D01*
X123552380Y-75095238D02*
X124361904Y-75095238D01*
X124457142Y-75047619D01*
X124504761Y-75000000D01*
X124552380Y-74904761D01*
X124552380Y-74714285D01*
X124504761Y-74619047D01*
X124457142Y-74571428D01*
X124361904Y-74523809D01*
X123552380Y-74523809D01*
X123552380Y-74190476D02*
X123552380Y-73619047D01*
X124552380Y-73904761D02*
X123552380Y-73904761D01*
X123647619Y-73333333D02*
X123600000Y-73285714D01*
X123552380Y-73190476D01*
X123552380Y-72952380D01*
X123600000Y-72857142D01*
X123647619Y-72809523D01*
X123742857Y-72761904D01*
X123838095Y-72761904D01*
X123980952Y-72809523D01*
X124552380Y-73380952D01*
X124552380Y-72761904D01*
X122952380Y-52904761D02*
X123666666Y-52904761D01*
X123809523Y-52952380D01*
X123904761Y-53047619D01*
X123952380Y-53190476D01*
X123952380Y-53285714D01*
X124047619Y-52666666D02*
X124047619Y-51904761D01*
X123952380Y-51666666D02*
X122952380Y-51666666D01*
X123952380Y-51190476D02*
X122952380Y-51190476D01*
X123952380Y-50619047D01*
X122952380Y-50619047D01*
X122952380Y-49952380D02*
X122952380Y-49761904D01*
X123000000Y-49666666D01*
X123095238Y-49571428D01*
X123285714Y-49523809D01*
X123619047Y-49523809D01*
X123809523Y-49571428D01*
X123904761Y-49666666D01*
X123952380Y-49761904D01*
X123952380Y-49952380D01*
X123904761Y-50047619D01*
X123809523Y-50142857D01*
X123619047Y-50190476D01*
X123285714Y-50190476D01*
X123095238Y-50142857D01*
X123000000Y-50047619D01*
X122952380Y-49952380D01*
X122952380Y-49095238D02*
X123761904Y-49095238D01*
X123857142Y-49047619D01*
X123904761Y-49000000D01*
X123952380Y-48904761D01*
X123952380Y-48714285D01*
X123904761Y-48619047D01*
X123857142Y-48571428D01*
X123761904Y-48523809D01*
X122952380Y-48523809D01*
X122952380Y-48190476D02*
X122952380Y-47619047D01*
X123952380Y-47904761D02*
X122952380Y-47904761D01*
X123952380Y-46761904D02*
X123952380Y-47333333D01*
X123952380Y-47047619D02*
X122952380Y-47047619D01*
X123095238Y-47142857D01*
X123190476Y-47238095D01*
X123238095Y-47333333D01*
X76576190Y-103252380D02*
X76576190Y-103966666D01*
X76528571Y-104109523D01*
X76433333Y-104204761D01*
X76290476Y-104252380D01*
X76195238Y-104252380D01*
X76814285Y-104347619D02*
X77576190Y-104347619D01*
X77814285Y-104252380D02*
X77814285Y-103252380D01*
X78242857Y-103347619D02*
X78290476Y-103300000D01*
X78385714Y-103252380D01*
X78623809Y-103252380D01*
X78719047Y-103300000D01*
X78766666Y-103347619D01*
X78814285Y-103442857D01*
X78814285Y-103538095D01*
X78766666Y-103680952D01*
X78195238Y-104252380D01*
X78814285Y-104252380D01*
X79814285Y-104157142D02*
X79766666Y-104204761D01*
X79623809Y-104252380D01*
X79528571Y-104252380D01*
X79385714Y-104204761D01*
X79290476Y-104109523D01*
X79242857Y-104014285D01*
X79195238Y-103823809D01*
X79195238Y-103680952D01*
X79242857Y-103490476D01*
X79290476Y-103395238D01*
X79385714Y-103300000D01*
X79528571Y-103252380D01*
X79623809Y-103252380D01*
X79766666Y-103300000D01*
X79814285Y-103347619D01*
X80004761Y-104347619D02*
X80766666Y-104347619D01*
X81004761Y-104252380D02*
X81004761Y-103252380D01*
X81242857Y-103252380D01*
X81385714Y-103300000D01*
X81480952Y-103395238D01*
X81528571Y-103490476D01*
X81576190Y-103680952D01*
X81576190Y-103823809D01*
X81528571Y-104014285D01*
X81480952Y-104109523D01*
X81385714Y-104204761D01*
X81242857Y-104252380D01*
X81004761Y-104252380D01*
X82004761Y-104252380D02*
X82004761Y-103252380D01*
X82433333Y-104204761D02*
X82576190Y-104252380D01*
X82814285Y-104252380D01*
X82909523Y-104204761D01*
X82957142Y-104157142D01*
X83004761Y-104061904D01*
X83004761Y-103966666D01*
X82957142Y-103871428D01*
X82909523Y-103823809D01*
X82814285Y-103776190D01*
X82623809Y-103728571D01*
X82528571Y-103680952D01*
X82480952Y-103633333D01*
X82433333Y-103538095D01*
X82433333Y-103442857D01*
X82480952Y-103347619D01*
X82528571Y-103300000D01*
X82623809Y-103252380D01*
X82861904Y-103252380D01*
X83004761Y-103300000D01*
X83433333Y-104252380D02*
X83433333Y-103252380D01*
X83814285Y-103252380D01*
X83909523Y-103300000D01*
X83957142Y-103347619D01*
X84004761Y-103442857D01*
X84004761Y-103585714D01*
X83957142Y-103680952D01*
X83909523Y-103728571D01*
X83814285Y-103776190D01*
X83433333Y-103776190D01*
X84957142Y-104252380D02*
X84385714Y-104252380D01*
X84671428Y-104252380D02*
X84671428Y-103252380D01*
X84576190Y-103395238D01*
X84480952Y-103490476D01*
X84385714Y-103538095D01*
X109952380Y-37797619D02*
X110666666Y-37797619D01*
X110809523Y-37845238D01*
X110904761Y-37940476D01*
X110952380Y-38083333D01*
X110952380Y-38178571D01*
X111047619Y-37559523D02*
X111047619Y-36797619D01*
X110857142Y-35988095D02*
X110904761Y-36035714D01*
X110952380Y-36178571D01*
X110952380Y-36273809D01*
X110904761Y-36416666D01*
X110809523Y-36511904D01*
X110714285Y-36559523D01*
X110523809Y-36607142D01*
X110380952Y-36607142D01*
X110190476Y-36559523D01*
X110095238Y-36511904D01*
X110000000Y-36416666D01*
X109952380Y-36273809D01*
X109952380Y-36178571D01*
X110000000Y-36035714D01*
X110047619Y-35988095D01*
X110666666Y-35607142D02*
X110666666Y-35130952D01*
X110952380Y-35702380D02*
X109952380Y-35369047D01*
X110952380Y-35035714D01*
X110952380Y-34702380D02*
X109952380Y-34702380D01*
X110952380Y-34130952D01*
X109952380Y-34130952D01*
X111047619Y-33892857D02*
X111047619Y-33130952D01*
X109952380Y-32988095D02*
X109952380Y-32369047D01*
X110333333Y-32702380D01*
X110333333Y-32559523D01*
X110380952Y-32464285D01*
X110428571Y-32416666D01*
X110523809Y-32369047D01*
X110761904Y-32369047D01*
X110857142Y-32416666D01*
X110904761Y-32464285D01*
X110952380Y-32559523D01*
X110952380Y-32845238D01*
X110904761Y-32940476D01*
X110857142Y-32988095D01*
X95702380Y-38297619D02*
X96416666Y-38297619D01*
X96559523Y-38345238D01*
X96654761Y-38440476D01*
X96702380Y-38583333D01*
X96702380Y-38678571D01*
X96797619Y-38059523D02*
X96797619Y-37297619D01*
X96607142Y-36488095D02*
X96654761Y-36535714D01*
X96702380Y-36678571D01*
X96702380Y-36773809D01*
X96654761Y-36916666D01*
X96559523Y-37011904D01*
X96464285Y-37059523D01*
X96273809Y-37107142D01*
X96130952Y-37107142D01*
X95940476Y-37059523D01*
X95845238Y-37011904D01*
X95750000Y-36916666D01*
X95702380Y-36773809D01*
X95702380Y-36678571D01*
X95750000Y-36535714D01*
X95797619Y-36488095D01*
X96416666Y-36107142D02*
X96416666Y-35630952D01*
X96702380Y-36202380D02*
X95702380Y-35869047D01*
X96702380Y-35535714D01*
X96702380Y-35202380D02*
X95702380Y-35202380D01*
X96702380Y-34630952D01*
X95702380Y-34630952D01*
X96797619Y-34392857D02*
X96797619Y-33630952D01*
X95797619Y-33440476D02*
X95750000Y-33392857D01*
X95702380Y-33297619D01*
X95702380Y-33059523D01*
X95750000Y-32964285D01*
X95797619Y-32916666D01*
X95892857Y-32869047D01*
X95988095Y-32869047D01*
X96130952Y-32916666D01*
X96702380Y-33488095D01*
X96702380Y-32869047D01*
X81702380Y-38297619D02*
X82416666Y-38297619D01*
X82559523Y-38345238D01*
X82654761Y-38440476D01*
X82702380Y-38583333D01*
X82702380Y-38678571D01*
X82797619Y-38059523D02*
X82797619Y-37297619D01*
X82607142Y-36488095D02*
X82654761Y-36535714D01*
X82702380Y-36678571D01*
X82702380Y-36773809D01*
X82654761Y-36916666D01*
X82559523Y-37011904D01*
X82464285Y-37059523D01*
X82273809Y-37107142D01*
X82130952Y-37107142D01*
X81940476Y-37059523D01*
X81845238Y-37011904D01*
X81750000Y-36916666D01*
X81702380Y-36773809D01*
X81702380Y-36678571D01*
X81750000Y-36535714D01*
X81797619Y-36488095D01*
X82416666Y-36107142D02*
X82416666Y-35630952D01*
X82702380Y-36202380D02*
X81702380Y-35869047D01*
X82702380Y-35535714D01*
X82702380Y-35202380D02*
X81702380Y-35202380D01*
X82702380Y-34630952D01*
X81702380Y-34630952D01*
X82797619Y-34392857D02*
X82797619Y-33630952D01*
X82702380Y-32869047D02*
X82702380Y-33440476D01*
X82702380Y-33154761D02*
X81702380Y-33154761D01*
X81845238Y-33250000D01*
X81940476Y-33345238D01*
X81988095Y-33440476D01*
X61552380Y-36780952D02*
X62266666Y-36780952D01*
X62409523Y-36828571D01*
X62504761Y-36923809D01*
X62552380Y-37066666D01*
X62552380Y-37161904D01*
X62647619Y-36542857D02*
X62647619Y-35780952D01*
X62266666Y-35590476D02*
X62266666Y-35114285D01*
X62552380Y-35685714D02*
X61552380Y-35352380D01*
X62552380Y-35019047D01*
X62457142Y-34114285D02*
X62504761Y-34161904D01*
X62552380Y-34304761D01*
X62552380Y-34400000D01*
X62504761Y-34542857D01*
X62409523Y-34638095D01*
X62314285Y-34685714D01*
X62123809Y-34733333D01*
X61980952Y-34733333D01*
X61790476Y-34685714D01*
X61695238Y-34638095D01*
X61600000Y-34542857D01*
X61552380Y-34400000D01*
X61552380Y-34304761D01*
X61600000Y-34161904D01*
X61647619Y-34114285D01*
X61552380Y-33828571D02*
X61552380Y-33257142D01*
X62552380Y-33542857D02*
X61552380Y-33542857D01*
X61552380Y-32923809D02*
X62361904Y-32923809D01*
X62457142Y-32876190D01*
X62504761Y-32828571D01*
X62552380Y-32733333D01*
X62552380Y-32542857D01*
X62504761Y-32447619D01*
X62457142Y-32400000D01*
X62361904Y-32352380D01*
X61552380Y-32352380D01*
X62266666Y-31923809D02*
X62266666Y-31447619D01*
X62552380Y-32019047D02*
X61552380Y-31685714D01*
X62552380Y-31352380D01*
X61552380Y-31161904D02*
X61552380Y-30590476D01*
X62552380Y-30876190D02*
X61552380Y-30876190D01*
X61552380Y-30066666D02*
X61552380Y-29876190D01*
X61600000Y-29780952D01*
X61695238Y-29685714D01*
X61885714Y-29638095D01*
X62219047Y-29638095D01*
X62409523Y-29685714D01*
X62504761Y-29780952D01*
X62552380Y-29876190D01*
X62552380Y-30066666D01*
X62504761Y-30161904D01*
X62409523Y-30257142D01*
X62219047Y-30304761D01*
X61885714Y-30304761D01*
X61695238Y-30257142D01*
X61600000Y-30161904D01*
X61552380Y-30066666D01*
X62552380Y-28638095D02*
X62076190Y-28971428D01*
X62552380Y-29209523D02*
X61552380Y-29209523D01*
X61552380Y-28828571D01*
X61600000Y-28733333D01*
X61647619Y-28685714D01*
X61742857Y-28638095D01*
X61885714Y-28638095D01*
X61980952Y-28685714D01*
X62028571Y-28733333D01*
X62076190Y-28828571D01*
X62076190Y-29209523D01*
X62552380Y-27685714D02*
X62552380Y-28257142D01*
X62552380Y-27971428D02*
X61552380Y-27971428D01*
X61695238Y-28066666D01*
X61790476Y-28161904D01*
X61838095Y-28257142D01*
X112652380Y-106571428D02*
X111652380Y-106571428D01*
X111652380Y-106333333D01*
X111700000Y-106190476D01*
X111795238Y-106095238D01*
X111890476Y-106047619D01*
X112080952Y-106000000D01*
X112223809Y-106000000D01*
X112414285Y-106047619D01*
X112509523Y-106095238D01*
X112604761Y-106190476D01*
X112652380Y-106333333D01*
X112652380Y-106571428D01*
X112747619Y-105809523D02*
X112747619Y-105047619D01*
X112652380Y-104238095D02*
X112176190Y-104571428D01*
X112652380Y-104809523D02*
X111652380Y-104809523D01*
X111652380Y-104428571D01*
X111700000Y-104333333D01*
X111747619Y-104285714D01*
X111842857Y-104238095D01*
X111985714Y-104238095D01*
X112080952Y-104285714D01*
X112128571Y-104333333D01*
X112176190Y-104428571D01*
X112176190Y-104809523D01*
X112128571Y-103809523D02*
X112128571Y-103476190D01*
X112652380Y-103333333D02*
X112652380Y-103809523D01*
X111652380Y-103809523D01*
X111652380Y-103333333D01*
X112652380Y-102904761D02*
X111652380Y-102904761D01*
X111652380Y-102666666D01*
X111700000Y-102523809D01*
X111795238Y-102428571D01*
X111890476Y-102380952D01*
X112080952Y-102333333D01*
X112223809Y-102333333D01*
X112414285Y-102380952D01*
X112509523Y-102428571D01*
X112604761Y-102523809D01*
X112652380Y-102666666D01*
X112652380Y-102904761D01*
X112652380Y-101380952D02*
X112652380Y-101952380D01*
X112652380Y-101666666D02*
X111652380Y-101666666D01*
X111795238Y-101761904D01*
X111890476Y-101857142D01*
X111938095Y-101952380D01*
X106152380Y-108052380D02*
X106152380Y-107052380D01*
X106390476Y-107052380D01*
X106533333Y-107100000D01*
X106628571Y-107195238D01*
X106676190Y-107290476D01*
X106723809Y-107480952D01*
X106723809Y-107623809D01*
X106676190Y-107814285D01*
X106628571Y-107909523D01*
X106533333Y-108004761D01*
X106390476Y-108052380D01*
X106152380Y-108052380D01*
X106914285Y-108147619D02*
X107676190Y-108147619D01*
X108438095Y-107100000D02*
X108342857Y-107052380D01*
X108200000Y-107052380D01*
X108057142Y-107100000D01*
X107961904Y-107195238D01*
X107914285Y-107290476D01*
X107866666Y-107480952D01*
X107866666Y-107623809D01*
X107914285Y-107814285D01*
X107961904Y-107909523D01*
X108057142Y-108004761D01*
X108200000Y-108052380D01*
X108295238Y-108052380D01*
X108438095Y-108004761D01*
X108485714Y-107957142D01*
X108485714Y-107623809D01*
X108295238Y-107623809D01*
X109485714Y-108052380D02*
X109152380Y-107576190D01*
X108914285Y-108052380D02*
X108914285Y-107052380D01*
X109295238Y-107052380D01*
X109390476Y-107100000D01*
X109438095Y-107147619D01*
X109485714Y-107242857D01*
X109485714Y-107385714D01*
X109438095Y-107480952D01*
X109390476Y-107528571D01*
X109295238Y-107576190D01*
X108914285Y-107576190D01*
X109914285Y-107528571D02*
X110247619Y-107528571D01*
X110390476Y-108052380D02*
X109914285Y-108052380D01*
X109914285Y-107052380D01*
X110390476Y-107052380D01*
X110819047Y-107528571D02*
X111152380Y-107528571D01*
X111295238Y-108052380D02*
X110819047Y-108052380D01*
X110819047Y-107052380D01*
X111295238Y-107052380D01*
X111723809Y-108052380D02*
X111723809Y-107052380D01*
X112295238Y-108052380D01*
X112295238Y-107052380D01*
X113295238Y-108052380D02*
X112723809Y-108052380D01*
X113009523Y-108052380D02*
X113009523Y-107052380D01*
X112914285Y-107195238D01*
X112819047Y-107290476D01*
X112723809Y-107338095D01*
X104052380Y-108100000D02*
X103052380Y-108100000D01*
X103052380Y-107861904D01*
X103100000Y-107719047D01*
X103195238Y-107623809D01*
X103290476Y-107576190D01*
X103480952Y-107528571D01*
X103623809Y-107528571D01*
X103814285Y-107576190D01*
X103909523Y-107623809D01*
X104004761Y-107719047D01*
X104052380Y-107861904D01*
X104052380Y-108100000D01*
X104147619Y-107338095D02*
X104147619Y-106576190D01*
X103528571Y-106004761D02*
X103576190Y-105861904D01*
X103623809Y-105814285D01*
X103719047Y-105766666D01*
X103861904Y-105766666D01*
X103957142Y-105814285D01*
X104004761Y-105861904D01*
X104052380Y-105957142D01*
X104052380Y-106338095D01*
X103052380Y-106338095D01*
X103052380Y-106004761D01*
X103100000Y-105909523D01*
X103147619Y-105861904D01*
X103242857Y-105814285D01*
X103338095Y-105814285D01*
X103433333Y-105861904D01*
X103480952Y-105909523D01*
X103528571Y-106004761D01*
X103528571Y-106338095D01*
X104052380Y-104861904D02*
X104052380Y-105338095D01*
X103052380Y-105338095D01*
X103052380Y-104528571D02*
X103861904Y-104528571D01*
X103957142Y-104480952D01*
X104004761Y-104433333D01*
X104052380Y-104338095D01*
X104052380Y-104147619D01*
X104004761Y-104052380D01*
X103957142Y-104004761D01*
X103861904Y-103957142D01*
X103052380Y-103957142D01*
X103528571Y-103480952D02*
X103528571Y-103147619D01*
X104052380Y-103004761D02*
X104052380Y-103480952D01*
X103052380Y-103480952D01*
X103052380Y-103004761D01*
X104052380Y-102052380D02*
X104052380Y-102623809D01*
X104052380Y-102338095D02*
X103052380Y-102338095D01*
X103195238Y-102433333D01*
X103290476Y-102528571D01*
X103338095Y-102623809D01*
X66495238Y-87207142D02*
X66447619Y-87254761D01*
X66304761Y-87302380D01*
X66209523Y-87302380D01*
X66066666Y-87254761D01*
X65971428Y-87159523D01*
X65923809Y-87064285D01*
X65876190Y-86873809D01*
X65876190Y-86730952D01*
X65923809Y-86540476D01*
X65971428Y-86445238D01*
X66066666Y-86350000D01*
X66209523Y-86302380D01*
X66304761Y-86302380D01*
X66447619Y-86350000D01*
X66495238Y-86397619D01*
X66685714Y-87397619D02*
X67447619Y-87397619D01*
X67542857Y-86302380D02*
X67876190Y-87302380D01*
X68209523Y-86302380D01*
X68733333Y-86302380D02*
X68923809Y-86302380D01*
X69019047Y-86350000D01*
X69114285Y-86445238D01*
X69161904Y-86635714D01*
X69161904Y-86969047D01*
X69114285Y-87159523D01*
X69019047Y-87254761D01*
X68923809Y-87302380D01*
X68733333Y-87302380D01*
X68638095Y-87254761D01*
X68542857Y-87159523D01*
X68495238Y-86969047D01*
X68495238Y-86635714D01*
X68542857Y-86445238D01*
X68638095Y-86350000D01*
X68733333Y-86302380D01*
X69590476Y-86302380D02*
X69590476Y-87111904D01*
X69638095Y-87207142D01*
X69685714Y-87254761D01*
X69780952Y-87302380D01*
X69971428Y-87302380D01*
X70066666Y-87254761D01*
X70114285Y-87207142D01*
X70161904Y-87111904D01*
X70161904Y-86302380D01*
X70495238Y-86302380D02*
X71066666Y-86302380D01*
X70780952Y-87302380D02*
X70780952Y-86302380D01*
X71923809Y-87302380D02*
X71352380Y-87302380D01*
X71638095Y-87302380D02*
X71638095Y-86302380D01*
X71542857Y-86445238D01*
X71447619Y-86540476D01*
X71352380Y-86588095D01*
X74457142Y-105471428D02*
X74504761Y-105519047D01*
X74552380Y-105661904D01*
X74552380Y-105757142D01*
X74504761Y-105900000D01*
X74409523Y-105995238D01*
X74314285Y-106042857D01*
X74123809Y-106090476D01*
X73980952Y-106090476D01*
X73790476Y-106042857D01*
X73695238Y-105995238D01*
X73600000Y-105900000D01*
X73552380Y-105757142D01*
X73552380Y-105661904D01*
X73600000Y-105519047D01*
X73647619Y-105471428D01*
X74647619Y-105280952D02*
X74647619Y-104519047D01*
X73552380Y-104423809D02*
X74552380Y-104090476D01*
X73552380Y-103757142D01*
X74552380Y-103423809D02*
X73552380Y-103423809D01*
X74552380Y-102947619D02*
X73552380Y-102947619D01*
X74552380Y-102376190D01*
X73552380Y-102376190D01*
X73552380Y-101995238D02*
X73552380Y-101376190D01*
X73933333Y-101709523D01*
X73933333Y-101566666D01*
X73980952Y-101471428D01*
X74028571Y-101423809D01*
X74123809Y-101376190D01*
X74361904Y-101376190D01*
X74457142Y-101423809D01*
X74504761Y-101471428D01*
X74552380Y-101566666D01*
X74552380Y-101852380D01*
X74504761Y-101947619D01*
X74457142Y-101995238D01*
X73552380Y-101042857D02*
X73552380Y-100423809D01*
X73933333Y-100757142D01*
X73933333Y-100614285D01*
X73980952Y-100519047D01*
X74028571Y-100471428D01*
X74123809Y-100423809D01*
X74361904Y-100423809D01*
X74457142Y-100471428D01*
X74504761Y-100519047D01*
X74552380Y-100614285D01*
X74552380Y-100900000D01*
X74504761Y-100995238D01*
X74457142Y-101042857D01*
X74647619Y-100233333D02*
X74647619Y-99471428D01*
X73647619Y-99280952D02*
X73600000Y-99233333D01*
X73552380Y-99138095D01*
X73552380Y-98900000D01*
X73600000Y-98804761D01*
X73647619Y-98757142D01*
X73742857Y-98709523D01*
X73838095Y-98709523D01*
X73980952Y-98757142D01*
X74552380Y-99328571D01*
X74552380Y-98709523D01*
X58178571Y-104607142D02*
X58130952Y-104654761D01*
X57988095Y-104702380D01*
X57892857Y-104702380D01*
X57750000Y-104654761D01*
X57654761Y-104559523D01*
X57607142Y-104464285D01*
X57559523Y-104273809D01*
X57559523Y-104130952D01*
X57607142Y-103940476D01*
X57654761Y-103845238D01*
X57750000Y-103750000D01*
X57892857Y-103702380D01*
X57988095Y-103702380D01*
X58130952Y-103750000D01*
X58178571Y-103797619D01*
X58369047Y-104797619D02*
X59130952Y-104797619D01*
X59226190Y-103702380D02*
X59559523Y-104702380D01*
X59892857Y-103702380D01*
X60226190Y-104702380D02*
X60226190Y-103702380D01*
X60702380Y-104702380D02*
X60702380Y-103702380D01*
X61273809Y-104702380D01*
X61273809Y-103702380D01*
X61654761Y-103702380D02*
X62273809Y-103702380D01*
X61940476Y-104083333D01*
X62083333Y-104083333D01*
X62178571Y-104130952D01*
X62226190Y-104178571D01*
X62273809Y-104273809D01*
X62273809Y-104511904D01*
X62226190Y-104607142D01*
X62178571Y-104654761D01*
X62083333Y-104702380D01*
X61797619Y-104702380D01*
X61702380Y-104654761D01*
X61654761Y-104607142D01*
X62607142Y-103702380D02*
X63226190Y-103702380D01*
X62892857Y-104083333D01*
X63035714Y-104083333D01*
X63130952Y-104130952D01*
X63178571Y-104178571D01*
X63226190Y-104273809D01*
X63226190Y-104511904D01*
X63178571Y-104607142D01*
X63130952Y-104654761D01*
X63035714Y-104702380D01*
X62750000Y-104702380D01*
X62654761Y-104654761D01*
X62607142Y-104607142D01*
X63416666Y-104797619D02*
X64178571Y-104797619D01*
X64940476Y-104702380D02*
X64369047Y-104702380D01*
X64654761Y-104702380D02*
X64654761Y-103702380D01*
X64559523Y-103845238D01*
X64464285Y-103940476D01*
X64369047Y-103988095D01*
X60107142Y-97488095D02*
X60154761Y-97535714D01*
X60202380Y-97678571D01*
X60202380Y-97773809D01*
X60154761Y-97916666D01*
X60059523Y-98011904D01*
X59964285Y-98059523D01*
X59773809Y-98107142D01*
X59630952Y-98107142D01*
X59440476Y-98059523D01*
X59345238Y-98011904D01*
X59250000Y-97916666D01*
X59202380Y-97773809D01*
X59202380Y-97678571D01*
X59250000Y-97535714D01*
X59297619Y-97488095D01*
X60297619Y-97297619D02*
X60297619Y-96535714D01*
X59202380Y-96440476D02*
X60202380Y-96107142D01*
X59202380Y-95773809D01*
X60202380Y-95440476D02*
X59202380Y-95440476D01*
X60202380Y-94964285D02*
X59202380Y-94964285D01*
X60202380Y-94392857D01*
X59202380Y-94392857D01*
X60202380Y-93392857D02*
X60202380Y-93964285D01*
X60202380Y-93678571D02*
X59202380Y-93678571D01*
X59345238Y-93773809D01*
X59440476Y-93869047D01*
X59488095Y-93964285D01*
X117395238Y-86257142D02*
X117347619Y-86304761D01*
X117204761Y-86352380D01*
X117109523Y-86352380D01*
X116966666Y-86304761D01*
X116871428Y-86209523D01*
X116823809Y-86114285D01*
X116776190Y-85923809D01*
X116776190Y-85780952D01*
X116823809Y-85590476D01*
X116871428Y-85495238D01*
X116966666Y-85400000D01*
X117109523Y-85352380D01*
X117204761Y-85352380D01*
X117347619Y-85400000D01*
X117395238Y-85447619D01*
X117585714Y-86447619D02*
X118347619Y-86447619D01*
X118442857Y-85352380D02*
X118776190Y-86352380D01*
X119109523Y-85352380D01*
X120014285Y-86257142D02*
X119966666Y-86304761D01*
X119823809Y-86352380D01*
X119728571Y-86352380D01*
X119585714Y-86304761D01*
X119490476Y-86209523D01*
X119442857Y-86114285D01*
X119395238Y-85923809D01*
X119395238Y-85780952D01*
X119442857Y-85590476D01*
X119490476Y-85495238D01*
X119585714Y-85400000D01*
X119728571Y-85352380D01*
X119823809Y-85352380D01*
X119966666Y-85400000D01*
X120014285Y-85447619D01*
X120395238Y-86066666D02*
X120871428Y-86066666D01*
X120300000Y-86352380D02*
X120633333Y-85352380D01*
X120966666Y-86352380D01*
X121300000Y-86352380D02*
X121300000Y-85352380D01*
X121680952Y-85352380D01*
X121776190Y-85400000D01*
X121823809Y-85447619D01*
X121871428Y-85542857D01*
X121871428Y-85685714D01*
X121823809Y-85780952D01*
X121776190Y-85828571D01*
X121680952Y-85876190D01*
X121300000Y-85876190D01*
X122252380Y-85447619D02*
X122300000Y-85400000D01*
X122395238Y-85352380D01*
X122633333Y-85352380D01*
X122728571Y-85400000D01*
X122776190Y-85447619D01*
X122823809Y-85542857D01*
X122823809Y-85638095D01*
X122776190Y-85780952D01*
X122204761Y-86352380D01*
X122823809Y-86352380D01*
X114457142Y-104604761D02*
X114504761Y-104652380D01*
X114552380Y-104795238D01*
X114552380Y-104890476D01*
X114504761Y-105033333D01*
X114409523Y-105128571D01*
X114314285Y-105176190D01*
X114123809Y-105223809D01*
X113980952Y-105223809D01*
X113790476Y-105176190D01*
X113695238Y-105128571D01*
X113600000Y-105033333D01*
X113552380Y-104890476D01*
X113552380Y-104795238D01*
X113600000Y-104652380D01*
X113647619Y-104604761D01*
X114647619Y-104414285D02*
X114647619Y-103652380D01*
X113552380Y-103557142D02*
X114552380Y-103223809D01*
X113552380Y-102890476D01*
X114457142Y-101985714D02*
X114504761Y-102033333D01*
X114552380Y-102176190D01*
X114552380Y-102271428D01*
X114504761Y-102414285D01*
X114409523Y-102509523D01*
X114314285Y-102557142D01*
X114123809Y-102604761D01*
X113980952Y-102604761D01*
X113790476Y-102557142D01*
X113695238Y-102509523D01*
X113600000Y-102414285D01*
X113552380Y-102271428D01*
X113552380Y-102176190D01*
X113600000Y-102033333D01*
X113647619Y-101985714D01*
X114266666Y-101604761D02*
X114266666Y-101128571D01*
X114552380Y-101700000D02*
X113552380Y-101366666D01*
X114552380Y-101033333D01*
X114552380Y-100700000D02*
X113552380Y-100700000D01*
X113552380Y-100319047D01*
X113600000Y-100223809D01*
X113647619Y-100176190D01*
X113742857Y-100128571D01*
X113885714Y-100128571D01*
X113980952Y-100176190D01*
X114028571Y-100223809D01*
X114076190Y-100319047D01*
X114076190Y-100700000D01*
X114552380Y-99176190D02*
X114552380Y-99747619D01*
X114552380Y-99461904D02*
X113552380Y-99461904D01*
X113695238Y-99557142D01*
X113790476Y-99652380D01*
X113838095Y-99747619D01*
X99857142Y-75446190D02*
X99904761Y-75493809D01*
X99952380Y-75636666D01*
X99952380Y-75731904D01*
X99904761Y-75874761D01*
X99809523Y-75970000D01*
X99714285Y-76017619D01*
X99523809Y-76065238D01*
X99380952Y-76065238D01*
X99190476Y-76017619D01*
X99095238Y-75970000D01*
X99000000Y-75874761D01*
X98952380Y-75731904D01*
X98952380Y-75636666D01*
X99000000Y-75493809D01*
X99047619Y-75446190D01*
X100047619Y-75255714D02*
X100047619Y-74493809D01*
X99952380Y-73684285D02*
X99476190Y-74017619D01*
X99952380Y-74255714D02*
X98952380Y-74255714D01*
X98952380Y-73874761D01*
X99000000Y-73779523D01*
X99047619Y-73731904D01*
X99142857Y-73684285D01*
X99285714Y-73684285D01*
X99380952Y-73731904D01*
X99428571Y-73779523D01*
X99476190Y-73874761D01*
X99476190Y-74255714D01*
X99428571Y-73255714D02*
X99428571Y-72922380D01*
X99952380Y-72779523D02*
X99952380Y-73255714D01*
X98952380Y-73255714D01*
X98952380Y-72779523D01*
X99904761Y-72398571D02*
X99952380Y-72255714D01*
X99952380Y-72017619D01*
X99904761Y-71922380D01*
X99857142Y-71874761D01*
X99761904Y-71827142D01*
X99666666Y-71827142D01*
X99571428Y-71874761D01*
X99523809Y-71922380D01*
X99476190Y-72017619D01*
X99428571Y-72208095D01*
X99380952Y-72303333D01*
X99333333Y-72350952D01*
X99238095Y-72398571D01*
X99142857Y-72398571D01*
X99047619Y-72350952D01*
X99000000Y-72303333D01*
X98952380Y-72208095D01*
X98952380Y-71970000D01*
X99000000Y-71827142D01*
X99952380Y-70874761D02*
X99952380Y-71446190D01*
X99952380Y-71160476D02*
X98952380Y-71160476D01*
X99095238Y-71255714D01*
X99190476Y-71350952D01*
X99238095Y-71446190D01*
X73657142Y-86619047D02*
X73704761Y-86666666D01*
X73752380Y-86809523D01*
X73752380Y-86904761D01*
X73704761Y-87047619D01*
X73609523Y-87142857D01*
X73514285Y-87190476D01*
X73323809Y-87238095D01*
X73180952Y-87238095D01*
X72990476Y-87190476D01*
X72895238Y-87142857D01*
X72800000Y-87047619D01*
X72752380Y-86904761D01*
X72752380Y-86809523D01*
X72800000Y-86666666D01*
X72847619Y-86619047D01*
X73847619Y-86428571D02*
X73847619Y-85666666D01*
X73752380Y-85428571D02*
X72752380Y-85428571D01*
X73466666Y-85095238D01*
X72752380Y-84761904D01*
X73752380Y-84761904D01*
X73657142Y-83714285D02*
X73704761Y-83761904D01*
X73752380Y-83904761D01*
X73752380Y-84000000D01*
X73704761Y-84142857D01*
X73609523Y-84238095D01*
X73514285Y-84285714D01*
X73323809Y-84333333D01*
X73180952Y-84333333D01*
X72990476Y-84285714D01*
X72895238Y-84238095D01*
X72800000Y-84142857D01*
X72752380Y-84000000D01*
X72752380Y-83904761D01*
X72800000Y-83761904D01*
X72847619Y-83714285D01*
X73752380Y-83285714D02*
X72752380Y-83285714D01*
X72752380Y-82904761D01*
X72800000Y-82809523D01*
X72847619Y-82761904D01*
X72942857Y-82714285D01*
X73085714Y-82714285D01*
X73180952Y-82761904D01*
X73228571Y-82809523D01*
X73276190Y-82904761D01*
X73276190Y-83285714D01*
X72847619Y-82333333D02*
X72800000Y-82285714D01*
X72752380Y-82190476D01*
X72752380Y-81952380D01*
X72800000Y-81857142D01*
X72847619Y-81809523D01*
X72942857Y-81761904D01*
X73038095Y-81761904D01*
X73180952Y-81809523D01*
X73752380Y-82380952D01*
X73752380Y-81761904D01*
X73707142Y-80119047D02*
X73754761Y-80166666D01*
X73802380Y-80309523D01*
X73802380Y-80404761D01*
X73754761Y-80547619D01*
X73659523Y-80642857D01*
X73564285Y-80690476D01*
X73373809Y-80738095D01*
X73230952Y-80738095D01*
X73040476Y-80690476D01*
X72945238Y-80642857D01*
X72850000Y-80547619D01*
X72802380Y-80404761D01*
X72802380Y-80309523D01*
X72850000Y-80166666D01*
X72897619Y-80119047D01*
X73897619Y-79928571D02*
X73897619Y-79166666D01*
X73802380Y-78928571D02*
X72802380Y-78928571D01*
X73516666Y-78595238D01*
X72802380Y-78261904D01*
X73802380Y-78261904D01*
X73707142Y-77214285D02*
X73754761Y-77261904D01*
X73802380Y-77404761D01*
X73802380Y-77500000D01*
X73754761Y-77642857D01*
X73659523Y-77738095D01*
X73564285Y-77785714D01*
X73373809Y-77833333D01*
X73230952Y-77833333D01*
X73040476Y-77785714D01*
X72945238Y-77738095D01*
X72850000Y-77642857D01*
X72802380Y-77500000D01*
X72802380Y-77404761D01*
X72850000Y-77261904D01*
X72897619Y-77214285D01*
X73802380Y-76785714D02*
X72802380Y-76785714D01*
X72802380Y-76404761D01*
X72850000Y-76309523D01*
X72897619Y-76261904D01*
X72992857Y-76214285D01*
X73135714Y-76214285D01*
X73230952Y-76261904D01*
X73278571Y-76309523D01*
X73326190Y-76404761D01*
X73326190Y-76785714D01*
X73802380Y-75261904D02*
X73802380Y-75833333D01*
X73802380Y-75547619D02*
X72802380Y-75547619D01*
X72945238Y-75642857D01*
X73040476Y-75738095D01*
X73088095Y-75833333D01*
X102057142Y-106690476D02*
X102104761Y-106738095D01*
X102152380Y-106880952D01*
X102152380Y-106976190D01*
X102104761Y-107119047D01*
X102009523Y-107214285D01*
X101914285Y-107261904D01*
X101723809Y-107309523D01*
X101580952Y-107309523D01*
X101390476Y-107261904D01*
X101295238Y-107214285D01*
X101200000Y-107119047D01*
X101152380Y-106976190D01*
X101152380Y-106880952D01*
X101200000Y-106738095D01*
X101247619Y-106690476D01*
X102247619Y-106500000D02*
X102247619Y-105738095D01*
X102152380Y-105500000D02*
X101152380Y-105500000D01*
X102152380Y-105023809D02*
X101152380Y-105023809D01*
X102152380Y-104452380D01*
X101152380Y-104452380D01*
X102247619Y-104214285D02*
X102247619Y-103452380D01*
X101152380Y-103309523D02*
X101152380Y-102642857D01*
X102152380Y-103071428D01*
X99607142Y-96440476D02*
X99654761Y-96488095D01*
X99702380Y-96630952D01*
X99702380Y-96726190D01*
X99654761Y-96869047D01*
X99559523Y-96964285D01*
X99464285Y-97011904D01*
X99273809Y-97059523D01*
X99130952Y-97059523D01*
X98940476Y-97011904D01*
X98845238Y-96964285D01*
X98750000Y-96869047D01*
X98702380Y-96726190D01*
X98702380Y-96630952D01*
X98750000Y-96488095D01*
X98797619Y-96440476D01*
X99797619Y-96250000D02*
X99797619Y-95488095D01*
X99702380Y-95250000D02*
X98702380Y-95250000D01*
X99702380Y-94773809D02*
X98702380Y-94773809D01*
X99702380Y-94202380D01*
X98702380Y-94202380D01*
X99797619Y-93964285D02*
X99797619Y-93202380D01*
X98702380Y-92535714D02*
X98702380Y-92726190D01*
X98750000Y-92821428D01*
X98797619Y-92869047D01*
X98940476Y-92964285D01*
X99130952Y-93011904D01*
X99511904Y-93011904D01*
X99607142Y-92964285D01*
X99654761Y-92916666D01*
X99702380Y-92821428D01*
X99702380Y-92630952D01*
X99654761Y-92535714D01*
X99607142Y-92488095D01*
X99511904Y-92440476D01*
X99273809Y-92440476D01*
X99178571Y-92488095D01*
X99130952Y-92535714D01*
X99083333Y-92630952D01*
X99083333Y-92821428D01*
X99130952Y-92916666D01*
X99178571Y-92964285D01*
X99273809Y-93011904D01*
X102357142Y-79675476D02*
X102404761Y-79723095D01*
X102452380Y-79865952D01*
X102452380Y-79961190D01*
X102404761Y-80104047D01*
X102309523Y-80199285D01*
X102214285Y-80246904D01*
X102023809Y-80294523D01*
X101880952Y-80294523D01*
X101690476Y-80246904D01*
X101595238Y-80199285D01*
X101500000Y-80104047D01*
X101452380Y-79961190D01*
X101452380Y-79865952D01*
X101500000Y-79723095D01*
X101547619Y-79675476D01*
X102547619Y-79485000D02*
X102547619Y-78723095D01*
X102452380Y-78485000D02*
X101452380Y-78485000D01*
X102452380Y-78008809D02*
X101452380Y-78008809D01*
X102452380Y-77437380D01*
X101452380Y-77437380D01*
X102547619Y-77199285D02*
X102547619Y-76437380D01*
X101452380Y-75723095D02*
X101452380Y-76199285D01*
X101928571Y-76246904D01*
X101880952Y-76199285D01*
X101833333Y-76104047D01*
X101833333Y-75865952D01*
X101880952Y-75770714D01*
X101928571Y-75723095D01*
X102023809Y-75675476D01*
X102261904Y-75675476D01*
X102357142Y-75723095D01*
X102404761Y-75770714D01*
X102452380Y-75865952D01*
X102452380Y-76104047D01*
X102404761Y-76199285D01*
X102357142Y-76246904D01*
X110324523Y-80842142D02*
X110276904Y-80889761D01*
X110134047Y-80937380D01*
X110038809Y-80937380D01*
X109895952Y-80889761D01*
X109800714Y-80794523D01*
X109753095Y-80699285D01*
X109705476Y-80508809D01*
X109705476Y-80365952D01*
X109753095Y-80175476D01*
X109800714Y-80080238D01*
X109895952Y-79985000D01*
X110038809Y-79937380D01*
X110134047Y-79937380D01*
X110276904Y-79985000D01*
X110324523Y-80032619D01*
X110515000Y-81032619D02*
X111276904Y-81032619D01*
X111515000Y-80937380D02*
X111515000Y-79937380D01*
X111991190Y-80937380D02*
X111991190Y-79937380D01*
X112562619Y-80937380D01*
X112562619Y-79937380D01*
X112800714Y-81032619D02*
X113562619Y-81032619D01*
X114229285Y-80270714D02*
X114229285Y-80937380D01*
X113991190Y-79889761D02*
X113753095Y-80604047D01*
X114372142Y-80604047D01*
X111209523Y-94757142D02*
X111161904Y-94804761D01*
X111019047Y-94852380D01*
X110923809Y-94852380D01*
X110780952Y-94804761D01*
X110685714Y-94709523D01*
X110638095Y-94614285D01*
X110590476Y-94423809D01*
X110590476Y-94280952D01*
X110638095Y-94090476D01*
X110685714Y-93995238D01*
X110780952Y-93900000D01*
X110923809Y-93852380D01*
X111019047Y-93852380D01*
X111161904Y-93900000D01*
X111209523Y-93947619D01*
X111400000Y-94947619D02*
X112161904Y-94947619D01*
X112400000Y-94852380D02*
X112400000Y-93852380D01*
X112876190Y-94852380D02*
X112876190Y-93852380D01*
X113447619Y-94852380D01*
X113447619Y-93852380D01*
X113685714Y-94947619D02*
X114447619Y-94947619D01*
X114590476Y-93852380D02*
X115209523Y-93852380D01*
X114876190Y-94233333D01*
X115019047Y-94233333D01*
X115114285Y-94280952D01*
X115161904Y-94328571D01*
X115209523Y-94423809D01*
X115209523Y-94661904D01*
X115161904Y-94757142D01*
X115114285Y-94804761D01*
X115019047Y-94852380D01*
X114733333Y-94852380D01*
X114638095Y-94804761D01*
X114590476Y-94757142D01*
X104857142Y-98190476D02*
X104904761Y-98238095D01*
X104952380Y-98380952D01*
X104952380Y-98476190D01*
X104904761Y-98619047D01*
X104809523Y-98714285D01*
X104714285Y-98761904D01*
X104523809Y-98809523D01*
X104380952Y-98809523D01*
X104190476Y-98761904D01*
X104095238Y-98714285D01*
X104000000Y-98619047D01*
X103952380Y-98476190D01*
X103952380Y-98380952D01*
X104000000Y-98238095D01*
X104047619Y-98190476D01*
X105047619Y-98000000D02*
X105047619Y-97238095D01*
X104952380Y-97000000D02*
X103952380Y-97000000D01*
X104952380Y-96523809D02*
X103952380Y-96523809D01*
X104952380Y-95952380D01*
X103952380Y-95952380D01*
X105047619Y-95714285D02*
X105047619Y-94952380D01*
X104047619Y-94761904D02*
X104000000Y-94714285D01*
X103952380Y-94619047D01*
X103952380Y-94380952D01*
X104000000Y-94285714D01*
X104047619Y-94238095D01*
X104142857Y-94190476D01*
X104238095Y-94190476D01*
X104380952Y-94238095D01*
X104952380Y-94809523D01*
X104952380Y-94190476D01*
X94324523Y-82357142D02*
X94276904Y-82404761D01*
X94134047Y-82452380D01*
X94038809Y-82452380D01*
X93895952Y-82404761D01*
X93800714Y-82309523D01*
X93753095Y-82214285D01*
X93705476Y-82023809D01*
X93705476Y-81880952D01*
X93753095Y-81690476D01*
X93800714Y-81595238D01*
X93895952Y-81500000D01*
X94038809Y-81452380D01*
X94134047Y-81452380D01*
X94276904Y-81500000D01*
X94324523Y-81547619D01*
X94515000Y-82547619D02*
X95276904Y-82547619D01*
X95515000Y-82452380D02*
X95515000Y-81452380D01*
X95991190Y-82452380D02*
X95991190Y-81452380D01*
X96562619Y-82452380D01*
X96562619Y-81452380D01*
X96800714Y-82547619D02*
X97562619Y-82547619D01*
X98324523Y-82452380D02*
X97753095Y-82452380D01*
X98038809Y-82452380D02*
X98038809Y-81452380D01*
X97943571Y-81595238D01*
X97848333Y-81690476D01*
X97753095Y-81738095D01*
X90495238Y-91857142D02*
X90447619Y-91904761D01*
X90304761Y-91952380D01*
X90209523Y-91952380D01*
X90066666Y-91904761D01*
X89971428Y-91809523D01*
X89923809Y-91714285D01*
X89876190Y-91523809D01*
X89876190Y-91380952D01*
X89923809Y-91190476D01*
X89971428Y-91095238D01*
X90066666Y-91000000D01*
X90209523Y-90952380D01*
X90304761Y-90952380D01*
X90447619Y-91000000D01*
X90495238Y-91047619D01*
X90685714Y-92047619D02*
X91447619Y-92047619D01*
X91685714Y-91952380D02*
X91685714Y-90952380D01*
X91685714Y-91428571D02*
X92257142Y-91428571D01*
X92257142Y-91952380D02*
X92257142Y-90952380D01*
X92685714Y-91904761D02*
X92828571Y-91952380D01*
X93066666Y-91952380D01*
X93161904Y-91904761D01*
X93209523Y-91857142D01*
X93257142Y-91761904D01*
X93257142Y-91666666D01*
X93209523Y-91571428D01*
X93161904Y-91523809D01*
X93066666Y-91476190D01*
X92876190Y-91428571D01*
X92780952Y-91380952D01*
X92733333Y-91333333D01*
X92685714Y-91238095D01*
X92685714Y-91142857D01*
X92733333Y-91047619D01*
X92780952Y-91000000D01*
X92876190Y-90952380D01*
X93114285Y-90952380D01*
X93257142Y-91000000D01*
X93685714Y-91428571D02*
X94019047Y-91428571D01*
X94161904Y-91952380D02*
X93685714Y-91952380D01*
X93685714Y-90952380D01*
X94161904Y-90952380D01*
X94352380Y-92047619D02*
X95114285Y-92047619D01*
X95542857Y-90952380D02*
X95733333Y-90952380D01*
X95828571Y-91000000D01*
X95923809Y-91095238D01*
X95971428Y-91285714D01*
X95971428Y-91619047D01*
X95923809Y-91809523D01*
X95828571Y-91904761D01*
X95733333Y-91952380D01*
X95542857Y-91952380D01*
X95447619Y-91904761D01*
X95352380Y-91809523D01*
X95304761Y-91619047D01*
X95304761Y-91285714D01*
X95352380Y-91095238D01*
X95447619Y-91000000D01*
X95542857Y-90952380D01*
X96923809Y-91952380D02*
X96352380Y-91952380D01*
X96638095Y-91952380D02*
X96638095Y-90952380D01*
X96542857Y-91095238D01*
X96447619Y-91190476D01*
X96352380Y-91238095D01*
X88880952Y-85857142D02*
X88833333Y-85904761D01*
X88690476Y-85952380D01*
X88595238Y-85952380D01*
X88452380Y-85904761D01*
X88357142Y-85809523D01*
X88309523Y-85714285D01*
X88261904Y-85523809D01*
X88261904Y-85380952D01*
X88309523Y-85190476D01*
X88357142Y-85095238D01*
X88452380Y-85000000D01*
X88595238Y-84952380D01*
X88690476Y-84952380D01*
X88833333Y-85000000D01*
X88880952Y-85047619D01*
X89071428Y-86047619D02*
X89833333Y-86047619D01*
X90071428Y-85952380D02*
X90071428Y-84952380D01*
X90071428Y-85428571D02*
X90642857Y-85428571D01*
X90642857Y-85952380D02*
X90642857Y-84952380D01*
X91071428Y-85904761D02*
X91214285Y-85952380D01*
X91452380Y-85952380D01*
X91547619Y-85904761D01*
X91595238Y-85857142D01*
X91642857Y-85761904D01*
X91642857Y-85666666D01*
X91595238Y-85571428D01*
X91547619Y-85523809D01*
X91452380Y-85476190D01*
X91261904Y-85428571D01*
X91166666Y-85380952D01*
X91119047Y-85333333D01*
X91071428Y-85238095D01*
X91071428Y-85142857D01*
X91119047Y-85047619D01*
X91166666Y-85000000D01*
X91261904Y-84952380D01*
X91500000Y-84952380D01*
X91642857Y-85000000D01*
X92071428Y-85428571D02*
X92404761Y-85428571D01*
X92547619Y-85952380D02*
X92071428Y-85952380D01*
X92071428Y-84952380D01*
X92547619Y-84952380D01*
X92738095Y-86047619D02*
X93500000Y-86047619D01*
X93738095Y-85952380D02*
X93738095Y-84952380D01*
X94738095Y-85952380D02*
X94166666Y-85952380D01*
X94452380Y-85952380D02*
X94452380Y-84952380D01*
X94357142Y-85095238D01*
X94261904Y-85190476D01*
X94166666Y-85238095D01*
M02*
