G04 #@! TF.GenerationSoftware,KiCad,Pcbnew,5.1.6-c6e7f7d~87~ubuntu18.04.1*
G04 #@! TF.CreationDate,2020-08-26T01:47:06+02:00*
G04 #@! TF.ProjectId,retropilot_stm32f405_ecu,72657472-6f70-4696-9c6f-745f73746d33,rev?*
G04 #@! TF.SameCoordinates,Original*
G04 #@! TF.FileFunction,Soldermask,Top*
G04 #@! TF.FilePolarity,Negative*
%FSLAX46Y46*%
G04 Gerber Fmt 4.6, Leading zero omitted, Abs format (unit mm)*
G04 Created by KiCad (PCBNEW 5.1.6-c6e7f7d~87~ubuntu18.04.1) date 2020-08-26 01:47:06*
%MOMM*%
%LPD*%
G01*
G04 APERTURE LIST*
%ADD10O,1.700000X1.700000*%
%ADD11R,1.700000X1.700000*%
%ADD12O,3.700000X2.700000*%
%ADD13C,3.000000*%
%ADD14O,1.800000X2.800000*%
%ADD15R,2.800000X1.000000*%
%ADD16O,1.000000X1.000000*%
%ADD17R,1.000000X1.000000*%
%ADD18R,2.000000X1.500000*%
%ADD19R,2.000000X3.800000*%
%ADD20R,1.100000X4.600000*%
%ADD21R,10.800000X9.400000*%
%ADD22R,1.700000X0.700000*%
%ADD23R,9.400000X14.800000*%
%ADD24R,5.000000X1.450000*%
%ADD25O,2.700000X3.700000*%
%ADD26R,1.100000X1.100000*%
%ADD27C,5.600000*%
%ADD28R,2.400000X2.000000*%
G04 APERTURE END LIST*
D10*
X120400000Y-94420000D03*
X120400000Y-96960000D03*
D11*
X120400000Y-99500000D03*
G36*
G01*
X42599999Y-52750000D02*
X39400001Y-52750000D01*
G75*
G02*
X39150000Y-52499999I0J250001D01*
G01*
X39150000Y-50300001D01*
G75*
G02*
X39400001Y-50050000I250001J0D01*
G01*
X42599999Y-50050000D01*
G75*
G02*
X42850000Y-50300001I0J-250001D01*
G01*
X42850000Y-52499999D01*
G75*
G02*
X42599999Y-52750000I-250001J0D01*
G01*
G37*
D12*
X46500000Y-51400000D03*
D13*
X33700000Y-51400000D03*
D14*
X33300000Y-103000000D03*
X33300000Y-99000000D03*
X33300000Y-91000000D03*
X33300000Y-95000000D03*
X33300000Y-79000000D03*
X33300000Y-87000000D03*
X33300000Y-83000000D03*
X33300000Y-75000000D03*
X41900000Y-91000000D03*
X41900000Y-75000000D03*
X41900000Y-83000000D03*
X41900000Y-79000000D03*
X41900000Y-95000000D03*
X41900000Y-103000000D03*
X41900000Y-99000000D03*
X41900000Y-87000000D03*
D15*
X83900000Y-72000000D03*
X78100000Y-72000000D03*
X83900000Y-68000000D03*
X78100000Y-68000000D03*
X94900000Y-72000000D03*
X89100000Y-72000000D03*
X94900000Y-68000000D03*
X89100000Y-68000000D03*
D16*
X49000000Y-103730000D03*
X49000000Y-105000000D03*
X47730000Y-103730000D03*
X47730000Y-105000000D03*
X46460000Y-103730000D03*
D17*
X46460000Y-105000000D03*
D16*
X49000000Y-96730000D03*
X49000000Y-98000000D03*
X47730000Y-96730000D03*
X47730000Y-98000000D03*
X46460000Y-96730000D03*
D17*
X46460000Y-98000000D03*
D16*
X49000000Y-87730000D03*
X49000000Y-89000000D03*
X47730000Y-87730000D03*
X47730000Y-89000000D03*
X46460000Y-87730000D03*
D17*
X46460000Y-89000000D03*
D16*
X49000000Y-80730000D03*
X49000000Y-82000000D03*
X47730000Y-80730000D03*
X47730000Y-82000000D03*
X46460000Y-80730000D03*
D17*
X46460000Y-82000000D03*
D16*
X118540000Y-58730000D03*
X118540000Y-60000000D03*
X117270000Y-58730000D03*
X117270000Y-60000000D03*
X116000000Y-58730000D03*
D17*
X116000000Y-60000000D03*
D16*
X118540000Y-52230000D03*
X118540000Y-53500000D03*
X117270000Y-52230000D03*
X117270000Y-53500000D03*
X116000000Y-52230000D03*
D17*
X116000000Y-53500000D03*
D16*
X104540000Y-58730000D03*
X104540000Y-60000000D03*
X103270000Y-58730000D03*
X103270000Y-60000000D03*
X102000000Y-58730000D03*
D17*
X102000000Y-60000000D03*
D16*
X104540000Y-52230000D03*
X104540000Y-53500000D03*
X103270000Y-52230000D03*
X103270000Y-53500000D03*
X102000000Y-52230000D03*
D17*
X102000000Y-53500000D03*
D16*
X90540000Y-58730000D03*
X90540000Y-60000000D03*
X89270000Y-58730000D03*
X89270000Y-60000000D03*
X88000000Y-58730000D03*
D17*
X88000000Y-60000000D03*
D16*
X90540000Y-52230000D03*
X90540000Y-53500000D03*
X89270000Y-52230000D03*
X89270000Y-53500000D03*
X88000000Y-52230000D03*
D17*
X88000000Y-53500000D03*
D18*
X71800000Y-101800000D03*
X71800000Y-97200000D03*
X71800000Y-99500000D03*
D19*
X65500000Y-99500000D03*
D16*
X111000000Y-62730000D03*
D17*
X111000000Y-61460000D03*
D16*
X96000000Y-62270000D03*
D17*
X96000000Y-61000000D03*
D16*
X83000000Y-62270000D03*
D17*
X83000000Y-61000000D03*
D20*
X57660000Y-89375000D03*
X60200000Y-89375000D03*
X62740000Y-89375000D03*
D21*
X60200000Y-80225000D03*
D22*
X56450000Y-58185000D03*
D23*
X63300000Y-63900000D03*
D22*
X56450000Y-59455000D03*
X56450000Y-60725000D03*
X56450000Y-61995000D03*
X56450000Y-63265000D03*
X56450000Y-64535000D03*
X56450000Y-65805000D03*
X56450000Y-67075000D03*
X56450000Y-68345000D03*
X56450000Y-69615000D03*
X70150000Y-69615000D03*
X70150000Y-68345000D03*
X70150000Y-67075000D03*
X70150000Y-65805000D03*
X70150000Y-64535000D03*
X70150000Y-63265000D03*
X70150000Y-61995000D03*
X70150000Y-60725000D03*
X70150000Y-59455000D03*
X70150000Y-58185000D03*
D24*
X63300000Y-55775000D03*
X63300000Y-72025000D03*
G36*
G01*
X56856250Y-50237500D02*
X56343750Y-50237500D01*
G75*
G02*
X56125000Y-50018750I0J218750D01*
G01*
X56125000Y-49581250D01*
G75*
G02*
X56343750Y-49362500I218750J0D01*
G01*
X56856250Y-49362500D01*
G75*
G02*
X57075000Y-49581250I0J-218750D01*
G01*
X57075000Y-50018750D01*
G75*
G02*
X56856250Y-50237500I-218750J0D01*
G01*
G37*
G36*
G01*
X56856250Y-51812500D02*
X56343750Y-51812500D01*
G75*
G02*
X56125000Y-51593750I0J218750D01*
G01*
X56125000Y-51156250D01*
G75*
G02*
X56343750Y-50937500I218750J0D01*
G01*
X56856250Y-50937500D01*
G75*
G02*
X57075000Y-51156250I0J-218750D01*
G01*
X57075000Y-51593750D01*
G75*
G02*
X56856250Y-51812500I-218750J0D01*
G01*
G37*
D22*
X39950000Y-58185000D03*
D23*
X46800000Y-63900000D03*
D22*
X39950000Y-59455000D03*
X39950000Y-60725000D03*
X39950000Y-61995000D03*
X39950000Y-63265000D03*
X39950000Y-64535000D03*
X39950000Y-65805000D03*
X39950000Y-67075000D03*
X39950000Y-68345000D03*
X39950000Y-69615000D03*
X53650000Y-69615000D03*
X53650000Y-68345000D03*
X53650000Y-67075000D03*
X53650000Y-65805000D03*
X53650000Y-64535000D03*
X53650000Y-63265000D03*
X53650000Y-61995000D03*
X53650000Y-60725000D03*
X53650000Y-59455000D03*
X53650000Y-58185000D03*
D24*
X46800000Y-55775000D03*
X46800000Y-72025000D03*
G36*
G01*
X44250000Y-40999999D02*
X44250000Y-37800001D01*
G75*
G02*
X44500001Y-37550000I250001J0D01*
G01*
X46699999Y-37550000D01*
G75*
G02*
X46950000Y-37800001I0J-250001D01*
G01*
X46950000Y-40999999D01*
G75*
G02*
X46699999Y-41250000I-250001J0D01*
G01*
X44500001Y-41250000D01*
G75*
G02*
X44250000Y-40999999I0J250001D01*
G01*
G37*
D25*
X49800000Y-39400000D03*
X54000000Y-39400000D03*
X45600000Y-44900000D03*
X49800000Y-44900000D03*
X54000000Y-44900000D03*
D13*
X45600000Y-32100000D03*
X54000000Y-32100000D03*
D26*
X54025000Y-50470000D03*
X51225000Y-50470000D03*
X61300000Y-33700000D03*
X58500000Y-33700000D03*
X33300000Y-47200000D03*
X33300000Y-44400000D03*
X41200000Y-39200000D03*
X38400000Y-39200000D03*
X51200000Y-53000000D03*
X54000000Y-53000000D03*
X58500000Y-36200000D03*
X61300000Y-36200000D03*
X39800000Y-41300000D03*
X39800000Y-44100000D03*
X41100000Y-36700000D03*
X38300000Y-36700000D03*
G36*
G01*
X54827500Y-74275000D02*
X55172500Y-74275000D01*
G75*
G02*
X55320000Y-74422500I0J-147500D01*
G01*
X55320000Y-74717500D01*
G75*
G02*
X55172500Y-74865000I-147500J0D01*
G01*
X54827500Y-74865000D01*
G75*
G02*
X54680000Y-74717500I0J147500D01*
G01*
X54680000Y-74422500D01*
G75*
G02*
X54827500Y-74275000I147500J0D01*
G01*
G37*
G36*
G01*
X54827500Y-73305000D02*
X55172500Y-73305000D01*
G75*
G02*
X55320000Y-73452500I0J-147500D01*
G01*
X55320000Y-73747500D01*
G75*
G02*
X55172500Y-73895000I-147500J0D01*
G01*
X54827500Y-73895000D01*
G75*
G02*
X54680000Y-73747500I0J147500D01*
G01*
X54680000Y-73452500D01*
G75*
G02*
X54827500Y-73305000I147500J0D01*
G01*
G37*
G36*
G01*
X37395000Y-41827500D02*
X37395000Y-42172500D01*
G75*
G02*
X37247500Y-42320000I-147500J0D01*
G01*
X36952500Y-42320000D01*
G75*
G02*
X36805000Y-42172500I0J147500D01*
G01*
X36805000Y-41827500D01*
G75*
G02*
X36952500Y-41680000I147500J0D01*
G01*
X37247500Y-41680000D01*
G75*
G02*
X37395000Y-41827500I0J-147500D01*
G01*
G37*
G36*
G01*
X38365000Y-41827500D02*
X38365000Y-42172500D01*
G75*
G02*
X38217500Y-42320000I-147500J0D01*
G01*
X37922500Y-42320000D01*
G75*
G02*
X37775000Y-42172500I0J147500D01*
G01*
X37775000Y-41827500D01*
G75*
G02*
X37922500Y-41680000I147500J0D01*
G01*
X38217500Y-41680000D01*
G75*
G02*
X38365000Y-41827500I0J-147500D01*
G01*
G37*
G36*
G01*
X104100000Y-82025000D02*
X104100000Y-80625000D01*
G75*
G02*
X104175000Y-80550000I75000J0D01*
G01*
X104325000Y-80550000D01*
G75*
G02*
X104400000Y-80625000I0J-75000D01*
G01*
X104400000Y-82025000D01*
G75*
G02*
X104325000Y-82100000I-75000J0D01*
G01*
X104175000Y-82100000D01*
G75*
G02*
X104100000Y-82025000I0J75000D01*
G01*
G37*
G36*
G01*
X104600000Y-82025000D02*
X104600000Y-80625000D01*
G75*
G02*
X104675000Y-80550000I75000J0D01*
G01*
X104825000Y-80550000D01*
G75*
G02*
X104900000Y-80625000I0J-75000D01*
G01*
X104900000Y-82025000D01*
G75*
G02*
X104825000Y-82100000I-75000J0D01*
G01*
X104675000Y-82100000D01*
G75*
G02*
X104600000Y-82025000I0J75000D01*
G01*
G37*
G36*
G01*
X105100000Y-82025000D02*
X105100000Y-80625000D01*
G75*
G02*
X105175000Y-80550000I75000J0D01*
G01*
X105325000Y-80550000D01*
G75*
G02*
X105400000Y-80625000I0J-75000D01*
G01*
X105400000Y-82025000D01*
G75*
G02*
X105325000Y-82100000I-75000J0D01*
G01*
X105175000Y-82100000D01*
G75*
G02*
X105100000Y-82025000I0J75000D01*
G01*
G37*
G36*
G01*
X105600000Y-82025000D02*
X105600000Y-80625000D01*
G75*
G02*
X105675000Y-80550000I75000J0D01*
G01*
X105825000Y-80550000D01*
G75*
G02*
X105900000Y-80625000I0J-75000D01*
G01*
X105900000Y-82025000D01*
G75*
G02*
X105825000Y-82100000I-75000J0D01*
G01*
X105675000Y-82100000D01*
G75*
G02*
X105600000Y-82025000I0J75000D01*
G01*
G37*
G36*
G01*
X106100000Y-82025000D02*
X106100000Y-80625000D01*
G75*
G02*
X106175000Y-80550000I75000J0D01*
G01*
X106325000Y-80550000D01*
G75*
G02*
X106400000Y-80625000I0J-75000D01*
G01*
X106400000Y-82025000D01*
G75*
G02*
X106325000Y-82100000I-75000J0D01*
G01*
X106175000Y-82100000D01*
G75*
G02*
X106100000Y-82025000I0J75000D01*
G01*
G37*
G36*
G01*
X106600000Y-82025000D02*
X106600000Y-80625000D01*
G75*
G02*
X106675000Y-80550000I75000J0D01*
G01*
X106825000Y-80550000D01*
G75*
G02*
X106900000Y-80625000I0J-75000D01*
G01*
X106900000Y-82025000D01*
G75*
G02*
X106825000Y-82100000I-75000J0D01*
G01*
X106675000Y-82100000D01*
G75*
G02*
X106600000Y-82025000I0J75000D01*
G01*
G37*
G36*
G01*
X107100000Y-82025000D02*
X107100000Y-80625000D01*
G75*
G02*
X107175000Y-80550000I75000J0D01*
G01*
X107325000Y-80550000D01*
G75*
G02*
X107400000Y-80625000I0J-75000D01*
G01*
X107400000Y-82025000D01*
G75*
G02*
X107325000Y-82100000I-75000J0D01*
G01*
X107175000Y-82100000D01*
G75*
G02*
X107100000Y-82025000I0J75000D01*
G01*
G37*
G36*
G01*
X107600000Y-82025000D02*
X107600000Y-80625000D01*
G75*
G02*
X107675000Y-80550000I75000J0D01*
G01*
X107825000Y-80550000D01*
G75*
G02*
X107900000Y-80625000I0J-75000D01*
G01*
X107900000Y-82025000D01*
G75*
G02*
X107825000Y-82100000I-75000J0D01*
G01*
X107675000Y-82100000D01*
G75*
G02*
X107600000Y-82025000I0J75000D01*
G01*
G37*
G36*
G01*
X108100000Y-82025000D02*
X108100000Y-80625000D01*
G75*
G02*
X108175000Y-80550000I75000J0D01*
G01*
X108325000Y-80550000D01*
G75*
G02*
X108400000Y-80625000I0J-75000D01*
G01*
X108400000Y-82025000D01*
G75*
G02*
X108325000Y-82100000I-75000J0D01*
G01*
X108175000Y-82100000D01*
G75*
G02*
X108100000Y-82025000I0J75000D01*
G01*
G37*
G36*
G01*
X108600000Y-82025000D02*
X108600000Y-80625000D01*
G75*
G02*
X108675000Y-80550000I75000J0D01*
G01*
X108825000Y-80550000D01*
G75*
G02*
X108900000Y-80625000I0J-75000D01*
G01*
X108900000Y-82025000D01*
G75*
G02*
X108825000Y-82100000I-75000J0D01*
G01*
X108675000Y-82100000D01*
G75*
G02*
X108600000Y-82025000I0J75000D01*
G01*
G37*
G36*
G01*
X109100000Y-82025000D02*
X109100000Y-80625000D01*
G75*
G02*
X109175000Y-80550000I75000J0D01*
G01*
X109325000Y-80550000D01*
G75*
G02*
X109400000Y-80625000I0J-75000D01*
G01*
X109400000Y-82025000D01*
G75*
G02*
X109325000Y-82100000I-75000J0D01*
G01*
X109175000Y-82100000D01*
G75*
G02*
X109100000Y-82025000I0J75000D01*
G01*
G37*
G36*
G01*
X109600000Y-82025000D02*
X109600000Y-80625000D01*
G75*
G02*
X109675000Y-80550000I75000J0D01*
G01*
X109825000Y-80550000D01*
G75*
G02*
X109900000Y-80625000I0J-75000D01*
G01*
X109900000Y-82025000D01*
G75*
G02*
X109825000Y-82100000I-75000J0D01*
G01*
X109675000Y-82100000D01*
G75*
G02*
X109600000Y-82025000I0J75000D01*
G01*
G37*
G36*
G01*
X110100000Y-82025000D02*
X110100000Y-80625000D01*
G75*
G02*
X110175000Y-80550000I75000J0D01*
G01*
X110325000Y-80550000D01*
G75*
G02*
X110400000Y-80625000I0J-75000D01*
G01*
X110400000Y-82025000D01*
G75*
G02*
X110325000Y-82100000I-75000J0D01*
G01*
X110175000Y-82100000D01*
G75*
G02*
X110100000Y-82025000I0J75000D01*
G01*
G37*
G36*
G01*
X110600000Y-82025000D02*
X110600000Y-80625000D01*
G75*
G02*
X110675000Y-80550000I75000J0D01*
G01*
X110825000Y-80550000D01*
G75*
G02*
X110900000Y-80625000I0J-75000D01*
G01*
X110900000Y-82025000D01*
G75*
G02*
X110825000Y-82100000I-75000J0D01*
G01*
X110675000Y-82100000D01*
G75*
G02*
X110600000Y-82025000I0J75000D01*
G01*
G37*
G36*
G01*
X111100000Y-82025000D02*
X111100000Y-80625000D01*
G75*
G02*
X111175000Y-80550000I75000J0D01*
G01*
X111325000Y-80550000D01*
G75*
G02*
X111400000Y-80625000I0J-75000D01*
G01*
X111400000Y-82025000D01*
G75*
G02*
X111325000Y-82100000I-75000J0D01*
G01*
X111175000Y-82100000D01*
G75*
G02*
X111100000Y-82025000I0J75000D01*
G01*
G37*
G36*
G01*
X111600000Y-82025000D02*
X111600000Y-80625000D01*
G75*
G02*
X111675000Y-80550000I75000J0D01*
G01*
X111825000Y-80550000D01*
G75*
G02*
X111900000Y-80625000I0J-75000D01*
G01*
X111900000Y-82025000D01*
G75*
G02*
X111825000Y-82100000I-75000J0D01*
G01*
X111675000Y-82100000D01*
G75*
G02*
X111600000Y-82025000I0J75000D01*
G01*
G37*
G36*
G01*
X112900000Y-83325000D02*
X112900000Y-83175000D01*
G75*
G02*
X112975000Y-83100000I75000J0D01*
G01*
X114375000Y-83100000D01*
G75*
G02*
X114450000Y-83175000I0J-75000D01*
G01*
X114450000Y-83325000D01*
G75*
G02*
X114375000Y-83400000I-75000J0D01*
G01*
X112975000Y-83400000D01*
G75*
G02*
X112900000Y-83325000I0J75000D01*
G01*
G37*
G36*
G01*
X112900000Y-83825000D02*
X112900000Y-83675000D01*
G75*
G02*
X112975000Y-83600000I75000J0D01*
G01*
X114375000Y-83600000D01*
G75*
G02*
X114450000Y-83675000I0J-75000D01*
G01*
X114450000Y-83825000D01*
G75*
G02*
X114375000Y-83900000I-75000J0D01*
G01*
X112975000Y-83900000D01*
G75*
G02*
X112900000Y-83825000I0J75000D01*
G01*
G37*
G36*
G01*
X112900000Y-84325000D02*
X112900000Y-84175000D01*
G75*
G02*
X112975000Y-84100000I75000J0D01*
G01*
X114375000Y-84100000D01*
G75*
G02*
X114450000Y-84175000I0J-75000D01*
G01*
X114450000Y-84325000D01*
G75*
G02*
X114375000Y-84400000I-75000J0D01*
G01*
X112975000Y-84400000D01*
G75*
G02*
X112900000Y-84325000I0J75000D01*
G01*
G37*
G36*
G01*
X112900000Y-84825000D02*
X112900000Y-84675000D01*
G75*
G02*
X112975000Y-84600000I75000J0D01*
G01*
X114375000Y-84600000D01*
G75*
G02*
X114450000Y-84675000I0J-75000D01*
G01*
X114450000Y-84825000D01*
G75*
G02*
X114375000Y-84900000I-75000J0D01*
G01*
X112975000Y-84900000D01*
G75*
G02*
X112900000Y-84825000I0J75000D01*
G01*
G37*
G36*
G01*
X112900000Y-85325000D02*
X112900000Y-85175000D01*
G75*
G02*
X112975000Y-85100000I75000J0D01*
G01*
X114375000Y-85100000D01*
G75*
G02*
X114450000Y-85175000I0J-75000D01*
G01*
X114450000Y-85325000D01*
G75*
G02*
X114375000Y-85400000I-75000J0D01*
G01*
X112975000Y-85400000D01*
G75*
G02*
X112900000Y-85325000I0J75000D01*
G01*
G37*
G36*
G01*
X112900000Y-85825000D02*
X112900000Y-85675000D01*
G75*
G02*
X112975000Y-85600000I75000J0D01*
G01*
X114375000Y-85600000D01*
G75*
G02*
X114450000Y-85675000I0J-75000D01*
G01*
X114450000Y-85825000D01*
G75*
G02*
X114375000Y-85900000I-75000J0D01*
G01*
X112975000Y-85900000D01*
G75*
G02*
X112900000Y-85825000I0J75000D01*
G01*
G37*
G36*
G01*
X112900000Y-86325000D02*
X112900000Y-86175000D01*
G75*
G02*
X112975000Y-86100000I75000J0D01*
G01*
X114375000Y-86100000D01*
G75*
G02*
X114450000Y-86175000I0J-75000D01*
G01*
X114450000Y-86325000D01*
G75*
G02*
X114375000Y-86400000I-75000J0D01*
G01*
X112975000Y-86400000D01*
G75*
G02*
X112900000Y-86325000I0J75000D01*
G01*
G37*
G36*
G01*
X112900000Y-86825000D02*
X112900000Y-86675000D01*
G75*
G02*
X112975000Y-86600000I75000J0D01*
G01*
X114375000Y-86600000D01*
G75*
G02*
X114450000Y-86675000I0J-75000D01*
G01*
X114450000Y-86825000D01*
G75*
G02*
X114375000Y-86900000I-75000J0D01*
G01*
X112975000Y-86900000D01*
G75*
G02*
X112900000Y-86825000I0J75000D01*
G01*
G37*
G36*
G01*
X112900000Y-87325000D02*
X112900000Y-87175000D01*
G75*
G02*
X112975000Y-87100000I75000J0D01*
G01*
X114375000Y-87100000D01*
G75*
G02*
X114450000Y-87175000I0J-75000D01*
G01*
X114450000Y-87325000D01*
G75*
G02*
X114375000Y-87400000I-75000J0D01*
G01*
X112975000Y-87400000D01*
G75*
G02*
X112900000Y-87325000I0J75000D01*
G01*
G37*
G36*
G01*
X112900000Y-87825000D02*
X112900000Y-87675000D01*
G75*
G02*
X112975000Y-87600000I75000J0D01*
G01*
X114375000Y-87600000D01*
G75*
G02*
X114450000Y-87675000I0J-75000D01*
G01*
X114450000Y-87825000D01*
G75*
G02*
X114375000Y-87900000I-75000J0D01*
G01*
X112975000Y-87900000D01*
G75*
G02*
X112900000Y-87825000I0J75000D01*
G01*
G37*
G36*
G01*
X112900000Y-88325000D02*
X112900000Y-88175000D01*
G75*
G02*
X112975000Y-88100000I75000J0D01*
G01*
X114375000Y-88100000D01*
G75*
G02*
X114450000Y-88175000I0J-75000D01*
G01*
X114450000Y-88325000D01*
G75*
G02*
X114375000Y-88400000I-75000J0D01*
G01*
X112975000Y-88400000D01*
G75*
G02*
X112900000Y-88325000I0J75000D01*
G01*
G37*
G36*
G01*
X112900000Y-88825000D02*
X112900000Y-88675000D01*
G75*
G02*
X112975000Y-88600000I75000J0D01*
G01*
X114375000Y-88600000D01*
G75*
G02*
X114450000Y-88675000I0J-75000D01*
G01*
X114450000Y-88825000D01*
G75*
G02*
X114375000Y-88900000I-75000J0D01*
G01*
X112975000Y-88900000D01*
G75*
G02*
X112900000Y-88825000I0J75000D01*
G01*
G37*
G36*
G01*
X112900000Y-89325000D02*
X112900000Y-89175000D01*
G75*
G02*
X112975000Y-89100000I75000J0D01*
G01*
X114375000Y-89100000D01*
G75*
G02*
X114450000Y-89175000I0J-75000D01*
G01*
X114450000Y-89325000D01*
G75*
G02*
X114375000Y-89400000I-75000J0D01*
G01*
X112975000Y-89400000D01*
G75*
G02*
X112900000Y-89325000I0J75000D01*
G01*
G37*
G36*
G01*
X112900000Y-89825000D02*
X112900000Y-89675000D01*
G75*
G02*
X112975000Y-89600000I75000J0D01*
G01*
X114375000Y-89600000D01*
G75*
G02*
X114450000Y-89675000I0J-75000D01*
G01*
X114450000Y-89825000D01*
G75*
G02*
X114375000Y-89900000I-75000J0D01*
G01*
X112975000Y-89900000D01*
G75*
G02*
X112900000Y-89825000I0J75000D01*
G01*
G37*
G36*
G01*
X112900000Y-90325000D02*
X112900000Y-90175000D01*
G75*
G02*
X112975000Y-90100000I75000J0D01*
G01*
X114375000Y-90100000D01*
G75*
G02*
X114450000Y-90175000I0J-75000D01*
G01*
X114450000Y-90325000D01*
G75*
G02*
X114375000Y-90400000I-75000J0D01*
G01*
X112975000Y-90400000D01*
G75*
G02*
X112900000Y-90325000I0J75000D01*
G01*
G37*
G36*
G01*
X112900000Y-90825000D02*
X112900000Y-90675000D01*
G75*
G02*
X112975000Y-90600000I75000J0D01*
G01*
X114375000Y-90600000D01*
G75*
G02*
X114450000Y-90675000I0J-75000D01*
G01*
X114450000Y-90825000D01*
G75*
G02*
X114375000Y-90900000I-75000J0D01*
G01*
X112975000Y-90900000D01*
G75*
G02*
X112900000Y-90825000I0J75000D01*
G01*
G37*
G36*
G01*
X111600000Y-93375000D02*
X111600000Y-91975000D01*
G75*
G02*
X111675000Y-91900000I75000J0D01*
G01*
X111825000Y-91900000D01*
G75*
G02*
X111900000Y-91975000I0J-75000D01*
G01*
X111900000Y-93375000D01*
G75*
G02*
X111825000Y-93450000I-75000J0D01*
G01*
X111675000Y-93450000D01*
G75*
G02*
X111600000Y-93375000I0J75000D01*
G01*
G37*
G36*
G01*
X111100000Y-93375000D02*
X111100000Y-91975000D01*
G75*
G02*
X111175000Y-91900000I75000J0D01*
G01*
X111325000Y-91900000D01*
G75*
G02*
X111400000Y-91975000I0J-75000D01*
G01*
X111400000Y-93375000D01*
G75*
G02*
X111325000Y-93450000I-75000J0D01*
G01*
X111175000Y-93450000D01*
G75*
G02*
X111100000Y-93375000I0J75000D01*
G01*
G37*
G36*
G01*
X110600000Y-93375000D02*
X110600000Y-91975000D01*
G75*
G02*
X110675000Y-91900000I75000J0D01*
G01*
X110825000Y-91900000D01*
G75*
G02*
X110900000Y-91975000I0J-75000D01*
G01*
X110900000Y-93375000D01*
G75*
G02*
X110825000Y-93450000I-75000J0D01*
G01*
X110675000Y-93450000D01*
G75*
G02*
X110600000Y-93375000I0J75000D01*
G01*
G37*
G36*
G01*
X110100000Y-93375000D02*
X110100000Y-91975000D01*
G75*
G02*
X110175000Y-91900000I75000J0D01*
G01*
X110325000Y-91900000D01*
G75*
G02*
X110400000Y-91975000I0J-75000D01*
G01*
X110400000Y-93375000D01*
G75*
G02*
X110325000Y-93450000I-75000J0D01*
G01*
X110175000Y-93450000D01*
G75*
G02*
X110100000Y-93375000I0J75000D01*
G01*
G37*
G36*
G01*
X109600000Y-93375000D02*
X109600000Y-91975000D01*
G75*
G02*
X109675000Y-91900000I75000J0D01*
G01*
X109825000Y-91900000D01*
G75*
G02*
X109900000Y-91975000I0J-75000D01*
G01*
X109900000Y-93375000D01*
G75*
G02*
X109825000Y-93450000I-75000J0D01*
G01*
X109675000Y-93450000D01*
G75*
G02*
X109600000Y-93375000I0J75000D01*
G01*
G37*
G36*
G01*
X109100000Y-93375000D02*
X109100000Y-91975000D01*
G75*
G02*
X109175000Y-91900000I75000J0D01*
G01*
X109325000Y-91900000D01*
G75*
G02*
X109400000Y-91975000I0J-75000D01*
G01*
X109400000Y-93375000D01*
G75*
G02*
X109325000Y-93450000I-75000J0D01*
G01*
X109175000Y-93450000D01*
G75*
G02*
X109100000Y-93375000I0J75000D01*
G01*
G37*
G36*
G01*
X108600000Y-93375000D02*
X108600000Y-91975000D01*
G75*
G02*
X108675000Y-91900000I75000J0D01*
G01*
X108825000Y-91900000D01*
G75*
G02*
X108900000Y-91975000I0J-75000D01*
G01*
X108900000Y-93375000D01*
G75*
G02*
X108825000Y-93450000I-75000J0D01*
G01*
X108675000Y-93450000D01*
G75*
G02*
X108600000Y-93375000I0J75000D01*
G01*
G37*
G36*
G01*
X108100000Y-93375000D02*
X108100000Y-91975000D01*
G75*
G02*
X108175000Y-91900000I75000J0D01*
G01*
X108325000Y-91900000D01*
G75*
G02*
X108400000Y-91975000I0J-75000D01*
G01*
X108400000Y-93375000D01*
G75*
G02*
X108325000Y-93450000I-75000J0D01*
G01*
X108175000Y-93450000D01*
G75*
G02*
X108100000Y-93375000I0J75000D01*
G01*
G37*
G36*
G01*
X107600000Y-93375000D02*
X107600000Y-91975000D01*
G75*
G02*
X107675000Y-91900000I75000J0D01*
G01*
X107825000Y-91900000D01*
G75*
G02*
X107900000Y-91975000I0J-75000D01*
G01*
X107900000Y-93375000D01*
G75*
G02*
X107825000Y-93450000I-75000J0D01*
G01*
X107675000Y-93450000D01*
G75*
G02*
X107600000Y-93375000I0J75000D01*
G01*
G37*
G36*
G01*
X107100000Y-93375000D02*
X107100000Y-91975000D01*
G75*
G02*
X107175000Y-91900000I75000J0D01*
G01*
X107325000Y-91900000D01*
G75*
G02*
X107400000Y-91975000I0J-75000D01*
G01*
X107400000Y-93375000D01*
G75*
G02*
X107325000Y-93450000I-75000J0D01*
G01*
X107175000Y-93450000D01*
G75*
G02*
X107100000Y-93375000I0J75000D01*
G01*
G37*
G36*
G01*
X106600000Y-93375000D02*
X106600000Y-91975000D01*
G75*
G02*
X106675000Y-91900000I75000J0D01*
G01*
X106825000Y-91900000D01*
G75*
G02*
X106900000Y-91975000I0J-75000D01*
G01*
X106900000Y-93375000D01*
G75*
G02*
X106825000Y-93450000I-75000J0D01*
G01*
X106675000Y-93450000D01*
G75*
G02*
X106600000Y-93375000I0J75000D01*
G01*
G37*
G36*
G01*
X106100000Y-93375000D02*
X106100000Y-91975000D01*
G75*
G02*
X106175000Y-91900000I75000J0D01*
G01*
X106325000Y-91900000D01*
G75*
G02*
X106400000Y-91975000I0J-75000D01*
G01*
X106400000Y-93375000D01*
G75*
G02*
X106325000Y-93450000I-75000J0D01*
G01*
X106175000Y-93450000D01*
G75*
G02*
X106100000Y-93375000I0J75000D01*
G01*
G37*
G36*
G01*
X105600000Y-93375000D02*
X105600000Y-91975000D01*
G75*
G02*
X105675000Y-91900000I75000J0D01*
G01*
X105825000Y-91900000D01*
G75*
G02*
X105900000Y-91975000I0J-75000D01*
G01*
X105900000Y-93375000D01*
G75*
G02*
X105825000Y-93450000I-75000J0D01*
G01*
X105675000Y-93450000D01*
G75*
G02*
X105600000Y-93375000I0J75000D01*
G01*
G37*
G36*
G01*
X105100000Y-93375000D02*
X105100000Y-91975000D01*
G75*
G02*
X105175000Y-91900000I75000J0D01*
G01*
X105325000Y-91900000D01*
G75*
G02*
X105400000Y-91975000I0J-75000D01*
G01*
X105400000Y-93375000D01*
G75*
G02*
X105325000Y-93450000I-75000J0D01*
G01*
X105175000Y-93450000D01*
G75*
G02*
X105100000Y-93375000I0J75000D01*
G01*
G37*
G36*
G01*
X104600000Y-93375000D02*
X104600000Y-91975000D01*
G75*
G02*
X104675000Y-91900000I75000J0D01*
G01*
X104825000Y-91900000D01*
G75*
G02*
X104900000Y-91975000I0J-75000D01*
G01*
X104900000Y-93375000D01*
G75*
G02*
X104825000Y-93450000I-75000J0D01*
G01*
X104675000Y-93450000D01*
G75*
G02*
X104600000Y-93375000I0J75000D01*
G01*
G37*
G36*
G01*
X104100000Y-93375000D02*
X104100000Y-91975000D01*
G75*
G02*
X104175000Y-91900000I75000J0D01*
G01*
X104325000Y-91900000D01*
G75*
G02*
X104400000Y-91975000I0J-75000D01*
G01*
X104400000Y-93375000D01*
G75*
G02*
X104325000Y-93450000I-75000J0D01*
G01*
X104175000Y-93450000D01*
G75*
G02*
X104100000Y-93375000I0J75000D01*
G01*
G37*
G36*
G01*
X101550000Y-90825000D02*
X101550000Y-90675000D01*
G75*
G02*
X101625000Y-90600000I75000J0D01*
G01*
X103025000Y-90600000D01*
G75*
G02*
X103100000Y-90675000I0J-75000D01*
G01*
X103100000Y-90825000D01*
G75*
G02*
X103025000Y-90900000I-75000J0D01*
G01*
X101625000Y-90900000D01*
G75*
G02*
X101550000Y-90825000I0J75000D01*
G01*
G37*
G36*
G01*
X101550000Y-90325000D02*
X101550000Y-90175000D01*
G75*
G02*
X101625000Y-90100000I75000J0D01*
G01*
X103025000Y-90100000D01*
G75*
G02*
X103100000Y-90175000I0J-75000D01*
G01*
X103100000Y-90325000D01*
G75*
G02*
X103025000Y-90400000I-75000J0D01*
G01*
X101625000Y-90400000D01*
G75*
G02*
X101550000Y-90325000I0J75000D01*
G01*
G37*
G36*
G01*
X101550000Y-89825000D02*
X101550000Y-89675000D01*
G75*
G02*
X101625000Y-89600000I75000J0D01*
G01*
X103025000Y-89600000D01*
G75*
G02*
X103100000Y-89675000I0J-75000D01*
G01*
X103100000Y-89825000D01*
G75*
G02*
X103025000Y-89900000I-75000J0D01*
G01*
X101625000Y-89900000D01*
G75*
G02*
X101550000Y-89825000I0J75000D01*
G01*
G37*
G36*
G01*
X101550000Y-89325000D02*
X101550000Y-89175000D01*
G75*
G02*
X101625000Y-89100000I75000J0D01*
G01*
X103025000Y-89100000D01*
G75*
G02*
X103100000Y-89175000I0J-75000D01*
G01*
X103100000Y-89325000D01*
G75*
G02*
X103025000Y-89400000I-75000J0D01*
G01*
X101625000Y-89400000D01*
G75*
G02*
X101550000Y-89325000I0J75000D01*
G01*
G37*
G36*
G01*
X101550000Y-88825000D02*
X101550000Y-88675000D01*
G75*
G02*
X101625000Y-88600000I75000J0D01*
G01*
X103025000Y-88600000D01*
G75*
G02*
X103100000Y-88675000I0J-75000D01*
G01*
X103100000Y-88825000D01*
G75*
G02*
X103025000Y-88900000I-75000J0D01*
G01*
X101625000Y-88900000D01*
G75*
G02*
X101550000Y-88825000I0J75000D01*
G01*
G37*
G36*
G01*
X101550000Y-88325000D02*
X101550000Y-88175000D01*
G75*
G02*
X101625000Y-88100000I75000J0D01*
G01*
X103025000Y-88100000D01*
G75*
G02*
X103100000Y-88175000I0J-75000D01*
G01*
X103100000Y-88325000D01*
G75*
G02*
X103025000Y-88400000I-75000J0D01*
G01*
X101625000Y-88400000D01*
G75*
G02*
X101550000Y-88325000I0J75000D01*
G01*
G37*
G36*
G01*
X101550000Y-87825000D02*
X101550000Y-87675000D01*
G75*
G02*
X101625000Y-87600000I75000J0D01*
G01*
X103025000Y-87600000D01*
G75*
G02*
X103100000Y-87675000I0J-75000D01*
G01*
X103100000Y-87825000D01*
G75*
G02*
X103025000Y-87900000I-75000J0D01*
G01*
X101625000Y-87900000D01*
G75*
G02*
X101550000Y-87825000I0J75000D01*
G01*
G37*
G36*
G01*
X101550000Y-87325000D02*
X101550000Y-87175000D01*
G75*
G02*
X101625000Y-87100000I75000J0D01*
G01*
X103025000Y-87100000D01*
G75*
G02*
X103100000Y-87175000I0J-75000D01*
G01*
X103100000Y-87325000D01*
G75*
G02*
X103025000Y-87400000I-75000J0D01*
G01*
X101625000Y-87400000D01*
G75*
G02*
X101550000Y-87325000I0J75000D01*
G01*
G37*
G36*
G01*
X101550000Y-86825000D02*
X101550000Y-86675000D01*
G75*
G02*
X101625000Y-86600000I75000J0D01*
G01*
X103025000Y-86600000D01*
G75*
G02*
X103100000Y-86675000I0J-75000D01*
G01*
X103100000Y-86825000D01*
G75*
G02*
X103025000Y-86900000I-75000J0D01*
G01*
X101625000Y-86900000D01*
G75*
G02*
X101550000Y-86825000I0J75000D01*
G01*
G37*
G36*
G01*
X101550000Y-86325000D02*
X101550000Y-86175000D01*
G75*
G02*
X101625000Y-86100000I75000J0D01*
G01*
X103025000Y-86100000D01*
G75*
G02*
X103100000Y-86175000I0J-75000D01*
G01*
X103100000Y-86325000D01*
G75*
G02*
X103025000Y-86400000I-75000J0D01*
G01*
X101625000Y-86400000D01*
G75*
G02*
X101550000Y-86325000I0J75000D01*
G01*
G37*
G36*
G01*
X101550000Y-85825000D02*
X101550000Y-85675000D01*
G75*
G02*
X101625000Y-85600000I75000J0D01*
G01*
X103025000Y-85600000D01*
G75*
G02*
X103100000Y-85675000I0J-75000D01*
G01*
X103100000Y-85825000D01*
G75*
G02*
X103025000Y-85900000I-75000J0D01*
G01*
X101625000Y-85900000D01*
G75*
G02*
X101550000Y-85825000I0J75000D01*
G01*
G37*
G36*
G01*
X101550000Y-85325000D02*
X101550000Y-85175000D01*
G75*
G02*
X101625000Y-85100000I75000J0D01*
G01*
X103025000Y-85100000D01*
G75*
G02*
X103100000Y-85175000I0J-75000D01*
G01*
X103100000Y-85325000D01*
G75*
G02*
X103025000Y-85400000I-75000J0D01*
G01*
X101625000Y-85400000D01*
G75*
G02*
X101550000Y-85325000I0J75000D01*
G01*
G37*
G36*
G01*
X101550000Y-84825000D02*
X101550000Y-84675000D01*
G75*
G02*
X101625000Y-84600000I75000J0D01*
G01*
X103025000Y-84600000D01*
G75*
G02*
X103100000Y-84675000I0J-75000D01*
G01*
X103100000Y-84825000D01*
G75*
G02*
X103025000Y-84900000I-75000J0D01*
G01*
X101625000Y-84900000D01*
G75*
G02*
X101550000Y-84825000I0J75000D01*
G01*
G37*
G36*
G01*
X101550000Y-84325000D02*
X101550000Y-84175000D01*
G75*
G02*
X101625000Y-84100000I75000J0D01*
G01*
X103025000Y-84100000D01*
G75*
G02*
X103100000Y-84175000I0J-75000D01*
G01*
X103100000Y-84325000D01*
G75*
G02*
X103025000Y-84400000I-75000J0D01*
G01*
X101625000Y-84400000D01*
G75*
G02*
X101550000Y-84325000I0J75000D01*
G01*
G37*
G36*
G01*
X101550000Y-83825000D02*
X101550000Y-83675000D01*
G75*
G02*
X101625000Y-83600000I75000J0D01*
G01*
X103025000Y-83600000D01*
G75*
G02*
X103100000Y-83675000I0J-75000D01*
G01*
X103100000Y-83825000D01*
G75*
G02*
X103025000Y-83900000I-75000J0D01*
G01*
X101625000Y-83900000D01*
G75*
G02*
X101550000Y-83825000I0J75000D01*
G01*
G37*
G36*
G01*
X101550000Y-83325000D02*
X101550000Y-83175000D01*
G75*
G02*
X101625000Y-83100000I75000J0D01*
G01*
X103025000Y-83100000D01*
G75*
G02*
X103100000Y-83175000I0J-75000D01*
G01*
X103100000Y-83325000D01*
G75*
G02*
X103025000Y-83400000I-75000J0D01*
G01*
X101625000Y-83400000D01*
G75*
G02*
X101550000Y-83325000I0J75000D01*
G01*
G37*
G36*
G01*
X126850000Y-88025000D02*
X125450000Y-88025000D01*
G75*
G02*
X125300000Y-87875000I0J150000D01*
G01*
X125300000Y-87575000D01*
G75*
G02*
X125450000Y-87425000I150000J0D01*
G01*
X126850000Y-87425000D01*
G75*
G02*
X127000000Y-87575000I0J-150000D01*
G01*
X127000000Y-87875000D01*
G75*
G02*
X126850000Y-88025000I-150000J0D01*
G01*
G37*
G36*
G01*
X126850000Y-86775000D02*
X125450000Y-86775000D01*
G75*
G02*
X125300000Y-86625000I0J150000D01*
G01*
X125300000Y-86325000D01*
G75*
G02*
X125450000Y-86175000I150000J0D01*
G01*
X126850000Y-86175000D01*
G75*
G02*
X127000000Y-86325000I0J-150000D01*
G01*
X127000000Y-86625000D01*
G75*
G02*
X126850000Y-86775000I-150000J0D01*
G01*
G37*
G36*
G01*
X130450000Y-90075000D02*
X128250000Y-90075000D01*
G75*
G02*
X128000000Y-89825000I0J250000D01*
G01*
X128000000Y-89325000D01*
G75*
G02*
X128250000Y-89075000I250000J0D01*
G01*
X130450000Y-89075000D01*
G75*
G02*
X130700000Y-89325000I0J-250000D01*
G01*
X130700000Y-89825000D01*
G75*
G02*
X130450000Y-90075000I-250000J0D01*
G01*
G37*
G36*
G01*
X130450000Y-85125000D02*
X128250000Y-85125000D01*
G75*
G02*
X128000000Y-84875000I0J250000D01*
G01*
X128000000Y-84375000D01*
G75*
G02*
X128250000Y-84125000I250000J0D01*
G01*
X130450000Y-84125000D01*
G75*
G02*
X130700000Y-84375000I0J-250000D01*
G01*
X130700000Y-84875000D01*
G75*
G02*
X130450000Y-85125000I-250000J0D01*
G01*
G37*
G36*
G01*
X81500000Y-82245000D02*
X81500000Y-81945000D01*
G75*
G02*
X81650000Y-81795000I150000J0D01*
G01*
X83300000Y-81795000D01*
G75*
G02*
X83450000Y-81945000I0J-150000D01*
G01*
X83450000Y-82245000D01*
G75*
G02*
X83300000Y-82395000I-150000J0D01*
G01*
X81650000Y-82395000D01*
G75*
G02*
X81500000Y-82245000I0J150000D01*
G01*
G37*
G36*
G01*
X81500000Y-83515000D02*
X81500000Y-83215000D01*
G75*
G02*
X81650000Y-83065000I150000J0D01*
G01*
X83300000Y-83065000D01*
G75*
G02*
X83450000Y-83215000I0J-150000D01*
G01*
X83450000Y-83515000D01*
G75*
G02*
X83300000Y-83665000I-150000J0D01*
G01*
X81650000Y-83665000D01*
G75*
G02*
X81500000Y-83515000I0J150000D01*
G01*
G37*
G36*
G01*
X81500000Y-84785000D02*
X81500000Y-84485000D01*
G75*
G02*
X81650000Y-84335000I150000J0D01*
G01*
X83300000Y-84335000D01*
G75*
G02*
X83450000Y-84485000I0J-150000D01*
G01*
X83450000Y-84785000D01*
G75*
G02*
X83300000Y-84935000I-150000J0D01*
G01*
X81650000Y-84935000D01*
G75*
G02*
X81500000Y-84785000I0J150000D01*
G01*
G37*
G36*
G01*
X81500000Y-86055000D02*
X81500000Y-85755000D01*
G75*
G02*
X81650000Y-85605000I150000J0D01*
G01*
X83300000Y-85605000D01*
G75*
G02*
X83450000Y-85755000I0J-150000D01*
G01*
X83450000Y-86055000D01*
G75*
G02*
X83300000Y-86205000I-150000J0D01*
G01*
X81650000Y-86205000D01*
G75*
G02*
X81500000Y-86055000I0J150000D01*
G01*
G37*
G36*
G01*
X76550000Y-86055000D02*
X76550000Y-85755000D01*
G75*
G02*
X76700000Y-85605000I150000J0D01*
G01*
X78350000Y-85605000D01*
G75*
G02*
X78500000Y-85755000I0J-150000D01*
G01*
X78500000Y-86055000D01*
G75*
G02*
X78350000Y-86205000I-150000J0D01*
G01*
X76700000Y-86205000D01*
G75*
G02*
X76550000Y-86055000I0J150000D01*
G01*
G37*
G36*
G01*
X76550000Y-84785000D02*
X76550000Y-84485000D01*
G75*
G02*
X76700000Y-84335000I150000J0D01*
G01*
X78350000Y-84335000D01*
G75*
G02*
X78500000Y-84485000I0J-150000D01*
G01*
X78500000Y-84785000D01*
G75*
G02*
X78350000Y-84935000I-150000J0D01*
G01*
X76700000Y-84935000D01*
G75*
G02*
X76550000Y-84785000I0J150000D01*
G01*
G37*
G36*
G01*
X76550000Y-83515000D02*
X76550000Y-83215000D01*
G75*
G02*
X76700000Y-83065000I150000J0D01*
G01*
X78350000Y-83065000D01*
G75*
G02*
X78500000Y-83215000I0J-150000D01*
G01*
X78500000Y-83515000D01*
G75*
G02*
X78350000Y-83665000I-150000J0D01*
G01*
X76700000Y-83665000D01*
G75*
G02*
X76550000Y-83515000I0J150000D01*
G01*
G37*
G36*
G01*
X76550000Y-82245000D02*
X76550000Y-81945000D01*
G75*
G02*
X76700000Y-81795000I150000J0D01*
G01*
X78350000Y-81795000D01*
G75*
G02*
X78500000Y-81945000I0J-150000D01*
G01*
X78500000Y-82245000D01*
G75*
G02*
X78350000Y-82395000I-150000J0D01*
G01*
X76700000Y-82395000D01*
G75*
G02*
X76550000Y-82245000I0J150000D01*
G01*
G37*
G36*
G01*
X81500000Y-76245000D02*
X81500000Y-75945000D01*
G75*
G02*
X81650000Y-75795000I150000J0D01*
G01*
X83300000Y-75795000D01*
G75*
G02*
X83450000Y-75945000I0J-150000D01*
G01*
X83450000Y-76245000D01*
G75*
G02*
X83300000Y-76395000I-150000J0D01*
G01*
X81650000Y-76395000D01*
G75*
G02*
X81500000Y-76245000I0J150000D01*
G01*
G37*
G36*
G01*
X81500000Y-77515000D02*
X81500000Y-77215000D01*
G75*
G02*
X81650000Y-77065000I150000J0D01*
G01*
X83300000Y-77065000D01*
G75*
G02*
X83450000Y-77215000I0J-150000D01*
G01*
X83450000Y-77515000D01*
G75*
G02*
X83300000Y-77665000I-150000J0D01*
G01*
X81650000Y-77665000D01*
G75*
G02*
X81500000Y-77515000I0J150000D01*
G01*
G37*
G36*
G01*
X81500000Y-78785000D02*
X81500000Y-78485000D01*
G75*
G02*
X81650000Y-78335000I150000J0D01*
G01*
X83300000Y-78335000D01*
G75*
G02*
X83450000Y-78485000I0J-150000D01*
G01*
X83450000Y-78785000D01*
G75*
G02*
X83300000Y-78935000I-150000J0D01*
G01*
X81650000Y-78935000D01*
G75*
G02*
X81500000Y-78785000I0J150000D01*
G01*
G37*
G36*
G01*
X81500000Y-80055000D02*
X81500000Y-79755000D01*
G75*
G02*
X81650000Y-79605000I150000J0D01*
G01*
X83300000Y-79605000D01*
G75*
G02*
X83450000Y-79755000I0J-150000D01*
G01*
X83450000Y-80055000D01*
G75*
G02*
X83300000Y-80205000I-150000J0D01*
G01*
X81650000Y-80205000D01*
G75*
G02*
X81500000Y-80055000I0J150000D01*
G01*
G37*
G36*
G01*
X76550000Y-80055000D02*
X76550000Y-79755000D01*
G75*
G02*
X76700000Y-79605000I150000J0D01*
G01*
X78350000Y-79605000D01*
G75*
G02*
X78500000Y-79755000I0J-150000D01*
G01*
X78500000Y-80055000D01*
G75*
G02*
X78350000Y-80205000I-150000J0D01*
G01*
X76700000Y-80205000D01*
G75*
G02*
X76550000Y-80055000I0J150000D01*
G01*
G37*
G36*
G01*
X76550000Y-78785000D02*
X76550000Y-78485000D01*
G75*
G02*
X76700000Y-78335000I150000J0D01*
G01*
X78350000Y-78335000D01*
G75*
G02*
X78500000Y-78485000I0J-150000D01*
G01*
X78500000Y-78785000D01*
G75*
G02*
X78350000Y-78935000I-150000J0D01*
G01*
X76700000Y-78935000D01*
G75*
G02*
X76550000Y-78785000I0J150000D01*
G01*
G37*
G36*
G01*
X76550000Y-77515000D02*
X76550000Y-77215000D01*
G75*
G02*
X76700000Y-77065000I150000J0D01*
G01*
X78350000Y-77065000D01*
G75*
G02*
X78500000Y-77215000I0J-150000D01*
G01*
X78500000Y-77515000D01*
G75*
G02*
X78350000Y-77665000I-150000J0D01*
G01*
X76700000Y-77665000D01*
G75*
G02*
X76550000Y-77515000I0J150000D01*
G01*
G37*
G36*
G01*
X76550000Y-76245000D02*
X76550000Y-75945000D01*
G75*
G02*
X76700000Y-75795000I150000J0D01*
G01*
X78350000Y-75795000D01*
G75*
G02*
X78500000Y-75945000I0J-150000D01*
G01*
X78500000Y-76245000D01*
G75*
G02*
X78350000Y-76395000I-150000J0D01*
G01*
X76700000Y-76395000D01*
G75*
G02*
X76550000Y-76245000I0J150000D01*
G01*
G37*
G36*
G01*
X110500000Y-68245000D02*
X110500000Y-67945000D01*
G75*
G02*
X110650000Y-67795000I150000J0D01*
G01*
X112300000Y-67795000D01*
G75*
G02*
X112450000Y-67945000I0J-150000D01*
G01*
X112450000Y-68245000D01*
G75*
G02*
X112300000Y-68395000I-150000J0D01*
G01*
X110650000Y-68395000D01*
G75*
G02*
X110500000Y-68245000I0J150000D01*
G01*
G37*
G36*
G01*
X110500000Y-69515000D02*
X110500000Y-69215000D01*
G75*
G02*
X110650000Y-69065000I150000J0D01*
G01*
X112300000Y-69065000D01*
G75*
G02*
X112450000Y-69215000I0J-150000D01*
G01*
X112450000Y-69515000D01*
G75*
G02*
X112300000Y-69665000I-150000J0D01*
G01*
X110650000Y-69665000D01*
G75*
G02*
X110500000Y-69515000I0J150000D01*
G01*
G37*
G36*
G01*
X110500000Y-70785000D02*
X110500000Y-70485000D01*
G75*
G02*
X110650000Y-70335000I150000J0D01*
G01*
X112300000Y-70335000D01*
G75*
G02*
X112450000Y-70485000I0J-150000D01*
G01*
X112450000Y-70785000D01*
G75*
G02*
X112300000Y-70935000I-150000J0D01*
G01*
X110650000Y-70935000D01*
G75*
G02*
X110500000Y-70785000I0J150000D01*
G01*
G37*
G36*
G01*
X110500000Y-72055000D02*
X110500000Y-71755000D01*
G75*
G02*
X110650000Y-71605000I150000J0D01*
G01*
X112300000Y-71605000D01*
G75*
G02*
X112450000Y-71755000I0J-150000D01*
G01*
X112450000Y-72055000D01*
G75*
G02*
X112300000Y-72205000I-150000J0D01*
G01*
X110650000Y-72205000D01*
G75*
G02*
X110500000Y-72055000I0J150000D01*
G01*
G37*
G36*
G01*
X105550000Y-72055000D02*
X105550000Y-71755000D01*
G75*
G02*
X105700000Y-71605000I150000J0D01*
G01*
X107350000Y-71605000D01*
G75*
G02*
X107500000Y-71755000I0J-150000D01*
G01*
X107500000Y-72055000D01*
G75*
G02*
X107350000Y-72205000I-150000J0D01*
G01*
X105700000Y-72205000D01*
G75*
G02*
X105550000Y-72055000I0J150000D01*
G01*
G37*
G36*
G01*
X105550000Y-70785000D02*
X105550000Y-70485000D01*
G75*
G02*
X105700000Y-70335000I150000J0D01*
G01*
X107350000Y-70335000D01*
G75*
G02*
X107500000Y-70485000I0J-150000D01*
G01*
X107500000Y-70785000D01*
G75*
G02*
X107350000Y-70935000I-150000J0D01*
G01*
X105700000Y-70935000D01*
G75*
G02*
X105550000Y-70785000I0J150000D01*
G01*
G37*
G36*
G01*
X105550000Y-69515000D02*
X105550000Y-69215000D01*
G75*
G02*
X105700000Y-69065000I150000J0D01*
G01*
X107350000Y-69065000D01*
G75*
G02*
X107500000Y-69215000I0J-150000D01*
G01*
X107500000Y-69515000D01*
G75*
G02*
X107350000Y-69665000I-150000J0D01*
G01*
X105700000Y-69665000D01*
G75*
G02*
X105550000Y-69515000I0J150000D01*
G01*
G37*
G36*
G01*
X105550000Y-68245000D02*
X105550000Y-67945000D01*
G75*
G02*
X105700000Y-67795000I150000J0D01*
G01*
X107350000Y-67795000D01*
G75*
G02*
X107500000Y-67945000I0J-150000D01*
G01*
X107500000Y-68245000D01*
G75*
G02*
X107350000Y-68395000I-150000J0D01*
G01*
X105700000Y-68395000D01*
G75*
G02*
X105550000Y-68245000I0J150000D01*
G01*
G37*
G36*
G01*
X105100000Y-66506250D02*
X105100000Y-65993750D01*
G75*
G02*
X105318750Y-65775000I218750J0D01*
G01*
X105756250Y-65775000D01*
G75*
G02*
X105975000Y-65993750I0J-218750D01*
G01*
X105975000Y-66506250D01*
G75*
G02*
X105756250Y-66725000I-218750J0D01*
G01*
X105318750Y-66725000D01*
G75*
G02*
X105100000Y-66506250I0J218750D01*
G01*
G37*
G36*
G01*
X103525000Y-66506250D02*
X103525000Y-65993750D01*
G75*
G02*
X103743750Y-65775000I218750J0D01*
G01*
X104181250Y-65775000D01*
G75*
G02*
X104400000Y-65993750I0J-218750D01*
G01*
X104400000Y-66506250D01*
G75*
G02*
X104181250Y-66725000I-218750J0D01*
G01*
X103743750Y-66725000D01*
G75*
G02*
X103525000Y-66506250I0J218750D01*
G01*
G37*
G36*
G01*
X104138000Y-69256250D02*
X104138000Y-68743750D01*
G75*
G02*
X104356750Y-68525000I218750J0D01*
G01*
X104794250Y-68525000D01*
G75*
G02*
X105013000Y-68743750I0J-218750D01*
G01*
X105013000Y-69256250D01*
G75*
G02*
X104794250Y-69475000I-218750J0D01*
G01*
X104356750Y-69475000D01*
G75*
G02*
X104138000Y-69256250I0J218750D01*
G01*
G37*
G36*
G01*
X102563000Y-69256250D02*
X102563000Y-68743750D01*
G75*
G02*
X102781750Y-68525000I218750J0D01*
G01*
X103219250Y-68525000D01*
G75*
G02*
X103438000Y-68743750I0J-218750D01*
G01*
X103438000Y-69256250D01*
G75*
G02*
X103219250Y-69475000I-218750J0D01*
G01*
X102781750Y-69475000D01*
G75*
G02*
X102563000Y-69256250I0J218750D01*
G01*
G37*
G36*
G01*
X104138000Y-71256250D02*
X104138000Y-70743750D01*
G75*
G02*
X104356750Y-70525000I218750J0D01*
G01*
X104794250Y-70525000D01*
G75*
G02*
X105013000Y-70743750I0J-218750D01*
G01*
X105013000Y-71256250D01*
G75*
G02*
X104794250Y-71475000I-218750J0D01*
G01*
X104356750Y-71475000D01*
G75*
G02*
X104138000Y-71256250I0J218750D01*
G01*
G37*
G36*
G01*
X102563000Y-71256250D02*
X102563000Y-70743750D01*
G75*
G02*
X102781750Y-70525000I218750J0D01*
G01*
X103219250Y-70525000D01*
G75*
G02*
X103438000Y-70743750I0J-218750D01*
G01*
X103438000Y-71256250D01*
G75*
G02*
X103219250Y-71475000I-218750J0D01*
G01*
X102781750Y-71475000D01*
G75*
G02*
X102563000Y-71256250I0J218750D01*
G01*
G37*
G36*
G01*
X111138000Y-74256250D02*
X111138000Y-73743750D01*
G75*
G02*
X111356750Y-73525000I218750J0D01*
G01*
X111794250Y-73525000D01*
G75*
G02*
X112013000Y-73743750I0J-218750D01*
G01*
X112013000Y-74256250D01*
G75*
G02*
X111794250Y-74475000I-218750J0D01*
G01*
X111356750Y-74475000D01*
G75*
G02*
X111138000Y-74256250I0J218750D01*
G01*
G37*
G36*
G01*
X109563000Y-74256250D02*
X109563000Y-73743750D01*
G75*
G02*
X109781750Y-73525000I218750J0D01*
G01*
X110219250Y-73525000D01*
G75*
G02*
X110438000Y-73743750I0J-218750D01*
G01*
X110438000Y-74256250D01*
G75*
G02*
X110219250Y-74475000I-218750J0D01*
G01*
X109781750Y-74475000D01*
G75*
G02*
X109563000Y-74256250I0J218750D01*
G01*
G37*
G36*
G01*
X114256250Y-69862500D02*
X113743750Y-69862500D01*
G75*
G02*
X113525000Y-69643750I0J218750D01*
G01*
X113525000Y-69206250D01*
G75*
G02*
X113743750Y-68987500I218750J0D01*
G01*
X114256250Y-68987500D01*
G75*
G02*
X114475000Y-69206250I0J-218750D01*
G01*
X114475000Y-69643750D01*
G75*
G02*
X114256250Y-69862500I-218750J0D01*
G01*
G37*
G36*
G01*
X114256250Y-71437500D02*
X113743750Y-71437500D01*
G75*
G02*
X113525000Y-71218750I0J218750D01*
G01*
X113525000Y-70781250D01*
G75*
G02*
X113743750Y-70562500I218750J0D01*
G01*
X114256250Y-70562500D01*
G75*
G02*
X114475000Y-70781250I0J-218750D01*
G01*
X114475000Y-71218750D01*
G75*
G02*
X114256250Y-71437500I-218750J0D01*
G01*
G37*
G36*
G01*
X116006250Y-69862500D02*
X115493750Y-69862500D01*
G75*
G02*
X115275000Y-69643750I0J218750D01*
G01*
X115275000Y-69206250D01*
G75*
G02*
X115493750Y-68987500I218750J0D01*
G01*
X116006250Y-68987500D01*
G75*
G02*
X116225000Y-69206250I0J-218750D01*
G01*
X116225000Y-69643750D01*
G75*
G02*
X116006250Y-69862500I-218750J0D01*
G01*
G37*
G36*
G01*
X116006250Y-71437500D02*
X115493750Y-71437500D01*
G75*
G02*
X115275000Y-71218750I0J218750D01*
G01*
X115275000Y-70781250D01*
G75*
G02*
X115493750Y-70562500I218750J0D01*
G01*
X116006250Y-70562500D01*
G75*
G02*
X116225000Y-70781250I0J-218750D01*
G01*
X116225000Y-71218750D01*
G75*
G02*
X116006250Y-71437500I-218750J0D01*
G01*
G37*
G36*
G01*
X114675000Y-68172500D02*
X114675000Y-67827500D01*
G75*
G02*
X114822500Y-67680000I147500J0D01*
G01*
X115117500Y-67680000D01*
G75*
G02*
X115265000Y-67827500I0J-147500D01*
G01*
X115265000Y-68172500D01*
G75*
G02*
X115117500Y-68320000I-147500J0D01*
G01*
X114822500Y-68320000D01*
G75*
G02*
X114675000Y-68172500I0J147500D01*
G01*
G37*
G36*
G01*
X113705000Y-68172500D02*
X113705000Y-67827500D01*
G75*
G02*
X113852500Y-67680000I147500J0D01*
G01*
X114147500Y-67680000D01*
G75*
G02*
X114295000Y-67827500I0J-147500D01*
G01*
X114295000Y-68172500D01*
G75*
G02*
X114147500Y-68320000I-147500J0D01*
G01*
X113852500Y-68320000D01*
G75*
G02*
X113705000Y-68172500I0J147500D01*
G01*
G37*
D27*
X55400000Y-104600000D03*
X127000000Y-105000000D03*
X127000000Y-33000000D03*
X35000000Y-33000000D03*
G36*
G01*
X126850000Y-64550000D02*
X125450000Y-64550000D01*
G75*
G02*
X125300000Y-64400000I0J150000D01*
G01*
X125300000Y-64100000D01*
G75*
G02*
X125450000Y-63950000I150000J0D01*
G01*
X126850000Y-63950000D01*
G75*
G02*
X127000000Y-64100000I0J-150000D01*
G01*
X127000000Y-64400000D01*
G75*
G02*
X126850000Y-64550000I-150000J0D01*
G01*
G37*
G36*
G01*
X126850000Y-63300000D02*
X125450000Y-63300000D01*
G75*
G02*
X125300000Y-63150000I0J150000D01*
G01*
X125300000Y-62850000D01*
G75*
G02*
X125450000Y-62700000I150000J0D01*
G01*
X126850000Y-62700000D01*
G75*
G02*
X127000000Y-62850000I0J-150000D01*
G01*
X127000000Y-63150000D01*
G75*
G02*
X126850000Y-63300000I-150000J0D01*
G01*
G37*
G36*
G01*
X126850000Y-62050000D02*
X125450000Y-62050000D01*
G75*
G02*
X125300000Y-61900000I0J150000D01*
G01*
X125300000Y-61600000D01*
G75*
G02*
X125450000Y-61450000I150000J0D01*
G01*
X126850000Y-61450000D01*
G75*
G02*
X127000000Y-61600000I0J-150000D01*
G01*
X127000000Y-61900000D01*
G75*
G02*
X126850000Y-62050000I-150000J0D01*
G01*
G37*
G36*
G01*
X130450000Y-66600000D02*
X128250000Y-66600000D01*
G75*
G02*
X128000000Y-66350000I0J250000D01*
G01*
X128000000Y-65850000D01*
G75*
G02*
X128250000Y-65600000I250000J0D01*
G01*
X130450000Y-65600000D01*
G75*
G02*
X130700000Y-65850000I0J-250000D01*
G01*
X130700000Y-66350000D01*
G75*
G02*
X130450000Y-66600000I-250000J0D01*
G01*
G37*
G36*
G01*
X130450000Y-60400000D02*
X128250000Y-60400000D01*
G75*
G02*
X128000000Y-60150000I0J250000D01*
G01*
X128000000Y-59650000D01*
G75*
G02*
X128250000Y-59400000I250000J0D01*
G01*
X130450000Y-59400000D01*
G75*
G02*
X130700000Y-59650000I0J-250000D01*
G01*
X130700000Y-60150000D01*
G75*
G02*
X130450000Y-60400000I-250000J0D01*
G01*
G37*
D28*
X97000000Y-88700000D03*
X97000000Y-85000000D03*
G36*
G01*
X84743750Y-83562500D02*
X85256250Y-83562500D01*
G75*
G02*
X85475000Y-83781250I0J-218750D01*
G01*
X85475000Y-84218750D01*
G75*
G02*
X85256250Y-84437500I-218750J0D01*
G01*
X84743750Y-84437500D01*
G75*
G02*
X84525000Y-84218750I0J218750D01*
G01*
X84525000Y-83781250D01*
G75*
G02*
X84743750Y-83562500I218750J0D01*
G01*
G37*
G36*
G01*
X84743750Y-81987500D02*
X85256250Y-81987500D01*
G75*
G02*
X85475000Y-82206250I0J-218750D01*
G01*
X85475000Y-82643750D01*
G75*
G02*
X85256250Y-82862500I-218750J0D01*
G01*
X84743750Y-82862500D01*
G75*
G02*
X84525000Y-82643750I0J218750D01*
G01*
X84525000Y-82206250D01*
G75*
G02*
X84743750Y-81987500I218750J0D01*
G01*
G37*
G36*
G01*
X84743750Y-77562500D02*
X85256250Y-77562500D01*
G75*
G02*
X85475000Y-77781250I0J-218750D01*
G01*
X85475000Y-78218750D01*
G75*
G02*
X85256250Y-78437500I-218750J0D01*
G01*
X84743750Y-78437500D01*
G75*
G02*
X84525000Y-78218750I0J218750D01*
G01*
X84525000Y-77781250D01*
G75*
G02*
X84743750Y-77562500I218750J0D01*
G01*
G37*
G36*
G01*
X84743750Y-75987500D02*
X85256250Y-75987500D01*
G75*
G02*
X85475000Y-76206250I0J-218750D01*
G01*
X85475000Y-76643750D01*
G75*
G02*
X85256250Y-76862500I-218750J0D01*
G01*
X84743750Y-76862500D01*
G75*
G02*
X84525000Y-76643750I0J218750D01*
G01*
X84525000Y-76206250D01*
G75*
G02*
X84743750Y-75987500I218750J0D01*
G01*
G37*
G36*
G01*
X98256250Y-74437500D02*
X97743750Y-74437500D01*
G75*
G02*
X97525000Y-74218750I0J218750D01*
G01*
X97525000Y-73781250D01*
G75*
G02*
X97743750Y-73562500I218750J0D01*
G01*
X98256250Y-73562500D01*
G75*
G02*
X98475000Y-73781250I0J-218750D01*
G01*
X98475000Y-74218750D01*
G75*
G02*
X98256250Y-74437500I-218750J0D01*
G01*
G37*
G36*
G01*
X98256250Y-76012500D02*
X97743750Y-76012500D01*
G75*
G02*
X97525000Y-75793750I0J218750D01*
G01*
X97525000Y-75356250D01*
G75*
G02*
X97743750Y-75137500I218750J0D01*
G01*
X98256250Y-75137500D01*
G75*
G02*
X98475000Y-75356250I0J-218750D01*
G01*
X98475000Y-75793750D01*
G75*
G02*
X98256250Y-76012500I-218750J0D01*
G01*
G37*
G36*
G01*
X119762000Y-89856250D02*
X119762000Y-89343750D01*
G75*
G02*
X119980750Y-89125000I218750J0D01*
G01*
X120418250Y-89125000D01*
G75*
G02*
X120637000Y-89343750I0J-218750D01*
G01*
X120637000Y-89856250D01*
G75*
G02*
X120418250Y-90075000I-218750J0D01*
G01*
X119980750Y-90075000D01*
G75*
G02*
X119762000Y-89856250I0J218750D01*
G01*
G37*
G36*
G01*
X118187000Y-89856250D02*
X118187000Y-89343750D01*
G75*
G02*
X118405750Y-89125000I218750J0D01*
G01*
X118843250Y-89125000D01*
G75*
G02*
X119062000Y-89343750I0J-218750D01*
G01*
X119062000Y-89856250D01*
G75*
G02*
X118843250Y-90075000I-218750J0D01*
G01*
X118405750Y-90075000D01*
G75*
G02*
X118187000Y-89856250I0J218750D01*
G01*
G37*
G36*
G01*
X119750000Y-91756250D02*
X119750000Y-91243750D01*
G75*
G02*
X119968750Y-91025000I218750J0D01*
G01*
X120406250Y-91025000D01*
G75*
G02*
X120625000Y-91243750I0J-218750D01*
G01*
X120625000Y-91756250D01*
G75*
G02*
X120406250Y-91975000I-218750J0D01*
G01*
X119968750Y-91975000D01*
G75*
G02*
X119750000Y-91756250I0J218750D01*
G01*
G37*
G36*
G01*
X118175000Y-91756250D02*
X118175000Y-91243750D01*
G75*
G02*
X118393750Y-91025000I218750J0D01*
G01*
X118831250Y-91025000D01*
G75*
G02*
X119050000Y-91243750I0J-218750D01*
G01*
X119050000Y-91756250D01*
G75*
G02*
X118831250Y-91975000I-218750J0D01*
G01*
X118393750Y-91975000D01*
G75*
G02*
X118175000Y-91756250I0J218750D01*
G01*
G37*
G36*
G01*
X122338000Y-89343750D02*
X122338000Y-89856250D01*
G75*
G02*
X122119250Y-90075000I-218750J0D01*
G01*
X121681750Y-90075000D01*
G75*
G02*
X121463000Y-89856250I0J218750D01*
G01*
X121463000Y-89343750D01*
G75*
G02*
X121681750Y-89125000I218750J0D01*
G01*
X122119250Y-89125000D01*
G75*
G02*
X122338000Y-89343750I0J-218750D01*
G01*
G37*
G36*
G01*
X123913000Y-89343750D02*
X123913000Y-89856250D01*
G75*
G02*
X123694250Y-90075000I-218750J0D01*
G01*
X123256750Y-90075000D01*
G75*
G02*
X123038000Y-89856250I0J218750D01*
G01*
X123038000Y-89343750D01*
G75*
G02*
X123256750Y-89125000I218750J0D01*
G01*
X123694250Y-89125000D01*
G75*
G02*
X123913000Y-89343750I0J-218750D01*
G01*
G37*
G36*
G01*
X122362000Y-91243750D02*
X122362000Y-91756250D01*
G75*
G02*
X122143250Y-91975000I-218750J0D01*
G01*
X121705750Y-91975000D01*
G75*
G02*
X121487000Y-91756250I0J218750D01*
G01*
X121487000Y-91243750D01*
G75*
G02*
X121705750Y-91025000I218750J0D01*
G01*
X122143250Y-91025000D01*
G75*
G02*
X122362000Y-91243750I0J-218750D01*
G01*
G37*
G36*
G01*
X123937000Y-91243750D02*
X123937000Y-91756250D01*
G75*
G02*
X123718250Y-91975000I-218750J0D01*
G01*
X123280750Y-91975000D01*
G75*
G02*
X123062000Y-91756250I0J218750D01*
G01*
X123062000Y-91243750D01*
G75*
G02*
X123280750Y-91025000I218750J0D01*
G01*
X123718250Y-91025000D01*
G75*
G02*
X123937000Y-91243750I0J-218750D01*
G01*
G37*
G36*
G01*
X109743750Y-101138000D02*
X110256250Y-101138000D01*
G75*
G02*
X110475000Y-101356750I0J-218750D01*
G01*
X110475000Y-101794250D01*
G75*
G02*
X110256250Y-102013000I-218750J0D01*
G01*
X109743750Y-102013000D01*
G75*
G02*
X109525000Y-101794250I0J218750D01*
G01*
X109525000Y-101356750D01*
G75*
G02*
X109743750Y-101138000I218750J0D01*
G01*
G37*
G36*
G01*
X109743750Y-99563000D02*
X110256250Y-99563000D01*
G75*
G02*
X110475000Y-99781750I0J-218750D01*
G01*
X110475000Y-100219250D01*
G75*
G02*
X110256250Y-100438000I-218750J0D01*
G01*
X109743750Y-100438000D01*
G75*
G02*
X109525000Y-100219250I0J218750D01*
G01*
X109525000Y-99781750D01*
G75*
G02*
X109743750Y-99563000I218750J0D01*
G01*
G37*
G36*
G01*
X107743750Y-101138000D02*
X108256250Y-101138000D01*
G75*
G02*
X108475000Y-101356750I0J-218750D01*
G01*
X108475000Y-101794250D01*
G75*
G02*
X108256250Y-102013000I-218750J0D01*
G01*
X107743750Y-102013000D01*
G75*
G02*
X107525000Y-101794250I0J218750D01*
G01*
X107525000Y-101356750D01*
G75*
G02*
X107743750Y-101138000I218750J0D01*
G01*
G37*
G36*
G01*
X107743750Y-99563000D02*
X108256250Y-99563000D01*
G75*
G02*
X108475000Y-99781750I0J-218750D01*
G01*
X108475000Y-100219250D01*
G75*
G02*
X108256250Y-100438000I-218750J0D01*
G01*
X107743750Y-100438000D01*
G75*
G02*
X107525000Y-100219250I0J218750D01*
G01*
X107525000Y-99781750D01*
G75*
G02*
X107743750Y-99563000I218750J0D01*
G01*
G37*
G36*
G01*
X105743750Y-101138000D02*
X106256250Y-101138000D01*
G75*
G02*
X106475000Y-101356750I0J-218750D01*
G01*
X106475000Y-101794250D01*
G75*
G02*
X106256250Y-102013000I-218750J0D01*
G01*
X105743750Y-102013000D01*
G75*
G02*
X105525000Y-101794250I0J218750D01*
G01*
X105525000Y-101356750D01*
G75*
G02*
X105743750Y-101138000I218750J0D01*
G01*
G37*
G36*
G01*
X105743750Y-99563000D02*
X106256250Y-99563000D01*
G75*
G02*
X106475000Y-99781750I0J-218750D01*
G01*
X106475000Y-100219250D01*
G75*
G02*
X106256250Y-100438000I-218750J0D01*
G01*
X105743750Y-100438000D01*
G75*
G02*
X105525000Y-100219250I0J218750D01*
G01*
X105525000Y-99781750D01*
G75*
G02*
X105743750Y-99563000I218750J0D01*
G01*
G37*
G36*
G01*
X111256250Y-50650000D02*
X110743750Y-50650000D01*
G75*
G02*
X110525000Y-50431250I0J218750D01*
G01*
X110525000Y-49993750D01*
G75*
G02*
X110743750Y-49775000I218750J0D01*
G01*
X111256250Y-49775000D01*
G75*
G02*
X111475000Y-49993750I0J-218750D01*
G01*
X111475000Y-50431250D01*
G75*
G02*
X111256250Y-50650000I-218750J0D01*
G01*
G37*
G36*
G01*
X111256250Y-52225000D02*
X110743750Y-52225000D01*
G75*
G02*
X110525000Y-52006250I0J218750D01*
G01*
X110525000Y-51568750D01*
G75*
G02*
X110743750Y-51350000I218750J0D01*
G01*
X111256250Y-51350000D01*
G75*
G02*
X111475000Y-51568750I0J-218750D01*
G01*
X111475000Y-52006250D01*
G75*
G02*
X111256250Y-52225000I-218750J0D01*
G01*
G37*
G36*
G01*
X97256250Y-50437500D02*
X96743750Y-50437500D01*
G75*
G02*
X96525000Y-50218750I0J218750D01*
G01*
X96525000Y-49781250D01*
G75*
G02*
X96743750Y-49562500I218750J0D01*
G01*
X97256250Y-49562500D01*
G75*
G02*
X97475000Y-49781250I0J-218750D01*
G01*
X97475000Y-50218750D01*
G75*
G02*
X97256250Y-50437500I-218750J0D01*
G01*
G37*
G36*
G01*
X97256250Y-52012500D02*
X96743750Y-52012500D01*
G75*
G02*
X96525000Y-51793750I0J218750D01*
G01*
X96525000Y-51356250D01*
G75*
G02*
X96743750Y-51137500I218750J0D01*
G01*
X97256250Y-51137500D01*
G75*
G02*
X97475000Y-51356250I0J-218750D01*
G01*
X97475000Y-51793750D01*
G75*
G02*
X97256250Y-52012500I-218750J0D01*
G01*
G37*
G36*
G01*
X83256250Y-50650000D02*
X82743750Y-50650000D01*
G75*
G02*
X82525000Y-50431250I0J218750D01*
G01*
X82525000Y-49993750D01*
G75*
G02*
X82743750Y-49775000I218750J0D01*
G01*
X83256250Y-49775000D01*
G75*
G02*
X83475000Y-49993750I0J-218750D01*
G01*
X83475000Y-50431250D01*
G75*
G02*
X83256250Y-50650000I-218750J0D01*
G01*
G37*
G36*
G01*
X83256250Y-52225000D02*
X82743750Y-52225000D01*
G75*
G02*
X82525000Y-52006250I0J218750D01*
G01*
X82525000Y-51568750D01*
G75*
G02*
X82743750Y-51350000I218750J0D01*
G01*
X83256250Y-51350000D01*
G75*
G02*
X83475000Y-51568750I0J-218750D01*
G01*
X83475000Y-52006250D01*
G75*
G02*
X83256250Y-52225000I-218750J0D01*
G01*
G37*
G36*
G01*
X106862000Y-96743750D02*
X106862000Y-97256250D01*
G75*
G02*
X106643250Y-97475000I-218750J0D01*
G01*
X106205750Y-97475000D01*
G75*
G02*
X105987000Y-97256250I0J218750D01*
G01*
X105987000Y-96743750D01*
G75*
G02*
X106205750Y-96525000I218750J0D01*
G01*
X106643250Y-96525000D01*
G75*
G02*
X106862000Y-96743750I0J-218750D01*
G01*
G37*
G36*
G01*
X108437000Y-96743750D02*
X108437000Y-97256250D01*
G75*
G02*
X108218250Y-97475000I-218750J0D01*
G01*
X107780750Y-97475000D01*
G75*
G02*
X107562000Y-97256250I0J218750D01*
G01*
X107562000Y-96743750D01*
G75*
G02*
X107780750Y-96525000I218750J0D01*
G01*
X108218250Y-96525000D01*
G75*
G02*
X108437000Y-96743750I0J-218750D01*
G01*
G37*
G36*
G01*
X105743750Y-77137500D02*
X106256250Y-77137500D01*
G75*
G02*
X106475000Y-77356250I0J-218750D01*
G01*
X106475000Y-77793750D01*
G75*
G02*
X106256250Y-78012500I-218750J0D01*
G01*
X105743750Y-78012500D01*
G75*
G02*
X105525000Y-77793750I0J218750D01*
G01*
X105525000Y-77356250D01*
G75*
G02*
X105743750Y-77137500I218750J0D01*
G01*
G37*
G36*
G01*
X105743750Y-75562500D02*
X106256250Y-75562500D01*
G75*
G02*
X106475000Y-75781250I0J-218750D01*
G01*
X106475000Y-76218750D01*
G75*
G02*
X106256250Y-76437500I-218750J0D01*
G01*
X105743750Y-76437500D01*
G75*
G02*
X105525000Y-76218750I0J218750D01*
G01*
X105525000Y-75781250D01*
G75*
G02*
X105743750Y-75562500I218750J0D01*
G01*
G37*
G36*
G01*
X81256250Y-45437500D02*
X80743750Y-45437500D01*
G75*
G02*
X80525000Y-45218750I0J218750D01*
G01*
X80525000Y-44781250D01*
G75*
G02*
X80743750Y-44562500I218750J0D01*
G01*
X81256250Y-44562500D01*
G75*
G02*
X81475000Y-44781250I0J-218750D01*
G01*
X81475000Y-45218750D01*
G75*
G02*
X81256250Y-45437500I-218750J0D01*
G01*
G37*
G36*
G01*
X81256250Y-47012500D02*
X80743750Y-47012500D01*
G75*
G02*
X80525000Y-46793750I0J218750D01*
G01*
X80525000Y-46356250D01*
G75*
G02*
X80743750Y-46137500I218750J0D01*
G01*
X81256250Y-46137500D01*
G75*
G02*
X81475000Y-46356250I0J-218750D01*
G01*
X81475000Y-46793750D01*
G75*
G02*
X81256250Y-47012500I-218750J0D01*
G01*
G37*
D10*
X118460000Y-64840000D03*
X121000000Y-64840000D03*
X118460000Y-67380000D03*
X121000000Y-67380000D03*
X118460000Y-69920000D03*
X121000000Y-69920000D03*
X118460000Y-72460000D03*
X121000000Y-72460000D03*
X118460000Y-75000000D03*
X121000000Y-75000000D03*
X118460000Y-77540000D03*
X121000000Y-77540000D03*
X118460000Y-80080000D03*
D11*
X121000000Y-80080000D03*
G36*
G01*
X126850000Y-80675000D02*
X125450000Y-80675000D01*
G75*
G02*
X125300000Y-80525000I0J150000D01*
G01*
X125300000Y-80225000D01*
G75*
G02*
X125450000Y-80075000I150000J0D01*
G01*
X126850000Y-80075000D01*
G75*
G02*
X127000000Y-80225000I0J-150000D01*
G01*
X127000000Y-80525000D01*
G75*
G02*
X126850000Y-80675000I-150000J0D01*
G01*
G37*
G36*
G01*
X126850000Y-79425000D02*
X125450000Y-79425000D01*
G75*
G02*
X125300000Y-79275000I0J150000D01*
G01*
X125300000Y-78975000D01*
G75*
G02*
X125450000Y-78825000I150000J0D01*
G01*
X126850000Y-78825000D01*
G75*
G02*
X127000000Y-78975000I0J-150000D01*
G01*
X127000000Y-79275000D01*
G75*
G02*
X126850000Y-79425000I-150000J0D01*
G01*
G37*
G36*
G01*
X126850000Y-78175000D02*
X125450000Y-78175000D01*
G75*
G02*
X125300000Y-78025000I0J150000D01*
G01*
X125300000Y-77725000D01*
G75*
G02*
X125450000Y-77575000I150000J0D01*
G01*
X126850000Y-77575000D01*
G75*
G02*
X127000000Y-77725000I0J-150000D01*
G01*
X127000000Y-78025000D01*
G75*
G02*
X126850000Y-78175000I-150000J0D01*
G01*
G37*
G36*
G01*
X126850000Y-76925000D02*
X125450000Y-76925000D01*
G75*
G02*
X125300000Y-76775000I0J150000D01*
G01*
X125300000Y-76475000D01*
G75*
G02*
X125450000Y-76325000I150000J0D01*
G01*
X126850000Y-76325000D01*
G75*
G02*
X127000000Y-76475000I0J-150000D01*
G01*
X127000000Y-76775000D01*
G75*
G02*
X126850000Y-76925000I-150000J0D01*
G01*
G37*
G36*
G01*
X126850000Y-75675000D02*
X125450000Y-75675000D01*
G75*
G02*
X125300000Y-75525000I0J150000D01*
G01*
X125300000Y-75225000D01*
G75*
G02*
X125450000Y-75075000I150000J0D01*
G01*
X126850000Y-75075000D01*
G75*
G02*
X127000000Y-75225000I0J-150000D01*
G01*
X127000000Y-75525000D01*
G75*
G02*
X126850000Y-75675000I-150000J0D01*
G01*
G37*
G36*
G01*
X126850000Y-74425000D02*
X125450000Y-74425000D01*
G75*
G02*
X125300000Y-74275000I0J150000D01*
G01*
X125300000Y-73975000D01*
G75*
G02*
X125450000Y-73825000I150000J0D01*
G01*
X126850000Y-73825000D01*
G75*
G02*
X127000000Y-73975000I0J-150000D01*
G01*
X127000000Y-74275000D01*
G75*
G02*
X126850000Y-74425000I-150000J0D01*
G01*
G37*
G36*
G01*
X126850000Y-73175000D02*
X125450000Y-73175000D01*
G75*
G02*
X125300000Y-73025000I0J150000D01*
G01*
X125300000Y-72725000D01*
G75*
G02*
X125450000Y-72575000I150000J0D01*
G01*
X126850000Y-72575000D01*
G75*
G02*
X127000000Y-72725000I0J-150000D01*
G01*
X127000000Y-73025000D01*
G75*
G02*
X126850000Y-73175000I-150000J0D01*
G01*
G37*
G36*
G01*
X126850000Y-71925000D02*
X125450000Y-71925000D01*
G75*
G02*
X125300000Y-71775000I0J150000D01*
G01*
X125300000Y-71475000D01*
G75*
G02*
X125450000Y-71325000I150000J0D01*
G01*
X126850000Y-71325000D01*
G75*
G02*
X127000000Y-71475000I0J-150000D01*
G01*
X127000000Y-71775000D01*
G75*
G02*
X126850000Y-71925000I-150000J0D01*
G01*
G37*
G36*
G01*
X130450000Y-82725000D02*
X128250000Y-82725000D01*
G75*
G02*
X128000000Y-82475000I0J250000D01*
G01*
X128000000Y-81975000D01*
G75*
G02*
X128250000Y-81725000I250000J0D01*
G01*
X130450000Y-81725000D01*
G75*
G02*
X130700000Y-81975000I0J-250000D01*
G01*
X130700000Y-82475000D01*
G75*
G02*
X130450000Y-82725000I-250000J0D01*
G01*
G37*
G36*
G01*
X130450000Y-70275000D02*
X128250000Y-70275000D01*
G75*
G02*
X128000000Y-70025000I0J250000D01*
G01*
X128000000Y-69525000D01*
G75*
G02*
X128250000Y-69275000I250000J0D01*
G01*
X130450000Y-69275000D01*
G75*
G02*
X130700000Y-69525000I0J-250000D01*
G01*
X130700000Y-70025000D01*
G75*
G02*
X130450000Y-70275000I-250000J0D01*
G01*
G37*
G36*
G01*
X126850000Y-54675000D02*
X125450000Y-54675000D01*
G75*
G02*
X125300000Y-54525000I0J150000D01*
G01*
X125300000Y-54225000D01*
G75*
G02*
X125450000Y-54075000I150000J0D01*
G01*
X126850000Y-54075000D01*
G75*
G02*
X127000000Y-54225000I0J-150000D01*
G01*
X127000000Y-54525000D01*
G75*
G02*
X126850000Y-54675000I-150000J0D01*
G01*
G37*
G36*
G01*
X126850000Y-53425000D02*
X125450000Y-53425000D01*
G75*
G02*
X125300000Y-53275000I0J150000D01*
G01*
X125300000Y-52975000D01*
G75*
G02*
X125450000Y-52825000I150000J0D01*
G01*
X126850000Y-52825000D01*
G75*
G02*
X127000000Y-52975000I0J-150000D01*
G01*
X127000000Y-53275000D01*
G75*
G02*
X126850000Y-53425000I-150000J0D01*
G01*
G37*
G36*
G01*
X126850000Y-52175000D02*
X125450000Y-52175000D01*
G75*
G02*
X125300000Y-52025000I0J150000D01*
G01*
X125300000Y-51725000D01*
G75*
G02*
X125450000Y-51575000I150000J0D01*
G01*
X126850000Y-51575000D01*
G75*
G02*
X127000000Y-51725000I0J-150000D01*
G01*
X127000000Y-52025000D01*
G75*
G02*
X126850000Y-52175000I-150000J0D01*
G01*
G37*
G36*
G01*
X126850000Y-50925000D02*
X125450000Y-50925000D01*
G75*
G02*
X125300000Y-50775000I0J150000D01*
G01*
X125300000Y-50475000D01*
G75*
G02*
X125450000Y-50325000I150000J0D01*
G01*
X126850000Y-50325000D01*
G75*
G02*
X127000000Y-50475000I0J-150000D01*
G01*
X127000000Y-50775000D01*
G75*
G02*
X126850000Y-50925000I-150000J0D01*
G01*
G37*
G36*
G01*
X126850000Y-49675000D02*
X125450000Y-49675000D01*
G75*
G02*
X125300000Y-49525000I0J150000D01*
G01*
X125300000Y-49225000D01*
G75*
G02*
X125450000Y-49075000I150000J0D01*
G01*
X126850000Y-49075000D01*
G75*
G02*
X127000000Y-49225000I0J-150000D01*
G01*
X127000000Y-49525000D01*
G75*
G02*
X126850000Y-49675000I-150000J0D01*
G01*
G37*
G36*
G01*
X126850000Y-48425000D02*
X125450000Y-48425000D01*
G75*
G02*
X125300000Y-48275000I0J150000D01*
G01*
X125300000Y-47975000D01*
G75*
G02*
X125450000Y-47825000I150000J0D01*
G01*
X126850000Y-47825000D01*
G75*
G02*
X127000000Y-47975000I0J-150000D01*
G01*
X127000000Y-48275000D01*
G75*
G02*
X126850000Y-48425000I-150000J0D01*
G01*
G37*
G36*
G01*
X126850000Y-47175000D02*
X125450000Y-47175000D01*
G75*
G02*
X125300000Y-47025000I0J150000D01*
G01*
X125300000Y-46725000D01*
G75*
G02*
X125450000Y-46575000I150000J0D01*
G01*
X126850000Y-46575000D01*
G75*
G02*
X127000000Y-46725000I0J-150000D01*
G01*
X127000000Y-47025000D01*
G75*
G02*
X126850000Y-47175000I-150000J0D01*
G01*
G37*
G36*
G01*
X126850000Y-45925000D02*
X125450000Y-45925000D01*
G75*
G02*
X125300000Y-45775000I0J150000D01*
G01*
X125300000Y-45475000D01*
G75*
G02*
X125450000Y-45325000I150000J0D01*
G01*
X126850000Y-45325000D01*
G75*
G02*
X127000000Y-45475000I0J-150000D01*
G01*
X127000000Y-45775000D01*
G75*
G02*
X126850000Y-45925000I-150000J0D01*
G01*
G37*
G36*
G01*
X130450000Y-56725000D02*
X128250000Y-56725000D01*
G75*
G02*
X128000000Y-56475000I0J250000D01*
G01*
X128000000Y-55975000D01*
G75*
G02*
X128250000Y-55725000I250000J0D01*
G01*
X130450000Y-55725000D01*
G75*
G02*
X130700000Y-55975000I0J-250000D01*
G01*
X130700000Y-56475000D01*
G75*
G02*
X130450000Y-56725000I-250000J0D01*
G01*
G37*
G36*
G01*
X130450000Y-44275000D02*
X128250000Y-44275000D01*
G75*
G02*
X128000000Y-44025000I0J250000D01*
G01*
X128000000Y-43525000D01*
G75*
G02*
X128250000Y-43275000I250000J0D01*
G01*
X130450000Y-43275000D01*
G75*
G02*
X130700000Y-43525000I0J-250000D01*
G01*
X130700000Y-44025000D01*
G75*
G02*
X130450000Y-44275000I-250000J0D01*
G01*
G37*
D10*
X76880000Y-106300000D03*
X79420000Y-106300000D03*
X81960000Y-106300000D03*
D11*
X84500000Y-106300000D03*
G36*
G01*
X113550000Y-42649999D02*
X113550000Y-39450001D01*
G75*
G02*
X113800001Y-39200000I250001J0D01*
G01*
X115999999Y-39200000D01*
G75*
G02*
X116250000Y-39450001I0J-250001D01*
G01*
X116250000Y-42649999D01*
G75*
G02*
X115999999Y-42900000I-250001J0D01*
G01*
X113800001Y-42900000D01*
G75*
G02*
X113550000Y-42649999I0J250001D01*
G01*
G37*
D25*
X119100000Y-41050000D03*
X114900000Y-46550000D03*
X119100000Y-46550000D03*
D13*
X117000000Y-33750000D03*
G36*
G01*
X99650000Y-42599999D02*
X99650000Y-39400001D01*
G75*
G02*
X99900001Y-39150000I250001J0D01*
G01*
X102099999Y-39150000D01*
G75*
G02*
X102350000Y-39400001I0J-250001D01*
G01*
X102350000Y-42599999D01*
G75*
G02*
X102099999Y-42850000I-250001J0D01*
G01*
X99900001Y-42850000D01*
G75*
G02*
X99650000Y-42599999I0J250001D01*
G01*
G37*
D25*
X105200000Y-41000000D03*
X101000000Y-46500000D03*
X105200000Y-46500000D03*
D13*
X103100000Y-33700000D03*
G36*
G01*
X85650000Y-42599999D02*
X85650000Y-39400001D01*
G75*
G02*
X85900001Y-39150000I250001J0D01*
G01*
X88099999Y-39150000D01*
G75*
G02*
X88350000Y-39400001I0J-250001D01*
G01*
X88350000Y-42599999D01*
G75*
G02*
X88099999Y-42850000I-250001J0D01*
G01*
X85900001Y-42850000D01*
G75*
G02*
X85650000Y-42599999I0J250001D01*
G01*
G37*
D25*
X91200000Y-41000000D03*
X87000000Y-46500000D03*
X91200000Y-46500000D03*
D13*
X89100000Y-33700000D03*
G36*
G01*
X64750000Y-40999999D02*
X64750000Y-37800001D01*
G75*
G02*
X65000001Y-37550000I250001J0D01*
G01*
X67199999Y-37550000D01*
G75*
G02*
X67450000Y-37800001I0J-250001D01*
G01*
X67450000Y-40999999D01*
G75*
G02*
X67199999Y-41250000I-250001J0D01*
G01*
X65000001Y-41250000D01*
G75*
G02*
X64750000Y-40999999I0J250001D01*
G01*
G37*
D25*
X70300000Y-39400000D03*
X74500000Y-39400000D03*
X66100000Y-44900000D03*
X70300000Y-44900000D03*
X74500000Y-44900000D03*
D13*
X66100000Y-32100000D03*
X74500000Y-32100000D03*
G36*
G01*
X96612500Y-98543750D02*
X96612500Y-99456250D01*
G75*
G02*
X96368750Y-99700000I-243750J0D01*
G01*
X95881250Y-99700000D01*
G75*
G02*
X95637500Y-99456250I0J243750D01*
G01*
X95637500Y-98543750D01*
G75*
G02*
X95881250Y-98300000I243750J0D01*
G01*
X96368750Y-98300000D01*
G75*
G02*
X96612500Y-98543750I0J-243750D01*
G01*
G37*
G36*
G01*
X98487500Y-98543750D02*
X98487500Y-99456250D01*
G75*
G02*
X98243750Y-99700000I-243750J0D01*
G01*
X97756250Y-99700000D01*
G75*
G02*
X97512500Y-99456250I0J243750D01*
G01*
X97512500Y-98543750D01*
G75*
G02*
X97756250Y-98300000I243750J0D01*
G01*
X98243750Y-98300000D01*
G75*
G02*
X98487500Y-98543750I0J-243750D01*
G01*
G37*
G36*
G01*
X109743750Y-104138000D02*
X110256250Y-104138000D01*
G75*
G02*
X110475000Y-104356750I0J-218750D01*
G01*
X110475000Y-104794250D01*
G75*
G02*
X110256250Y-105013000I-218750J0D01*
G01*
X109743750Y-105013000D01*
G75*
G02*
X109525000Y-104794250I0J218750D01*
G01*
X109525000Y-104356750D01*
G75*
G02*
X109743750Y-104138000I218750J0D01*
G01*
G37*
G36*
G01*
X109743750Y-102563000D02*
X110256250Y-102563000D01*
G75*
G02*
X110475000Y-102781750I0J-218750D01*
G01*
X110475000Y-103219250D01*
G75*
G02*
X110256250Y-103438000I-218750J0D01*
G01*
X109743750Y-103438000D01*
G75*
G02*
X109525000Y-103219250I0J218750D01*
G01*
X109525000Y-102781750D01*
G75*
G02*
X109743750Y-102563000I218750J0D01*
G01*
G37*
G36*
G01*
X107743750Y-104138000D02*
X108256250Y-104138000D01*
G75*
G02*
X108475000Y-104356750I0J-218750D01*
G01*
X108475000Y-104794250D01*
G75*
G02*
X108256250Y-105013000I-218750J0D01*
G01*
X107743750Y-105013000D01*
G75*
G02*
X107525000Y-104794250I0J218750D01*
G01*
X107525000Y-104356750D01*
G75*
G02*
X107743750Y-104138000I218750J0D01*
G01*
G37*
G36*
G01*
X107743750Y-102563000D02*
X108256250Y-102563000D01*
G75*
G02*
X108475000Y-102781750I0J-218750D01*
G01*
X108475000Y-103219250D01*
G75*
G02*
X108256250Y-103438000I-218750J0D01*
G01*
X107743750Y-103438000D01*
G75*
G02*
X107525000Y-103219250I0J218750D01*
G01*
X107525000Y-102781750D01*
G75*
G02*
X107743750Y-102563000I218750J0D01*
G01*
G37*
G36*
G01*
X105743750Y-104138000D02*
X106256250Y-104138000D01*
G75*
G02*
X106475000Y-104356750I0J-218750D01*
G01*
X106475000Y-104794250D01*
G75*
G02*
X106256250Y-105013000I-218750J0D01*
G01*
X105743750Y-105013000D01*
G75*
G02*
X105525000Y-104794250I0J218750D01*
G01*
X105525000Y-104356750D01*
G75*
G02*
X105743750Y-104138000I218750J0D01*
G01*
G37*
G36*
G01*
X105743750Y-102563000D02*
X106256250Y-102563000D01*
G75*
G02*
X106475000Y-102781750I0J-218750D01*
G01*
X106475000Y-103219250D01*
G75*
G02*
X106256250Y-103438000I-218750J0D01*
G01*
X105743750Y-103438000D01*
G75*
G02*
X105525000Y-103219250I0J218750D01*
G01*
X105525000Y-102781750D01*
G75*
G02*
X105743750Y-102563000I218750J0D01*
G01*
G37*
D26*
X77000000Y-63000000D03*
X74200000Y-63000000D03*
X77000000Y-54000000D03*
X74200000Y-54000000D03*
X58700000Y-51300000D03*
X61500000Y-51300000D03*
X61300000Y-45400000D03*
X58500000Y-45400000D03*
X74200000Y-60000000D03*
X77000000Y-60000000D03*
X74200000Y-51000000D03*
X77000000Y-51000000D03*
X61400000Y-48500000D03*
X58600000Y-48500000D03*
X61300000Y-42100000D03*
X58500000Y-42100000D03*
G36*
G01*
X68137500Y-90206250D02*
X68137500Y-89293750D01*
G75*
G02*
X68381250Y-89050000I243750J0D01*
G01*
X68868750Y-89050000D01*
G75*
G02*
X69112500Y-89293750I0J-243750D01*
G01*
X69112500Y-90206250D01*
G75*
G02*
X68868750Y-90450000I-243750J0D01*
G01*
X68381250Y-90450000D01*
G75*
G02*
X68137500Y-90206250I0J243750D01*
G01*
G37*
G36*
G01*
X66262500Y-90206250D02*
X66262500Y-89293750D01*
G75*
G02*
X66506250Y-89050000I243750J0D01*
G01*
X66993750Y-89050000D01*
G75*
G02*
X67237500Y-89293750I0J-243750D01*
G01*
X67237500Y-90206250D01*
G75*
G02*
X66993750Y-90450000I-243750J0D01*
G01*
X66506250Y-90450000D01*
G75*
G02*
X66262500Y-90206250I0J243750D01*
G01*
G37*
G36*
G01*
X76175001Y-94837500D02*
X74324999Y-94837500D01*
G75*
G02*
X74075000Y-94587501I0J249999D01*
G01*
X74075000Y-93762499D01*
G75*
G02*
X74324999Y-93512500I249999J0D01*
G01*
X76175001Y-93512500D01*
G75*
G02*
X76425000Y-93762499I0J-249999D01*
G01*
X76425000Y-94587501D01*
G75*
G02*
X76175001Y-94837500I-249999J0D01*
G01*
G37*
G36*
G01*
X76175001Y-97912500D02*
X74324999Y-97912500D01*
G75*
G02*
X74075000Y-97662501I0J249999D01*
G01*
X74075000Y-96837499D01*
G75*
G02*
X74324999Y-96587500I249999J0D01*
G01*
X76175001Y-96587500D01*
G75*
G02*
X76425000Y-96837499I0J-249999D01*
G01*
X76425000Y-97662501D01*
G75*
G02*
X76175001Y-97912500I-249999J0D01*
G01*
G37*
G36*
G01*
X67737500Y-103793750D02*
X67737500Y-104706250D01*
G75*
G02*
X67493750Y-104950000I-243750J0D01*
G01*
X67006250Y-104950000D01*
G75*
G02*
X66762500Y-104706250I0J243750D01*
G01*
X66762500Y-103793750D01*
G75*
G02*
X67006250Y-103550000I243750J0D01*
G01*
X67493750Y-103550000D01*
G75*
G02*
X67737500Y-103793750I0J-243750D01*
G01*
G37*
G36*
G01*
X69612500Y-103793750D02*
X69612500Y-104706250D01*
G75*
G02*
X69368750Y-104950000I-243750J0D01*
G01*
X68881250Y-104950000D01*
G75*
G02*
X68637500Y-104706250I0J243750D01*
G01*
X68637500Y-103793750D01*
G75*
G02*
X68881250Y-103550000I243750J0D01*
G01*
X69368750Y-103550000D01*
G75*
G02*
X69612500Y-103793750I0J-243750D01*
G01*
G37*
G36*
G01*
X57243750Y-94087500D02*
X58156250Y-94087500D01*
G75*
G02*
X58400000Y-94331250I0J-243750D01*
G01*
X58400000Y-94818750D01*
G75*
G02*
X58156250Y-95062500I-243750J0D01*
G01*
X57243750Y-95062500D01*
G75*
G02*
X57000000Y-94818750I0J243750D01*
G01*
X57000000Y-94331250D01*
G75*
G02*
X57243750Y-94087500I243750J0D01*
G01*
G37*
G36*
G01*
X57243750Y-92212500D02*
X58156250Y-92212500D01*
G75*
G02*
X58400000Y-92456250I0J-243750D01*
G01*
X58400000Y-92943750D01*
G75*
G02*
X58156250Y-93187500I-243750J0D01*
G01*
X57243750Y-93187500D01*
G75*
G02*
X57000000Y-92943750I0J243750D01*
G01*
X57000000Y-92456250D01*
G75*
G02*
X57243750Y-92212500I243750J0D01*
G01*
G37*
G36*
G01*
X119925000Y-84625000D02*
X119925000Y-83375000D01*
G75*
G02*
X120175000Y-83125000I250000J0D01*
G01*
X120925000Y-83125000D01*
G75*
G02*
X121175000Y-83375000I0J-250000D01*
G01*
X121175000Y-84625000D01*
G75*
G02*
X120925000Y-84875000I-250000J0D01*
G01*
X120175000Y-84875000D01*
G75*
G02*
X119925000Y-84625000I0J250000D01*
G01*
G37*
G36*
G01*
X117125000Y-84625000D02*
X117125000Y-83375000D01*
G75*
G02*
X117375000Y-83125000I250000J0D01*
G01*
X118125000Y-83125000D01*
G75*
G02*
X118375000Y-83375000I0J-250000D01*
G01*
X118375000Y-84625000D01*
G75*
G02*
X118125000Y-84875000I-250000J0D01*
G01*
X117375000Y-84875000D01*
G75*
G02*
X117125000Y-84625000I0J250000D01*
G01*
G37*
G36*
G01*
X113125000Y-98375000D02*
X113125000Y-97125000D01*
G75*
G02*
X113375000Y-96875000I250000J0D01*
G01*
X114125000Y-96875000D01*
G75*
G02*
X114375000Y-97125000I0J-250000D01*
G01*
X114375000Y-98375000D01*
G75*
G02*
X114125000Y-98625000I-250000J0D01*
G01*
X113375000Y-98625000D01*
G75*
G02*
X113125000Y-98375000I0J250000D01*
G01*
G37*
G36*
G01*
X110325000Y-98375000D02*
X110325000Y-97125000D01*
G75*
G02*
X110575000Y-96875000I250000J0D01*
G01*
X111325000Y-96875000D01*
G75*
G02*
X111575000Y-97125000I0J-250000D01*
G01*
X111575000Y-98375000D01*
G75*
G02*
X111325000Y-98625000I-250000J0D01*
G01*
X110575000Y-98625000D01*
G75*
G02*
X110325000Y-98375000I0J250000D01*
G01*
G37*
G36*
G01*
X100922500Y-74295000D02*
X100577500Y-74295000D01*
G75*
G02*
X100430000Y-74147500I0J147500D01*
G01*
X100430000Y-73852500D01*
G75*
G02*
X100577500Y-73705000I147500J0D01*
G01*
X100922500Y-73705000D01*
G75*
G02*
X101070000Y-73852500I0J-147500D01*
G01*
X101070000Y-74147500D01*
G75*
G02*
X100922500Y-74295000I-147500J0D01*
G01*
G37*
G36*
G01*
X100922500Y-75265000D02*
X100577500Y-75265000D01*
G75*
G02*
X100430000Y-75117500I0J147500D01*
G01*
X100430000Y-74822500D01*
G75*
G02*
X100577500Y-74675000I147500J0D01*
G01*
X100922500Y-74675000D01*
G75*
G02*
X101070000Y-74822500I0J-147500D01*
G01*
X101070000Y-75117500D01*
G75*
G02*
X100922500Y-75265000I-147500J0D01*
G01*
G37*
G36*
G01*
X75456250Y-84550000D02*
X74543750Y-84550000D01*
G75*
G02*
X74300000Y-84306250I0J243750D01*
G01*
X74300000Y-83818750D01*
G75*
G02*
X74543750Y-83575000I243750J0D01*
G01*
X75456250Y-83575000D01*
G75*
G02*
X75700000Y-83818750I0J-243750D01*
G01*
X75700000Y-84306250D01*
G75*
G02*
X75456250Y-84550000I-243750J0D01*
G01*
G37*
G36*
G01*
X75456250Y-86425000D02*
X74543750Y-86425000D01*
G75*
G02*
X74300000Y-86181250I0J243750D01*
G01*
X74300000Y-85693750D01*
G75*
G02*
X74543750Y-85450000I243750J0D01*
G01*
X75456250Y-85450000D01*
G75*
G02*
X75700000Y-85693750I0J-243750D01*
G01*
X75700000Y-86181250D01*
G75*
G02*
X75456250Y-86425000I-243750J0D01*
G01*
G37*
G36*
G01*
X75456250Y-78550000D02*
X74543750Y-78550000D01*
G75*
G02*
X74300000Y-78306250I0J243750D01*
G01*
X74300000Y-77818750D01*
G75*
G02*
X74543750Y-77575000I243750J0D01*
G01*
X75456250Y-77575000D01*
G75*
G02*
X75700000Y-77818750I0J-243750D01*
G01*
X75700000Y-78306250D01*
G75*
G02*
X75456250Y-78550000I-243750J0D01*
G01*
G37*
G36*
G01*
X75456250Y-80425000D02*
X74543750Y-80425000D01*
G75*
G02*
X74300000Y-80181250I0J243750D01*
G01*
X74300000Y-79693750D01*
G75*
G02*
X74543750Y-79450000I243750J0D01*
G01*
X75456250Y-79450000D01*
G75*
G02*
X75700000Y-79693750I0J-243750D01*
G01*
X75700000Y-80181250D01*
G75*
G02*
X75456250Y-80425000I-243750J0D01*
G01*
G37*
G36*
G01*
X73827500Y-71675000D02*
X74172500Y-71675000D01*
G75*
G02*
X74320000Y-71822500I0J-147500D01*
G01*
X74320000Y-72117500D01*
G75*
G02*
X74172500Y-72265000I-147500J0D01*
G01*
X73827500Y-72265000D01*
G75*
G02*
X73680000Y-72117500I0J147500D01*
G01*
X73680000Y-71822500D01*
G75*
G02*
X73827500Y-71675000I147500J0D01*
G01*
G37*
G36*
G01*
X73827500Y-70705000D02*
X74172500Y-70705000D01*
G75*
G02*
X74320000Y-70852500I0J-147500D01*
G01*
X74320000Y-71147500D01*
G75*
G02*
X74172500Y-71295000I-147500J0D01*
G01*
X73827500Y-71295000D01*
G75*
G02*
X73680000Y-71147500I0J147500D01*
G01*
X73680000Y-70852500D01*
G75*
G02*
X73827500Y-70705000I147500J0D01*
G01*
G37*
G36*
G01*
X55995000Y-53827500D02*
X55995000Y-54172500D01*
G75*
G02*
X55847500Y-54320000I-147500J0D01*
G01*
X55552500Y-54320000D01*
G75*
G02*
X55405000Y-54172500I0J147500D01*
G01*
X55405000Y-53827500D01*
G75*
G02*
X55552500Y-53680000I147500J0D01*
G01*
X55847500Y-53680000D01*
G75*
G02*
X55995000Y-53827500I0J-147500D01*
G01*
G37*
G36*
G01*
X56965000Y-53827500D02*
X56965000Y-54172500D01*
G75*
G02*
X56817500Y-54320000I-147500J0D01*
G01*
X56522500Y-54320000D01*
G75*
G02*
X56375000Y-54172500I0J147500D01*
G01*
X56375000Y-53827500D01*
G75*
G02*
X56522500Y-53680000I147500J0D01*
G01*
X56817500Y-53680000D01*
G75*
G02*
X56965000Y-53827500I0J-147500D01*
G01*
G37*
G36*
G01*
X100375000Y-99375000D02*
X101625000Y-99375000D01*
G75*
G02*
X101875000Y-99625000I0J-250000D01*
G01*
X101875000Y-100375000D01*
G75*
G02*
X101625000Y-100625000I-250000J0D01*
G01*
X100375000Y-100625000D01*
G75*
G02*
X100125000Y-100375000I0J250000D01*
G01*
X100125000Y-99625000D01*
G75*
G02*
X100375000Y-99375000I250000J0D01*
G01*
G37*
G36*
G01*
X100375000Y-96575000D02*
X101625000Y-96575000D01*
G75*
G02*
X101875000Y-96825000I0J-250000D01*
G01*
X101875000Y-97575000D01*
G75*
G02*
X101625000Y-97825000I-250000J0D01*
G01*
X100375000Y-97825000D01*
G75*
G02*
X100125000Y-97575000I0J250000D01*
G01*
X100125000Y-96825000D01*
G75*
G02*
X100375000Y-96575000I250000J0D01*
G01*
G37*
G36*
G01*
X101327500Y-95455000D02*
X101672500Y-95455000D01*
G75*
G02*
X101820000Y-95602500I0J-147500D01*
G01*
X101820000Y-95897500D01*
G75*
G02*
X101672500Y-96045000I-147500J0D01*
G01*
X101327500Y-96045000D01*
G75*
G02*
X101180000Y-95897500I0J147500D01*
G01*
X101180000Y-95602500D01*
G75*
G02*
X101327500Y-95455000I147500J0D01*
G01*
G37*
G36*
G01*
X101327500Y-94485000D02*
X101672500Y-94485000D01*
G75*
G02*
X101820000Y-94632500I0J-147500D01*
G01*
X101820000Y-94927500D01*
G75*
G02*
X101672500Y-95075000I-147500J0D01*
G01*
X101327500Y-95075000D01*
G75*
G02*
X101180000Y-94927500I0J147500D01*
G01*
X101180000Y-94632500D01*
G75*
G02*
X101327500Y-94485000I147500J0D01*
G01*
G37*
G36*
G01*
X103422500Y-78560000D02*
X103077500Y-78560000D01*
G75*
G02*
X102930000Y-78412500I0J147500D01*
G01*
X102930000Y-78117500D01*
G75*
G02*
X103077500Y-77970000I147500J0D01*
G01*
X103422500Y-77970000D01*
G75*
G02*
X103570000Y-78117500I0J-147500D01*
G01*
X103570000Y-78412500D01*
G75*
G02*
X103422500Y-78560000I-147500J0D01*
G01*
G37*
G36*
G01*
X103422500Y-79530000D02*
X103077500Y-79530000D01*
G75*
G02*
X102930000Y-79382500I0J147500D01*
G01*
X102930000Y-79087500D01*
G75*
G02*
X103077500Y-78940000I147500J0D01*
G01*
X103422500Y-78940000D01*
G75*
G02*
X103570000Y-79087500I0J-147500D01*
G01*
X103570000Y-79382500D01*
G75*
G02*
X103422500Y-79530000I-147500J0D01*
G01*
G37*
G36*
G01*
X115937500Y-80060000D02*
X115592500Y-80060000D01*
G75*
G02*
X115445000Y-79912500I0J147500D01*
G01*
X115445000Y-79617500D01*
G75*
G02*
X115592500Y-79470000I147500J0D01*
G01*
X115937500Y-79470000D01*
G75*
G02*
X116085000Y-79617500I0J-147500D01*
G01*
X116085000Y-79912500D01*
G75*
G02*
X115937500Y-80060000I-147500J0D01*
G01*
G37*
G36*
G01*
X115937500Y-81030000D02*
X115592500Y-81030000D01*
G75*
G02*
X115445000Y-80882500I0J147500D01*
G01*
X115445000Y-80587500D01*
G75*
G02*
X115592500Y-80440000I147500J0D01*
G01*
X115937500Y-80440000D01*
G75*
G02*
X116085000Y-80587500I0J-147500D01*
G01*
X116085000Y-80882500D01*
G75*
G02*
X115937500Y-81030000I-147500J0D01*
G01*
G37*
G36*
G01*
X113440000Y-95672500D02*
X113440000Y-95327500D01*
G75*
G02*
X113587500Y-95180000I147500J0D01*
G01*
X113882500Y-95180000D01*
G75*
G02*
X114030000Y-95327500I0J-147500D01*
G01*
X114030000Y-95672500D01*
G75*
G02*
X113882500Y-95820000I-147500J0D01*
G01*
X113587500Y-95820000D01*
G75*
G02*
X113440000Y-95672500I0J147500D01*
G01*
G37*
G36*
G01*
X112470000Y-95672500D02*
X112470000Y-95327500D01*
G75*
G02*
X112617500Y-95180000I147500J0D01*
G01*
X112912500Y-95180000D01*
G75*
G02*
X113060000Y-95327500I0J-147500D01*
G01*
X113060000Y-95672500D01*
G75*
G02*
X112912500Y-95820000I-147500J0D01*
G01*
X112617500Y-95820000D01*
G75*
G02*
X112470000Y-95672500I0J147500D01*
G01*
G37*
G36*
G01*
X102827500Y-96190000D02*
X103172500Y-96190000D01*
G75*
G02*
X103320000Y-96337500I0J-147500D01*
G01*
X103320000Y-96632500D01*
G75*
G02*
X103172500Y-96780000I-147500J0D01*
G01*
X102827500Y-96780000D01*
G75*
G02*
X102680000Y-96632500I0J147500D01*
G01*
X102680000Y-96337500D01*
G75*
G02*
X102827500Y-96190000I147500J0D01*
G01*
G37*
G36*
G01*
X102827500Y-95220000D02*
X103172500Y-95220000D01*
G75*
G02*
X103320000Y-95367500I0J-147500D01*
G01*
X103320000Y-95662500D01*
G75*
G02*
X103172500Y-95810000I-147500J0D01*
G01*
X102827500Y-95810000D01*
G75*
G02*
X102680000Y-95662500I0J147500D01*
G01*
X102680000Y-95367500D01*
G75*
G02*
X102827500Y-95220000I147500J0D01*
G01*
G37*
G36*
G01*
X99310000Y-81327500D02*
X99310000Y-81672500D01*
G75*
G02*
X99162500Y-81820000I-147500J0D01*
G01*
X98867500Y-81820000D01*
G75*
G02*
X98720000Y-81672500I0J147500D01*
G01*
X98720000Y-81327500D01*
G75*
G02*
X98867500Y-81180000I147500J0D01*
G01*
X99162500Y-81180000D01*
G75*
G02*
X99310000Y-81327500I0J-147500D01*
G01*
G37*
G36*
G01*
X100280000Y-81327500D02*
X100280000Y-81672500D01*
G75*
G02*
X100132500Y-81820000I-147500J0D01*
G01*
X99837500Y-81820000D01*
G75*
G02*
X99690000Y-81672500I0J147500D01*
G01*
X99690000Y-81327500D01*
G75*
G02*
X99837500Y-81180000I147500J0D01*
G01*
X100132500Y-81180000D01*
G75*
G02*
X100280000Y-81327500I0J-147500D01*
G01*
G37*
G36*
G01*
X91350000Y-98574999D02*
X91350000Y-99425001D01*
G75*
G02*
X91100001Y-99675000I-249999J0D01*
G01*
X90199999Y-99675000D01*
G75*
G02*
X89950000Y-99425001I0J249999D01*
G01*
X89950000Y-98574999D01*
G75*
G02*
X90199999Y-98325000I249999J0D01*
G01*
X91100001Y-98325000D01*
G75*
G02*
X91350000Y-98574999I0J-249999D01*
G01*
G37*
G36*
G01*
X94050000Y-98574999D02*
X94050000Y-99425001D01*
G75*
G02*
X93800001Y-99675000I-249999J0D01*
G01*
X92899999Y-99675000D01*
G75*
G02*
X92650000Y-99425001I0J249999D01*
G01*
X92650000Y-98574999D01*
G75*
G02*
X92899999Y-98325000I249999J0D01*
G01*
X93800001Y-98325000D01*
G75*
G02*
X94050000Y-98574999I0J-249999D01*
G01*
G37*
G36*
G01*
X92862500Y-89743750D02*
X92862500Y-90256250D01*
G75*
G02*
X92643750Y-90475000I-218750J0D01*
G01*
X92206250Y-90475000D01*
G75*
G02*
X91987500Y-90256250I0J218750D01*
G01*
X91987500Y-89743750D01*
G75*
G02*
X92206250Y-89525000I218750J0D01*
G01*
X92643750Y-89525000D01*
G75*
G02*
X92862500Y-89743750I0J-218750D01*
G01*
G37*
G36*
G01*
X94437500Y-89743750D02*
X94437500Y-90256250D01*
G75*
G02*
X94218750Y-90475000I-218750J0D01*
G01*
X93781250Y-90475000D01*
G75*
G02*
X93562500Y-90256250I0J218750D01*
G01*
X93562500Y-89743750D01*
G75*
G02*
X93781250Y-89525000I218750J0D01*
G01*
X94218750Y-89525000D01*
G75*
G02*
X94437500Y-89743750I0J-218750D01*
G01*
G37*
G36*
G01*
X92862500Y-83743750D02*
X92862500Y-84256250D01*
G75*
G02*
X92643750Y-84475000I-218750J0D01*
G01*
X92206250Y-84475000D01*
G75*
G02*
X91987500Y-84256250I0J218750D01*
G01*
X91987500Y-83743750D01*
G75*
G02*
X92206250Y-83525000I218750J0D01*
G01*
X92643750Y-83525000D01*
G75*
G02*
X92862500Y-83743750I0J-218750D01*
G01*
G37*
G36*
G01*
X94437500Y-83743750D02*
X94437500Y-84256250D01*
G75*
G02*
X94218750Y-84475000I-218750J0D01*
G01*
X93781250Y-84475000D01*
G75*
G02*
X93562500Y-84256250I0J218750D01*
G01*
X93562500Y-83743750D01*
G75*
G02*
X93781250Y-83525000I218750J0D01*
G01*
X94218750Y-83525000D01*
G75*
G02*
X94437500Y-83743750I0J-218750D01*
G01*
G37*
M02*
